<svg xmlns="http://www.w3.org/2000/svg" xmlns:xlink="http://www.w3.org/1999/xlink" viewBox="0 0 550 551.19"><defs><style>.cls-1{isolation:isolate;}.cls-2,.cls-24,.cls-5,.cls-6{fill:#fff;}.cls-3{fill:url(#linear-gradient);}.cls-24,.cls-4{opacity:0.8;}.cls-28,.cls-29,.cls-30,.cls-31,.cls-32,.cls-4{mix-blend-mode:soft-light;}.cls-5{opacity:0.28;}.cls-6{opacity:0.57;}.cls-7{fill:url(#Degradado_sin_nombre_157);}.cls-8{fill:url(#Degradado_sin_nombre_157-2);}.cls-9{fill:url(#Degradado_sin_nombre_91);}.cls-10{fill:url(#Degradado_sin_nombre_91-2);}.cls-11{fill:url(#Degradado_sin_nombre_91-3);}.cls-12,.cls-16,.cls-17{opacity:0.3;mix-blend-mode:multiply;}.cls-12{fill:url(#Degradado_sin_nombre_91-4);}.cls-13{fill:url(#Degradado_sin_nombre_91-5);}.cls-14{fill:url(#Degradado_sin_nombre_91-6);}.cls-15{fill:url(#Degradado_sin_nombre_91-7);}.cls-16{fill:url(#Degradado_sin_nombre_91-8);}.cls-17{fill:url(#Degradado_sin_nombre_91-9);}.cls-18{fill:url(#Degradado_sin_nombre_91-10);}.cls-19{fill:url(#Degradado_sin_nombre_3);}.cls-20{fill:url(#Degradado_sin_nombre_3-2);}.cls-21{fill:url(#Degradado_sin_nombre_3-3);}.cls-22{fill:url(#Degradado_sin_nombre_91-11);}.cls-23{fill:url(#Degradado_sin_nombre_3-4);}.cls-25{fill:url(#Degradado_sin_nombre_3-5);}.cls-26{fill:url(#Degradado_sin_nombre_3-6);}.cls-27{fill:url(#Degradado_sin_nombre_91-12);}.cls-28{fill:url(#Degradado_sin_nombre_132);}.cls-29{fill:url(#Degradado_sin_nombre_132-2);}.cls-30{fill:url(#Degradado_sin_nombre_132-3);}.cls-31{fill:url(#Degradado_sin_nombre_132-4);}.cls-32{fill:url(#Degradado_sin_nombre_132-5);}.cls-33{fill:url(#Degradado_sin_nombre_72);}.cls-34{fill:url(#Degradado_sin_nombre_72-2);}.cls-35{fill:url(#Degradado_sin_nombre_72-3);}.cls-36{fill:url(#Degradado_sin_nombre_72-4);}.cls-37{fill:url(#Degradado_sin_nombre_72-5);}.cls-38{fill:url(#Degradado_sin_nombre_72-6);}.cls-39{fill:url(#Degradado_sin_nombre_3-7);}</style><linearGradient id="linear-gradient" x1="267.11" y1="558.54" x2="281" y2="8.71" gradientUnits="userSpaceOnUse"><stop offset="0" stop-color="#e74752"/><stop offset="0.1" stop-color="#ba374e"/><stop offset="0.2" stop-color="#962a4b"/><stop offset="0.3" stop-color="#792049"/><stop offset="0.4" stop-color="#641947"/><stop offset="0.5" stop-color="#581446"/><stop offset="0.59" stop-color="#541346"/><stop offset="1" stop-color="#201346"/></linearGradient><linearGradient id="Degradado_sin_nombre_157" x1="121.47" y1="1186.34" x2="190.57" y2="1186.34" gradientTransform="matrix(0.9, -0.43, 0.43, 0.9, -160.6, -698.57)" gradientUnits="userSpaceOnUse"><stop offset="0" stop-color="#fff"/><stop offset="0.11" stop-color="#fff" stop-opacity="0.79"/><stop offset="0.24" stop-color="#fff" stop-opacity="0.58"/><stop offset="0.37" stop-color="#fff" stop-opacity="0.4"/><stop offset="0.5" stop-color="#fff" stop-opacity="0.26"/><stop offset="0.63" stop-color="#fff" stop-opacity="0.14"/><stop offset="0.75" stop-color="#fff" stop-opacity="0.06"/><stop offset="0.88" stop-color="#fff" stop-opacity="0.02"/><stop offset="1" stop-color="#fff" stop-opacity="0"/></linearGradient><linearGradient id="Degradado_sin_nombre_157-2" x1="123.21" y1="1196.47" x2="148.85" y2="1196.47" xlink:href="#Degradado_sin_nombre_157"/><linearGradient id="Degradado_sin_nombre_91" x1="153.18" y1="255.48" x2="138.74" y2="230.28" gradientUnits="userSpaceOnUse"><stop offset="0" stop-color="#5632bd"/><stop offset="1" stop-color="#ff6ae3"/></linearGradient><linearGradient id="Degradado_sin_nombre_91-2" x1="170.73" y1="244.6" x2="169.79" y2="242.96" xlink:href="#Degradado_sin_nombre_91"/><linearGradient id="Degradado_sin_nombre_91-3" x1="195.34" y1="358.01" x2="180.32" y2="331.8" xlink:href="#Degradado_sin_nombre_91"/><linearGradient id="Degradado_sin_nombre_91-4" x1="123.13" y1="241.23" x2="168.29" y2="241.23" xlink:href="#Degradado_sin_nombre_91"/><linearGradient id="Degradado_sin_nombre_91-5" x1="198.32" y1="129.09" x2="114.47" y2="273.69" xlink:href="#Degradado_sin_nombre_91"/><linearGradient id="Degradado_sin_nombre_91-6" x1="382.75" y1="357.2" x2="367.55" y2="330.65" xlink:href="#Degradado_sin_nombre_91"/><linearGradient id="Degradado_sin_nombre_91-7" x1="425.15" y1="258.31" x2="410.71" y2="233.11" xlink:href="#Degradado_sin_nombre_91"/><linearGradient id="Degradado_sin_nombre_91-8" x1="419.71" y1="253.93" x2="420.35" y2="253.93" xlink:href="#Degradado_sin_nombre_91"/><linearGradient id="Degradado_sin_nombre_91-9" x1="391.93" y1="241.23" x2="437.09" y2="241.23" xlink:href="#Degradado_sin_nombre_91"/><linearGradient id="Degradado_sin_nombre_91-10" x1="418.23" y1="148.94" x2="361.66" y2="246.51" xlink:href="#Degradado_sin_nombre_91"/><linearGradient id="Degradado_sin_nombre_3" x1="173.32" y1="251.39" x2="173.3" y2="248.58" gradientUnits="userSpaceOnUse"><stop offset="0" stop-color="#ffeb6a"/><stop offset="1" stop-color="#ff4486"/></linearGradient><linearGradient id="Degradado_sin_nombre_3-2" x1="174.21" y1="251.38" x2="174.19" y2="248.57" xlink:href="#Degradado_sin_nombre_3"/><linearGradient id="Degradado_sin_nombre_3-3" x1="173.87" y1="251.39" x2="173.85" y2="248.57" xlink:href="#Degradado_sin_nombre_3"/><linearGradient id="Degradado_sin_nombre_91-11" x1="278.78" y1="514" x2="276.29" y2="135.64" xlink:href="#Degradado_sin_nombre_91"/><linearGradient id="Degradado_sin_nombre_3-4" x1="174.16" y1="251.24" x2="174.27" y2="251.24" xlink:href="#Degradado_sin_nombre_3"/><linearGradient id="Degradado_sin_nombre_3-5" x1="307.36" y1="271.3" x2="378.59" y2="271.3" xlink:href="#Degradado_sin_nombre_3"/><linearGradient id="Degradado_sin_nombre_3-6" x1="235.01" y1="195.23" x2="292.75" y2="195.23" xlink:href="#Degradado_sin_nombre_3"/><linearGradient id="Degradado_sin_nombre_91-12" x1="160.24" y1="923.7" x2="169.36" y2="1024.71" gradientTransform="translate(-116.7 -632.68) rotate(-13.84)" xlink:href="#Degradado_sin_nombre_91"/><linearGradient id="Degradado_sin_nombre_132" x1="343.08" y1="242.2" x2="347.53" y2="317.95" gradientUnits="userSpaceOnUse"><stop offset="0" stop-color="#fff588"/><stop offset="1" stop-color="#fff" stop-opacity="0"/></linearGradient><linearGradient id="Degradado_sin_nombre_132-2" x1="249.04" y1="164.68" x2="253.43" y2="239.42" xlink:href="#Degradado_sin_nombre_132"/><linearGradient id="Degradado_sin_nombre_132-3" x1="271" y1="196.73" x2="272.78" y2="227.07" xlink:href="#Degradado_sin_nombre_132"/><linearGradient id="Degradado_sin_nombre_132-4" x1="280.22" y1="274.96" x2="282.88" y2="320.27" xlink:href="#Degradado_sin_nombre_132"/><linearGradient id="Degradado_sin_nombre_132-5" x1="267.98" y1="230.63" x2="269.53" y2="257" xlink:href="#Degradado_sin_nombre_132"/><linearGradient id="Degradado_sin_nombre_72" x1="-19.92" y1="-1193.64" x2="-4.23" y2="-1276.45" gradientTransform="matrix(0.87, 0.49, -0.49, 0.87, -278.02, 1301.06)" gradientUnits="userSpaceOnUse"><stop offset="0" stop-color="#33b1e7"/><stop offset="0.48" stop-color="#3ad3db"/><stop offset="1" stop-color="#43fbcd"/></linearGradient><linearGradient id="Degradado_sin_nombre_72-2" x1="307.16" y1="273.46" x2="316.35" y2="241.4" gradientTransform="matrix(1, 0, 0, 1, 0, 0)" xlink:href="#Degradado_sin_nombre_72"/><linearGradient id="Degradado_sin_nombre_72-3" x1="344.52" y1="221.8" x2="334.13" y2="173.47" gradientTransform="matrix(1, 0, 0, 1, 0, 0)" xlink:href="#Degradado_sin_nombre_72"/><linearGradient id="Degradado_sin_nombre_72-4" x1="-5286.67" y1="1683.19" x2="-5270.89" y2="1599.89" gradientTransform="matrix(-0.89, 0.45, 0.45, 0.89, -5229.56, 1184.34)" xlink:href="#Degradado_sin_nombre_72"/><linearGradient id="Degradado_sin_nombre_72-5" x1="-5693.07" y1="168.63" x2="-5683.82" y2="136.36" gradientTransform="matrix(-1, -0.05, -0.05, 1, -5445.3, -129.23)" xlink:href="#Degradado_sin_nombre_72"/><linearGradient id="Degradado_sin_nombre_72-6" x1="-5655.39" y1="116.61" x2="-5665.75" y2="68.43" gradientTransform="matrix(-1, -0.05, -0.05, 1, -5445.3, -129.23)" xlink:href="#Degradado_sin_nombre_72"/><linearGradient id="Degradado_sin_nombre_3-7" x1="279.82" y1="336.49" x2="378.59" y2="336.49" xlink:href="#Degradado_sin_nombre_3"/></defs><g class="cls-1"><g id="Layer_2" data-name="Layer 2"><g id="Layer_1-2" data-name="Layer 1"><path class="cls-2" d="M367.41,2.66c0,1.47-.73,2.66-1.63,2.66s-1.64-1.19-1.64-2.66S364.87,0,365.78,0,367.41,1.19,367.41,2.66Z"/><path class="cls-2" d="M367.41,2.66c0,1.47-.73,2.66-1.63,2.66s-1.64-1.19-1.64-2.66S364.87,0,365.78,0,367.41,1.19,367.41,2.66Z"/><path class="cls-2" d="M367.41,2.66c0,1.47-.73,2.66-1.63,2.66s-1.64-1.19-1.64-2.66S364.87,0,365.78,0,367.41,1.19,367.41,2.66Z"/><path class="cls-2" d="M367.41,2.66c0,1.47-.73,2.66-1.63,2.66s-1.64-1.19-1.64-2.66S364.87,0,365.78,0,367.41,1.19,367.41,2.66Z"/><path class="cls-2" d="M366.59,2.66c0,.74-.36,1.33-.81,1.33S365,3.4,365,2.66s.37-1.33.82-1.33S366.59,1.93,366.59,2.66Z"/><path class="cls-2" d="M366.59,2.66c0,.74-.36,1.33-.81,1.33S365,3.4,365,2.66s.37-1.33.82-1.33S366.59,1.93,366.59,2.66Z"/><ellipse class="cls-2" cx="365.78" cy="2.66" rx="0.82" ry="1.33"/><path class="cls-2" d="M367.41,2.66c0,1.47-.73,2.66-1.63,2.66s-1.64-1.19-1.64-2.66S364.87,0,365.78,0,367.41,1.19,367.41,2.66Z"/><ellipse class="cls-2" cx="365.78" cy="2.66" rx="1.63" ry="2.66"/><path class="cls-2" d="M367.41,2.66c0,1.47-.73,2.66-1.63,2.66s-1.64-1.19-1.64-2.66S364.87,0,365.78,0,367.41,1.19,367.41,2.66Z"/><path class="cls-2" d="M367.41,2.66c0,1.47-.73,2.66-1.63,2.66s-1.64-1.19-1.64-2.66S364.87,0,365.78,0,367.41,1.19,367.41,2.66Z"/><ellipse class="cls-2" cx="365.78" cy="2.66" rx="0.82" ry="1.33"/><path class="cls-2" d="M366.59,2.66c0,.74-.36,1.33-.81,1.33S365,3.4,365,2.66s.37-1.33.82-1.33S366.59,1.93,366.59,2.66Z"/><path class="cls-2" d="M366.59,2.66c0,.74-.36,1.33-.81,1.33S365,3.4,365,2.66s.37-1.33.82-1.33S366.59,1.93,366.59,2.66Z"/><ellipse class="cls-2" cx="365.78" cy="2.66" rx="0.45" ry="0.74"/><ellipse class="cls-2" cx="365.78" cy="2.66" rx="0.45" ry="0.74"/><path class="cls-2" d="M366.59,2.66c0,.74-.36,1.33-.81,1.33S365,3.4,365,2.66s.37-1.33.82-1.33S366.59,1.93,366.59,2.66Z"/><path class="cls-2" d="M366.23,2.66c0,.41-.2.74-.45.74s-.46-.33-.46-.74.21-.74.46-.74S366.23,2.25,366.23,2.66Z"/><path class="cls-2" d="M366.23,2.66c0,.41-.2.74-.45.74s-.46-.33-.46-.74.21-.74.46-.74S366.23,2.25,366.23,2.66Z"/><ellipse class="cls-2" cx="365.78" cy="2.66" rx="0.45" ry="0.74"/><ellipse class="cls-2" cx="365.78" cy="2.66" rx="0.45" ry="0.74"/><ellipse class="cls-2" cx="365.78" cy="2.66" rx="0.45" ry="0.74"/><ellipse class="cls-2" cx="365.78" cy="2.66" rx="0.45" ry="0.74"/><ellipse class="cls-2" cx="365.78" cy="2.66" rx="0.82" ry="1.33"/><ellipse class="cls-2" cx="365.78" cy="2.66" rx="0.82" ry="1.33"/><ellipse class="cls-2" cx="365.78" cy="2.66" rx="0.82" ry="1.33"/><ellipse class="cls-2" cx="365.78" cy="2.66" rx="0.45" ry="0.74"/><ellipse class="cls-2" cx="365.78" cy="2.66" rx="0.45" ry="0.74"/><path class="cls-2" d="M366,3.27c-.2.23-.48.14-.63-.19a1.06,1.06,0,0,1,.12-1c.21-.23.49-.14.63.19A1.06,1.06,0,0,1,366,3.27Z"/><path class="cls-2" d="M365.86,1.94c.25.08.41.47.36.87s-.29.65-.53.57a.79.79,0,0,1-.36-.86C365.38,2.12,365.62,1.86,365.86,1.94Z"/><ellipse class="cls-2" cx="365.78" cy="2.66" rx="0.45" ry="0.74"/><ellipse class="cls-2" cx="365.78" cy="2.66" rx="0.82" ry="1.33"/><ellipse class="cls-2" cx="365.78" cy="2.66" rx="0.45" ry="0.74"/><path class="cls-2" d="M365.86,1.94c.25.08.41.47.36.87s-.29.65-.53.57a.79.79,0,0,1-.36-.86C365.38,2.12,365.62,1.86,365.86,1.94Z"/><ellipse class="cls-3" cx="274.25" cy="276.19" rx="274.25" ry="275"/><path class="cls-2" d="M306.09,441.1c0,1.84-.89,3.32-2,3.32s-2-1.48-2-3.32.9-3.33,2-3.33S306.09,439.26,306.09,441.1Z"/><ellipse class="cls-2" cx="371.07" cy="496.86" rx="0.56" ry="0.92"/><ellipse class="cls-2" cx="447.08" cy="483.68" rx="0.56" ry="0.92"/><ellipse class="cls-2" cx="334.92" cy="493.74" rx="0.56" ry="0.92"/><ellipse class="cls-2" cx="385.82" cy="504.39" rx="0.56" ry="0.92"/><ellipse class="cls-2" cx="427.59" cy="462.67" rx="0.56" ry="0.92"/><ellipse class="cls-2" cx="434.15" cy="436.65" rx="0.56" ry="0.92"/><path class="cls-2" d="M450.9,445.07c0,1.84-.9,3.33-2,3.33s-2-1.49-2-3.33.9-3.32,2-3.32S450.9,443.24,450.9,445.07Z"/><ellipse class="cls-2" cx="467.54" cy="473.02" rx="0.56" ry="0.92"/><path class="cls-2" d="M77.17,465.71c0,.92-.45,1.66-1,1.66s-1-.74-1-1.66.45-1.66,1-1.66S77.17,464.79,77.17,465.71Z"/><path class="cls-2" d="M317.06,514.07c0,.92-.45,1.66-1,1.66s-1-.74-1-1.66.44-1.66,1-1.66S317.06,513.15,317.06,514.07Z"/><ellipse class="cls-2" cx="141.93" cy="471.1" rx="0.56" ry="0.92"/><ellipse class="cls-2" cx="169.26" cy="500.22" rx="0.56" ry="0.92"/><path class="cls-2" d="M227,544.36c0,1.84-.9,3.32-2,3.32s-2-1.48-2-3.32.9-3.32,2-3.32S227,542.52,227,544.36Z"/><path class="cls-2" d="M272.25,463.9c0,.92-.45,1.66-1,1.66s-1-.74-1-1.66.45-1.67,1-1.67S272.25,463,272.25,463.9Z"/><path class="cls-2" d="M127.74,275.63a1.84,1.84,0,1,1-1.84-1.95A1.89,1.89,0,0,1,127.74,275.63Z"/><ellipse class="cls-2" cx="5.03" cy="302.56" rx="0.51" ry="0.54"/><ellipse class="cls-2" cx="81.7" cy="246.71" rx="0.92" ry="0.97"/><path class="cls-2" d="M72.79,365.68A1.84,1.84,0,1,1,71,363.74,1.9,1.9,0,0,1,72.79,365.68Z"/><g class="cls-4"><polygon class="cls-5" points="70.41 365.52 71.16 342.2 71.6 365.36 71.45 391.36 70.41 365.52"/><polygon class="cls-5" points="71.16 365.05 93.21 365.84 71.31 366.31 46.72 366.15 71.16 365.05"/><polygon class="cls-6" points="70.62 365.2 82.92 354.1 71.29 365.8 57.92 378.56 70.62 365.2"/><polygon class="cls-6" points="71.23 365.39 81.72 378.4 70.66 366.1 58.6 351.95 71.23 365.39"/></g><path class="cls-2" d="M195.45,312.83a1.84,1.84,0,1,1-1.84-1.94A1.9,1.9,0,0,1,195.45,312.83Z"/><ellipse class="cls-2" cx="35.03" cy="316.01" rx="0.92" ry="0.97"/><path class="cls-2" d="M27.35,370.86a.92.92,0,1,1-.92-1A.95.95,0,0,1,27.35,370.86Z"/><path class="cls-2" d="M55.28,435.59a.92.92,0,1,1-.92-1A.95.95,0,0,1,55.28,435.59Z"/><ellipse class="cls-2" cx="88.06" cy="382.03" rx="0.51" ry="0.54"/><ellipse class="cls-2" cx="137.02" cy="432.46" rx="0.51" ry="0.54"/><path class="cls-2" d="M168.75,269.13a1.84,1.84,0,1,1-1.84-1.95A1.9,1.9,0,0,1,168.75,269.13Z"/><ellipse class="cls-2" cx="266.75" cy="267.68" rx="1.84" ry="1.95"/><path class="cls-2" d="M131.61,247.08a1.84,1.84,0,1,1-1.84-2A1.89,1.89,0,0,1,131.61,247.08Z"/><path class="cls-2" d="M355.75,275.63a1.84,1.84,0,1,1-1.84-1.95A1.89,1.89,0,0,1,355.75,275.63Z"/><ellipse class="cls-2" cx="186.61" cy="254.57" rx="0.92" ry="0.97"/><path class="cls-2" d="M225.37,249.56a.92.92,0,1,1-.92-1A.95.95,0,0,1,225.37,249.56Z"/><path class="cls-2" d="M187.18,309a.92.92,0,1,1-.92-1A.95.95,0,0,1,187.18,309Z"/><ellipse class="cls-2" cx="159.49" cy="370.67" rx="0.51" ry="0.54"/><ellipse class="cls-2" cx="233.04" cy="302.56" rx="0.51" ry="0.54"/><ellipse class="cls-2" cx="221.47" cy="314.57" rx="0.51" ry="0.54"/><ellipse class="cls-2" cx="215.11" cy="323.86" rx="0.51" ry="0.54"/><ellipse class="cls-2" cx="83.97" cy="315.04" rx="0.51" ry="0.54"/><path class="cls-2" d="M163.33,343.54a.92.92,0,1,1-.92-1A1,1,0,0,1,163.33,343.54Z"/><path class="cls-2" d="M310.63,246.71a.92.92,0,1,1-.92-1A.95.95,0,0,1,310.63,246.71Z"/><path class="cls-2" d="M169.19,470.42a1.84,1.84,0,1,1-1.84-1.94A1.89,1.89,0,0,1,169.19,470.42Z"/><path class="cls-2" d="M125.63,478.63a1.84,1.84,0,1,1-1.83-1.94A1.89,1.89,0,0,1,125.63,478.63Z"/><path class="cls-2" d="M300.8,365.68a1.84,1.84,0,1,1-1.84-1.94A1.89,1.89,0,0,1,300.8,365.68Z"/><ellipse class="cls-2" cx="421.62" cy="312.83" rx="1.84" ry="1.95"/><ellipse class="cls-2" cx="282.37" cy="309.4" rx="0.92" ry="0.97"/><path class="cls-2" d="M129.71,403.68a.92.92,0,1,1-.92-1A1,1,0,0,1,129.71,403.68Z"/><ellipse class="cls-2" cx="220.93" cy="351.38" rx="0.92" ry="0.97"/><ellipse class="cls-2" cx="340.69" cy="379.89" rx="0.92" ry="0.97"/><path class="cls-2" d="M217.17,430.33a.92.92,0,1,1-.92-1A.94.94,0,0,1,217.17,430.33Z"/><path class="cls-2" d="M133.87,319.26a.92.92,0,1,1-.92-1A.95.95,0,0,1,133.87,319.26Z"/><ellipse class="cls-2" cx="235.04" cy="441.78" rx="0.51" ry="0.54"/><ellipse class="cls-2" cx="263.04" cy="423.85" rx="0.51" ry="0.54"/><ellipse class="cls-2" cx="316.07" cy="382.03" rx="0.51" ry="0.54"/><ellipse class="cls-2" cx="306.86" cy="350.28" rx="0.51" ry="0.54"/><ellipse class="cls-2" cx="366.73" cy="338.7" rx="0.51" ry="0.54"/><ellipse class="cls-2" cx="365.03" cy="432.46" rx="0.51" ry="0.54"/><ellipse class="cls-2" cx="295.73" cy="487.6" rx="0.51" ry="0.54"/><ellipse class="cls-2" cx="311.03" cy="479.17" rx="0.51" ry="0.54"/><ellipse class="cls-2" cx="308.12" cy="468.91" rx="0.51" ry="0.54"/><path class="cls-2" d="M245.82,429.55a.54.54,0,0,1,.4.64.51.51,0,0,1-.6.42.55.55,0,0,1-.4-.63A.52.52,0,0,1,245.82,429.55Z"/><ellipse class="cls-2" cx="214.6" cy="384.1" rx="0.51" ry="0.54"/><ellipse class="cls-2" cx="247.28" cy="396.96" rx="0.51" ry="0.54"/><ellipse class="cls-2" cx="529.43" cy="343.32" rx="0.51" ry="0.54"/><path class="cls-2" d="M540.21,331.1a.53.53,0,0,1,.4.63.51.51,0,0,1-.6.42.54.54,0,0,1-.4-.63A.52.52,0,0,1,540.21,331.1Z"/><ellipse class="cls-2" cx="541.67" cy="298.5" rx="0.51" ry="0.54"/><ellipse class="cls-2" cx="178.73" cy="394.13" rx="0.51" ry="0.54"/><ellipse class="cls-2" cx="549.49" cy="269.56" rx="0.51" ry="0.54"/><ellipse class="cls-2" cx="129.9" cy="504.55" rx="0.51" ry="0.54"/><ellipse class="cls-2" cx="167.8" cy="501.18" rx="0.51" ry="0.54"/><ellipse class="cls-2" cx="107.41" cy="483.67" rx="0.92" ry="0.97"/><path class="cls-2" d="M412.13,342.92a.92.92,0,1,1-.92-1A.94.94,0,0,1,412.13,342.92Z"/><ellipse class="cls-2" cx="384.43" cy="404.55" rx="0.51" ry="0.54"/><ellipse class="cls-2" cx="457.99" cy="336.44" rx="0.51" ry="0.54"/><ellipse class="cls-2" cx="282.37" cy="271.54" rx="0.51" ry="0.54"/><ellipse class="cls-2" cx="500.03" cy="262.71" rx="0.51" ry="0.54"/><ellipse class="cls-2" cx="446.92" cy="292.47" rx="0.51" ry="0.54"/><ellipse class="cls-2" cx="440.06" cy="357.75" rx="0.51" ry="0.54"/><path class="cls-2" d="M320,340.23a.51.51,0,0,1-.58-.45.52.52,0,0,1,.42-.61.5.5,0,0,1,.58.45A.53.53,0,0,1,320,340.23Z"/><path class="cls-2" d="M388.28,377.43a.92.92,0,1,1-.92-1A.94.94,0,0,1,388.28,377.43Z"/><ellipse class="cls-2" cx="96.08" cy="262.17" rx="0.92" ry="0.97"/><path class="cls-2" d="M372.49,503.11a1.84,1.84,0,1,1-1.84-1.94A1.89,1.89,0,0,1,372.49,503.11Z"/><path class="cls-2" d="M301.13,531a1.84,1.84,0,1,1-1.84-1.94A1.9,1.9,0,0,1,301.13,531Z"/><path class="cls-2" d="M508.24,343.28a.92.92,0,1,1-.92-1A1,1,0,0,1,508.24,343.28Z"/><path class="cls-2" d="M354.65,437.57a.92.92,0,1,1-.92-1A.95.95,0,0,1,354.65,437.57Z"/><ellipse class="cls-2" cx="491.7" cy="287.37" rx="0.92" ry="0.97"/><ellipse class="cls-2" cx="480.24" cy="253.49" rx="0.92" ry="0.97"/><ellipse class="cls-2" cx="463.46" cy="387.73" rx="0.92" ry="0.97"/><ellipse class="cls-2" cx="357.9" cy="353.14" rx="0.92" ry="0.97"/><path class="cls-2" d="M418.68,511.79a.92.92,0,1,1-.92-1A1,1,0,0,1,418.68,511.79Z"/><ellipse class="cls-2" cx="459.99" cy="475.66" rx="0.51" ry="0.54"/><ellipse class="cls-2" cx="521.28" cy="389.03" rx="0.51" ry="0.54"/><path class="cls-2" d="M433.53,447.62a1.84,1.84,0,1,1-1.84-1.95A1.89,1.89,0,0,1,433.53,447.62Z"/><path class="cls-2" d="M470.77,463.44a.53.53,0,0,1,.4.63.52.52,0,0,1-.6.43.56.56,0,0,1-.4-.64A.52.52,0,0,1,470.77,463.44Z"/><ellipse class="cls-2" cx="439.55" cy="417.98" rx="0.51" ry="0.54"/><path class="cls-2" d="M472.73,430.84a.51.51,0,1,1-.51-.54A.53.53,0,0,1,472.73,430.84Z"/><ellipse class="cls-2" cx="403.68" cy="428.02" rx="0.51" ry="0.54"/><ellipse class="cls-2" cx="436.14" cy="285.14" rx="0.51" ry="0.54"/><ellipse class="cls-2" cx="411.68" cy="328.66" rx="0.51" ry="0.54"/><ellipse class="cls-2" cx="472.08" cy="290.09" rx="0.51" ry="0.54"/><path class="cls-2" d="M459.17,267a.49.49,0,0,1-.71-.14.55.55,0,0,1,.14-.75.48.48,0,0,1,.7.14A.56.56,0,0,1,459.17,267Z"/><path class="cls-2" d="M433.55,241.09a.53.53,0,0,1,.4.63.52.52,0,0,1-.6.43.56.56,0,0,1-.4-.64A.52.52,0,0,1,433.55,241.09Z"/><ellipse class="cls-2" cx="386.18" cy="286.24" rx="0.51" ry="0.54"/><path class="cls-2" d="M497.26,317a.92.92,0,1,1-.92-1A1,1,0,0,1,497.26,317Z"/><ellipse class="cls-2" cx="520.86" cy="251.03" rx="0.92" ry="0.97"/><ellipse class="cls-2" cx="538.56" cy="280.89" rx="0.51" ry="0.54"/><path class="cls-2" d="M549.35,268.67a.54.54,0,0,1,.4.63.51.51,0,0,1-.6.42.53.53,0,0,1-.4-.63A.51.51,0,0,1,549.35,268.67Z"/><ellipse class="cls-2" cx="354.85" cy="538.43" rx="0.51" ry="0.54"/><ellipse class="cls-2" cx="332.36" cy="517.56" rx="0.92" ry="0.97"/><path class="cls-2" d="M324.51,474.53a.92.92,0,1,1-.92-1A.95.95,0,0,1,324.51,474.53Z"/><path class="cls-7" d="M525,287c.27.61-59.69,31.2-60.27,31.49a1.14,1.14,0,0,1-1.55-.57,1.26,1.26,0,0,1,.54-1.64C464.33,315.93,524.75,286.34,525,287Z"/><ellipse class="cls-2" cx="289.73" cy="174.61" rx="0.22" ry="0.44"/><ellipse class="cls-2" cx="279.67" cy="541.38" rx="0.56" ry="0.92"/><ellipse class="cls-2" cx="317.24" cy="503.32" rx="0.56" ry="0.92"/><path class="cls-2" d="M108.9,141.33c0,1.58-.77,2.85-1.73,2.85s-1.73-1.27-1.73-2.85.78-2.85,1.73-2.85S108.9,139.76,108.9,141.33Z"/><g class="cls-4"><polygon class="cls-5" points="106.67 141.09 107.37 106.96 107.79 140.86 107.65 178.92 106.67 141.09"/><polygon class="cls-5" points="107.37 140.41 128.1 141.56 107.51 142.25 84.39 142.02 107.37 140.41"/><polygon class="cls-6" points="106.87 140.63 118.43 124.38 107.5 141.51 94.92 160.19 106.87 140.63"/><polygon class="cls-6" points="107.44 140.91 117.31 159.95 106.9 141.95 95.56 121.24 107.44 140.91"/></g><path class="cls-2" d="M224.25,64c0,1.57-.77,2.84-1.73,2.84s-1.73-1.27-1.73-2.84.78-2.85,1.73-2.85S224.25,62.39,224.25,64Z"/><path class="cls-2" d="M66.17,148.91c0,.79-.39,1.43-.87,1.43s-.86-.64-.86-1.43.38-1.42.86-1.42S66.17,148.13,66.17,148.91Z"/><path class="cls-2" d="M92.44,243.67c0,.79-.39,1.42-.87,1.42s-.86-.63-.86-1.42.39-1.42.86-1.42S92.44,242.88,92.44,243.67Z"/><path class="cls-2" d="M30.26,236c0,.78-.39,1.42-.87,1.42s-.86-.64-.86-1.42.38-1.43.86-1.43S30.26,235.19,30.26,236Z"/><path class="cls-2" d="M41.28,284.57c0,.79-.39,1.43-.86,1.43s-.87-.64-.87-1.43.39-1.42.87-1.42S41.28,283.79,41.28,284.57Z"/><ellipse class="cls-2" cx="47.06" cy="252.74" rx="0.48" ry="0.79"/><ellipse class="cls-2" cx="73.39" cy="226.49" rx="0.48" ry="0.79"/><ellipse class="cls-2" cx="123.26" cy="165.27" rx="0.48" ry="0.79"/><ellipse class="cls-2" cx="62.5" cy="244.08" rx="0.48" ry="0.79"/><ellipse class="cls-2" cx="70.65" cy="277.68" rx="0.48" ry="0.79"/><ellipse class="cls-2" cx="102.34" cy="277.49" rx="0.48" ry="0.79"/><ellipse class="cls-2" cx="169.31" cy="239.1" rx="0.48" ry="0.79"/><ellipse class="cls-2" cx="56.52" cy="257.68" rx="0.48" ry="0.79"/><ellipse class="cls-2" cx="104.13" cy="319.82" rx="0.48" ry="0.79"/><path class="cls-2" d="M57.2,234.84c.26.08.43.5.38.92s-.31.71-.57.62-.42-.5-.37-.92S56.94,234.75,57.2,234.84Z"/><ellipse class="cls-2" cx="44.49" cy="350.49" rx="0.48" ry="0.79"/><ellipse class="cls-2" cx="27.84" cy="168.3" rx="0.48" ry="0.79"/><ellipse class="cls-2" cx="58.57" cy="187.12" rx="0.48" ry="0.79"/><ellipse class="cls-2" cx="6.96" cy="286.5" rx="0.86" ry="1.42"/><path class="cls-2" d="M216.48,58.41c0,.78-.39,1.42-.87,1.42s-.86-.64-.86-1.42.39-1.43.86-1.43S216.48,57.62,216.48,58.41Z"/><ellipse class="cls-2" cx="190.43" cy="148.63" rx="0.48" ry="0.79"/><ellipse class="cls-2" cx="259.61" cy="48.92" rx="0.48" ry="0.79"/><ellipse class="cls-2" cx="248.72" cy="66.51" rx="0.48" ry="0.79"/><ellipse class="cls-2" cx="242.75" cy="80.11" rx="0.48" ry="0.79"/><ellipse class="cls-2" cx="119.42" cy="67.19" rx="0.48" ry="0.79"/><path class="cls-2" d="M194.05,108.93c0,.78-.39,1.42-.87,1.42s-.86-.64-.86-1.42.39-1.43.86-1.43S194.05,108.14,194.05,108.93Z"/><path class="cls-2" d="M199.56,294.67c0,1.57-.78,2.85-1.73,2.85s-1.73-1.28-1.73-2.85.77-2.85,1.73-2.85S199.56,293.1,199.56,294.67Z"/><path class="cls-2" d="M158.6,306.68c0,1.58-.78,2.85-1.73,2.85s-1.73-1.27-1.73-2.85.77-2.84,1.73-2.84S158.6,305.11,158.6,306.68Z"/><path class="cls-2" d="M95.43,421.9c0,1.57-.77,2.85-1.73,2.85S92,423.47,92,421.9s.78-2.85,1.73-2.85S95.43,420.33,95.43,421.9Z"/><path class="cls-2" d="M323.33,141.33c0,1.58-.78,2.85-1.73,2.85s-1.73-1.27-1.73-2.85.77-2.85,1.73-2.85S323.33,139.76,323.33,141.33Z"/><ellipse class="cls-2" cx="436.95" cy="63.97" rx="1.73" ry="2.85"/><ellipse class="cls-2" cx="306" cy="58.94" rx="0.86" ry="1.42"/><path class="cls-2" d="M162.43,197c0,.79-.39,1.43-.87,1.43s-.86-.64-.86-1.43.39-1.42.86-1.42S162.43,196.18,162.43,197Z"/><ellipse class="cls-2" cx="248.22" cy="120.4" rx="0.86" ry="1.42"/><ellipse class="cls-2" cx="360.84" cy="162.13" rx="0.86" ry="1.42"/><path class="cls-2" d="M244.68,236c0,.78-.39,1.42-.86,1.42s-.87-.64-.87-1.42.39-1.43.87-1.43S244.68,235.19,244.68,236Z"/><path class="cls-2" d="M166.35,73.37c0,.79-.39,1.42-.87,1.42s-.86-.63-.86-1.42S165,72,165.48,72,166.35,72.58,166.35,73.37Z"/><ellipse class="cls-2" cx="261.48" cy="252.74" rx="0.48" ry="0.79"/><ellipse class="cls-2" cx="287.81" cy="226.49" rx="0.48" ry="0.79"/><ellipse class="cls-2" cx="337.69" cy="165.27" rx="0.48" ry="0.79"/><ellipse class="cls-2" cx="329.02" cy="118.78" rx="0.48" ry="0.79"/><ellipse class="cls-2" cx="385.33" cy="101.84" rx="0.48" ry="0.79"/><ellipse class="cls-2" cx="383.73" cy="239.1" rx="0.48" ry="0.79"/><ellipse class="cls-2" cx="318.56" cy="319.82" rx="0.48" ry="0.79"/><ellipse class="cls-2" cx="332.95" cy="307.47" rx="0.48" ry="0.79"/><ellipse class="cls-2" cx="330.21" cy="292.45" rx="0.48" ry="0.79"/><path class="cls-2" d="M271.63,234.84c.26.08.42.5.37.92s-.3.71-.56.62-.43-.5-.38-.92S271.37,234.75,271.63,234.84Z"/><ellipse class="cls-2" cx="242.27" cy="168.3" rx="0.48" ry="0.79"/><ellipse class="cls-2" cx="272.99" cy="187.12" rx="0.48" ry="0.79"/><ellipse class="cls-2" cx="208.53" cy="182.99" rx="0.48" ry="0.79"/><ellipse class="cls-2" cx="162.61" cy="344.62" rx="0.48" ry="0.79"/><ellipse class="cls-2" cx="198.25" cy="339.7" rx="0.48" ry="0.79"/><ellipse class="cls-2" cx="141.46" cy="314.06" rx="0.86" ry="1.42"/><ellipse class="cls-2" cx="175.63" cy="418.68" rx="0.86" ry="1.42"/><path class="cls-2" d="M428,108c0,.79-.38,1.42-.86,1.42s-.87-.63-.87-1.42.39-1.42.87-1.42S428,107.22,428,108Z"/><ellipse class="cls-2" cx="401.98" cy="198.24" rx="0.48" ry="0.79"/><ellipse class="cls-2" cx="471.15" cy="98.53" rx="0.48" ry="0.79"/><ellipse class="cls-2" cx="454.29" cy="129.72" rx="0.48" ry="0.79"/><path class="cls-2" d="M341.4,104.08c-.26.06-.51-.24-.55-.67s.14-.83.41-.89.5.23.54.66S341.66,104,341.4,104.08Z"/><path class="cls-2" d="M405.59,158.53c0,.79-.38,1.42-.86,1.42s-.87-.63-.87-1.42.39-1.42.87-1.42S405.59,157.74,405.59,158.53Z"/><path class="cls-2" d="M390.75,342.52c0,1.57-.78,2.85-1.73,2.85s-1.73-1.28-1.73-2.85.77-2.85,1.73-2.85S390.75,341,390.75,342.52Z"/><path class="cls-2" d="M323.63,383.28c0,1.57-.77,2.85-1.73,2.85s-1.73-1.28-1.73-2.85.78-2.85,1.73-2.85S323.63,381.71,323.63,383.28Z"/><path class="cls-2" d="M534.87,190.94c0,1.57-.77,2.85-1.73,2.85s-1.73-1.28-1.73-2.85.78-2.85,1.73-2.85S534.87,189.36,534.87,190.94Z"/><path class="cls-2" d="M374,246.57c0,.78-.38,1.42-.86,1.42s-.87-.64-.87-1.42.39-1.43.87-1.43S374,245.78,374,246.57Z"/><ellipse class="cls-2" cx="476.29" cy="173.6" rx="0.86" ry="1.42"/><ellipse class="cls-2" cx="377.03" cy="122.98" rx="0.86" ry="1.42"/><path class="cls-2" d="M434.18,355.23c0,.79-.39,1.42-.86,1.42s-.87-.63-.87-1.42.39-1.42.87-1.42S434.18,354.44,434.18,355.23Z"/><ellipse class="cls-2" cx="473.03" cy="302.34" rx="0.48" ry="0.79"/><ellipse class="cls-2" cx="499.36" cy="276.1" rx="0.48" ry="0.79"/><path class="cls-2" d="M448.15,261.28c0,1.57-.77,2.85-1.73,2.85s-1.73-1.28-1.73-2.85.78-2.85,1.73-2.85S448.15,259.71,448.15,261.28Z"/><path class="cls-2" d="M483.17,284.44a.87.87,0,0,1,.38.93c-.05.43-.31.7-.57.62s-.42-.5-.37-.93S482.91,284.36,483.17,284.44Z"/><path class="cls-2" d="M473.47,412.23c.26.08.43.5.38.93s-.31.7-.57.62-.42-.51-.37-.93S473.21,412.14,473.47,412.23Z"/><ellipse class="cls-2" cx="453.81" cy="217.9" rx="0.48" ry="0.79"/><path class="cls-2" d="M485,236.72c0,.44-.22.79-.48.79s-.48-.35-.48-.79.21-.78.48-.78S485,236.29,485,236.72Z"/><ellipse class="cls-2" cx="420.08" cy="232.59" rx="0.48" ry="0.79"/><ellipse class="cls-2" cx="501.18" cy="366.39" rx="0.48" ry="0.79"/><ellipse class="cls-2" cx="427.6" cy="87.13" rx="0.48" ry="0.79"/><ellipse class="cls-2" cx="519.28" cy="400.75" rx="0.48" ry="0.79"/><ellipse class="cls-2" cx="374.16" cy="394.23" rx="0.48" ry="0.79"/><ellipse class="cls-2" cx="409.79" cy="389.3" rx="0.48" ry="0.79"/><ellipse class="cls-2" cx="353.01" cy="363.67" rx="0.86" ry="1.42"/><path class="cls-2" d="M345.62,300.68c0,.78-.38,1.42-.86,1.42s-.87-.64-.87-1.42.39-1.43.87-1.43S345.62,299.89,345.62,300.68Z"/><path class="cls-2" d="M59,357.7c0,1.57-.77,2.85-1.73,2.85s-1.73-1.28-1.73-2.85.78-2.85,1.73-2.85S59,356.13,59,357.7Z"/><path class="cls-2" d="M97.33,378.5c0,.78-.38,1.42-.86,1.42s-.86-.64-.86-1.42.38-1.43.86-1.43S97.33,377.71,97.33,378.5Z"/><ellipse class="cls-2" cx="73.32" cy="381.64" rx="0.48" ry="0.79"/><ellipse class="cls-2" cx="64.65" cy="335.15" rx="0.48" ry="0.79"/><ellipse class="cls-2" cx="79.28" cy="320.33" rx="0.48" ry="0.79"/><ellipse class="cls-2" cx="437.91" cy="422.71" rx="0.48" ry="0.79"/><path class="cls-8" d="M490.12,310.65c.26.9-17.44,19.07-18,19.5s-1.19.05-1.46-.84a2.41,2.41,0,0,1,.52-2.4C471.73,326.48,489.86,309.76,490.12,310.65Z"/><path class="cls-9" d="M168.51,241.48l-.22-.24h0c-6.7,7.64-17.23,12.58-29.08,12.62h-2.4l-.37,0h-.36l-.36,0-.36-.05-.67-.1h0l-.66-.13-.24-.06-.35-.09-.6-.17c-.28-.09-.57-.18-.85-.29h0l-.38-.15h0l-.31-.13c-.11,0-.21-.1-.32-.15l-.11,0a.21.21,0,0,1-.11,0c-.2-.09-.39-.19-.58-.29a3.59,3.59,0,0,1-.38-.21l-.39-.24-.4-.24c-.13-.09-.26-.17-.39-.27s-.26-.18-.38-.28a.18.18,0,0,1-.09-.07l-.35-.27-.36-.31c-.16-.14-.32-.28-.47-.43l-.46-.46c-2.27-3.25-3.06-5.2-3.25-7l-.05-1v-.18a1,1,0,0,1,0-.18c0-.12,0-.25,0-.37s0-.42.06-.62l0-.25a5,5,0,0,1,.1-.56c0-.11,0-.22.07-.34a.85.85,0,0,1,0-.17c0-.06,0-.12.05-.17l0-.23c0-.15.1-.3.14-.45l.09-.24c0-.09.07-.19.1-.29l.12-.29c.08-.19.17-.38.26-.57s.16-.34.25-.5l.1-.18.26-.43c.09-.15.18-.29.28-.43l.06-.1a.72.72,0,0,0,.11-.15l.12-.15c.09-.14.2-.26.3-.4s.27-.33.41-.49l.1-.1c.12-.14.24-.27.38-.41l.2-.18.17-.17.17-.17.1-.08.37-.31.35-.29a2.47,2.47,0,0,1,.27-.21.5.5,0,0,1,.12-.08c.26-.19.54-.38.82-.55l.43-.26a7.58,7.58,0,0,1,.74-.4l.3-.14L131,230l.31-.14.64-.25,0,0,.17-.05.45-.16.49-.15.25-.07L134,229l.7-.14.71-.11.72-.08a14.33,14.33,0,0,1,1.47-.07h1.92c.38,0,.77,0,1.14,0s1,0,1.49.08,1.1.09,1.65.15.93.11,1.4.18,1,.15,1.48.25,1,.17,1.44.29.72.15,1.08.24l.35.1,1.36.36a.49.49,0,0,0,.17.06c.42.12.85.26,1.27.41a2.67,2.67,0,0,1,.26.09c.37.12.73.25,1.09.39s.89.34,1.32.53l.06,0c.42.17.83.36,1.24.55s.85.4,1.27.61.83.43,1.24.67.88.49,1.31.75.67.43,1,.63a.08.08,0,0,0,.05.05c.38.25.77.51,1.14.78s.74.53,1.09.81.72.56,1.06.85h0l.92.8c.36.32.73.66,1.07,1s.64.63,1,.95l.45.49c.16.16.3.32.45.49Z"/><path class="cls-10" d="M170.73,244.38c-.37-.55-.76-1.08-1.17-1.61C170,243.3,170.37,243.83,170.73,244.38Z"/><path class="cls-11" d="M211.59,338.34a11.81,11.81,0,0,1-4.23,8.91,15.43,15.43,0,0,1-10.2,3.7H183.83A39.54,39.54,0,0,1,158,341.71l2.91-3.8,50.62-.43A8.12,8.12,0,0,1,211.59,338.34Z"/><path class="cls-12" d="M168.29,241.24c-6.7,7.64-17.23,12.58-29.08,12.62h-2.4l-.37,0h-.36l-.36,0-.36-.05-.67-.1h0l-.66-.13-.24-.06-.35-.09-.6-.17c-.28-.09-.57-.18-.85-.29h0l-.38-.15h0l-.31-.13c-.11,0-.21-.1-.32-.15l-.11,0a.21.21,0,0,1-.11,0c-.2-.09-.39-.19-.58-.29a3.59,3.59,0,0,1-.38-.21l-.39-.24-.4-.24c-.13-.09-.26-.17-.39-.27s-.26-.18-.38-.28a.18.18,0,0,1-.09-.07l-.35-.27-.36-.31c-.16-.14-.32-.28-.47-.43l-.46-.46c-2.27-3.25-3.06-5.2-3.25-7l-.05-1v-.18a1,1,0,0,1,0-.18c0-.12,0-.25,0-.37s0-.42.06-.62l0-.25a5,5,0,0,1,.1-.56c0-.11,0-.22.07-.34a.85.85,0,0,1,0-.17c0-.06,0-.12.05-.17l0-.23c0-.15.1-.3.14-.45l.09-.24c0-.09.07-.19.1-.29l.12-.29c.08-.19.17-.38.26-.57s.16-.34.25-.5l.1-.18.26-.43c.09-.15.18-.29.28-.43l.06-.1a.72.72,0,0,0,.11-.15l.12-.15c.09-.14.2-.26.3-.4s.27-.33.41-.49l.1-.1c.12-.14.24-.27.38-.41l.2-.18.17-.17.17-.17.1-.08.37-.31.35-.29a2.47,2.47,0,0,1,.27-.21.5.5,0,0,1,.12-.08c.26-.19.54-.38.82-.55l.43-.26a7.58,7.58,0,0,1,.74-.4l.3-.14L131,230l.31-.14.64-.25,0,0,.17-.05.45-.16.49-.15.25-.07L134,229l.7-.14.71-.11.72-.08a14.33,14.33,0,0,1,1.47-.07h1.92c.38,0,.77,0,1.14,0s1,0,1.49.08,1.1.09,1.65.15.93.11,1.4.18,1,.15,1.48.25,1,.17,1.44.29.72.15,1.08.24l.35.1,1.36.36a.49.49,0,0,0,.17.06c.42.12.85.26,1.27.41a2.67,2.67,0,0,1,.26.09c.37.12.73.25,1.09.39s.89.34,1.32.53l.06,0c.42.17.83.36,1.24.55s.85.4,1.27.61.83.43,1.24.67.88.49,1.31.75.67.43,1,.63a.08.08,0,0,0,.05.05c.38.25.77.51,1.14.78s.74.53,1.09.81.72.56,1.06.85h0l.92.8c.36.32.73.66,1.07,1s.64.63,1,.95l.45.49Z"/><path class="cls-13" d="M211.58,144.13c0,7-6.45,12.62-14.42,12.62H183.83c-4.4,0-8,3.11-8,7v57.95a29.59,29.59,0,0,1-7.57,19.57,0,0,0,0,0,0,0c-6.7,7.64-17.23,12.58-29.08,12.62h-2.4l-.37,0h-.27l-.45,0-.36-.05-.67-.1h0l-.66-.13-.24-.06-.35-.09-.6-.17c-.28-.09-.57-.18-.85-.29h0l-.38-.15h0l-.31-.13c-.11,0-.21-.1-.32-.15l-.11,0a.21.21,0,0,1-.11,0c-.2-.09-.39-.19-.58-.29a3.59,3.59,0,0,1-.38-.21l-.39-.24-.4-.24c-.13-.09-.26-.17-.39-.27s-.26-.18-.38-.28a.18.18,0,0,1-.09-.07l-.35-.27-.37-.3a11.84,11.84,0,0,1-4.22-8.92v-.18a1,1,0,0,1,0-.18c0-.12,0-.25,0-.37l0-.17c0-.15,0-.3,0-.45s0-.31.07-.46l.06-.35c0-.11,0-.22.07-.34a.85.85,0,0,1,0-.17c0-.14.07-.27.1-.4s.1-.3.14-.45a4.76,4.76,0,0,1,.19-.53l.12-.29c.08-.19.17-.38.26-.57s.16-.34.25-.5l.1-.18.26-.43c.09-.15.18-.29.28-.43l.06-.1a.72.72,0,0,0,.11-.15l.12-.15c.09-.14.2-.26.3-.4s.27-.33.41-.49l.1-.1c.12-.14.24-.27.38-.41l.2-.18.17-.17.17-.17.1-.08.37-.31.35-.29a2.47,2.47,0,0,1,.27-.21.5.5,0,0,1,.12-.08c.26-.19.54-.38.82-.55l.43-.26a7.58,7.58,0,0,1,.74-.4l.3-.14L131,230l.31-.14.64-.25,0,0,.17-.05.45-.16.49-.15.25-.07L134,229l.7-.14.71-.11.72-.08a14.52,14.52,0,0,1,1.48-.07h1.91c4.21-.19,7.55-3.23,7.55-7V163.71c0-17.78,16.48-32.2,36.81-32.2h13.33a15.5,15.5,0,0,1,10.2,3.7A11.84,11.84,0,0,1,211.58,144.13Z"/><path class="cls-14" d="M399.93,343.51A39.94,39.94,0,0,1,376.4,351H363.07a15.41,15.41,0,0,1-10.2-3.7,11.81,11.81,0,0,1-4.23-8.91,11.6,11.6,0,0,1,.09-1.44l.09-.58,29.77-.25,15.68-.13Z"/><path class="cls-15" d="M437.09,241.23h0l0,.68c0,.17,0,.34,0,.5a.5.5,0,0,1,0,.12v.05c0,.09,0,.18-.05.27a6.64,6.64,0,0,1-.23.93c0,.16-.1.32-.15.49s-.13.34-.2.51a1.67,1.67,0,0,1-.08.2,23.44,23.44,0,0,1-2.5,4.27l-.31.32a3.84,3.84,0,0,1-.3.28s0,0-.05,0l-.09.08-.14.13-.15.12-.16.14a.91.91,0,0,1-.16.13,1.24,1.24,0,0,1-.18.14,4.11,4.11,0,0,1-.35.27l-.07.05h0a2.22,2.22,0,0,1-.27.19,2.61,2.61,0,0,1-.27.19l-.29.18a5.64,5.64,0,0,1-.53.31,1.18,1.18,0,0,1-.19.11h0l-.42.22h0a3,3,0,0,1-.44.21l-.5.23-.52.2-.07,0a3.66,3.66,0,0,1-.43.15l-.44.14-.23.07-.44.12-.23.06-.25,0,0,0-.65.13h-.05l-.67.1-.13,0a1.66,1.66,0,0,1-.22,0l-.37,0h-.36l-.37,0H421c-11.85,0-22.38-5-29.08-12.62h0c.26-.3.53-.6.82-.9l.5-.51a.77.77,0,0,1,.12-.13l.57-.56.56-.54.56-.5a35.73,35.73,0,0,1,4.88-3.6c.18-.12.37-.22.56-.34a38.53,38.53,0,0,1,7.43-3.39c.34-.13.69-.23,1-.34.14,0,.28-.08.4-.13l1.07-.29c.56-.16,1.13-.29,1.71-.41s1-.21,1.44-.29a38,38,0,0,1,4.69-.59c.43,0,.88-.06,1.32-.07l1.14,0h1.92l.74,0h0l.59,0h.14l.39,0h.17l.16,0h0a3,3,0,0,1,.51.08.69.69,0,0,1,.2,0l.58.11.16,0,.17,0,.45.11.3.08.16.05.2.07h0l.5.17.63.24.08,0h0l.4.17.16.08.07,0s0,0,0,0h0l0,0s0,0,0,0l.22.11.16.08.14.07h0c.33.18.66.37,1,.57l.24.16.48.33.08.05c.13.09.25.19.37.29l.14.11a14.14,14.14,0,0,1,1.16,1l.34.36c.19.21.37.42.55.64l.42.56a1.6,1.6,0,0,1,.16.23c.1.14.2.29.29.44s.25.41.36.62a6,6,0,0,1,.37.77,2.44,2.44,0,0,1,.14.28h0l0,0a1,1,0,0,0,.05.16,5.85,5.85,0,0,1,.23.63c0,.1.07.22.11.33s0,0,0,0l.09.34a.35.35,0,0,1,0,.14,1.21,1.21,0,0,1,.05.18c0,.07,0,.15.05.22s0,.08,0,.12a2.74,2.74,0,0,1,.05.28,2.33,2.33,0,0,1,.05.28,1.46,1.46,0,0,1,0,.22s0,.06,0,.09c0,.24.05.48.05.74A4.87,4.87,0,0,1,437.09,241.23Z"/><path class="cls-16" d="M420.35,253.89c-.22,0-.43,0-.64.08A4.48,4.48,0,0,1,420.35,253.89Z"/><path class="cls-17" d="M437.09,241.23h0l0,.68c0,.17,0,.34,0,.5a.5.5,0,0,1,0,.12v.05c0,.09,0,.18-.05.27a8.4,8.4,0,0,1-.23.93c0,.16-.1.32-.15.49s-.13.34-.2.51a1.67,1.67,0,0,1-.08.2,17.19,17.19,0,0,1-2.5,4.27l-.31.32a3.84,3.84,0,0,1-.3.28s0,0-.05,0l-.09.08-.14.13-.15.12-.16.14a.91.91,0,0,1-.16.13,1.24,1.24,0,0,1-.18.14,4.11,4.11,0,0,1-.35.27l-.07.05c-.18.12-.35.26-.54.38l-.29.18a5.64,5.64,0,0,1-.53.31,1.18,1.18,0,0,1-.19.11h0l-.42.22h0a3,3,0,0,1-.44.21l-.5.23-.52.2-.07,0a3.66,3.66,0,0,1-.43.15l-.44.14-.23.07-.44.12-.23.06-.25,0,0,0-.65.13h-.05l-.67.1-.13,0a1.66,1.66,0,0,1-.22,0l-.37,0h-.36l-.37,0H421c-11.85,0-22.38-5-29.08-12.62h0c.26-.3.53-.6.82-.9l.5-.51a.77.77,0,0,1,.12-.13l.57-.56.56-.54.56-.5a35.73,35.73,0,0,1,4.88-3.6c.18-.12.37-.22.56-.34a38.53,38.53,0,0,1,7.43-3.39c.34-.13.69-.23,1-.34.14,0,.28-.08.4-.13l1.07-.29c.56-.16,1.13-.29,1.71-.41s1-.21,1.44-.29a38,38,0,0,1,4.69-.59c.43,0,.88-.06,1.32-.07l1.14,0h1.92l.74,0h0l.59,0h.14l.39,0h.17l.16,0h0a3,3,0,0,1,.51.08.69.69,0,0,1,.2,0l.58.11.16,0,.17,0,.45.11.3.08.16.05.2.07h0l.5.17.63.24.08,0h0l.4.17.16.08.07,0,0,0h0l0,0s0,0,0,0l.22.11.16.08.11,0,0,0h0c.33.18.66.37,1,.57l.24.16.48.33.08.05c.13.09.25.19.37.29l.14.11a14.14,14.14,0,0,1,1.16,1l.34.36c.19.21.37.42.55.64l.42.56a1.6,1.6,0,0,1,.16.23c.1.14.2.29.29.44s.25.41.36.62.18.32.26.48.18.38.25.57h0l0,0a1,1,0,0,0,.05.16,5.85,5.85,0,0,1,.23.63.5.5,0,0,1,0,.13,1.59,1.59,0,0,1,.07.2s0,0,0,0l.09.34a.35.35,0,0,1,0,.14l0,.13a.09.09,0,0,1,0,.05c0,.07,0,.14.05.22s0,.08,0,.12a2.74,2.74,0,0,1,.05.28,2.33,2.33,0,0,1,.05.28,1.46,1.46,0,0,1,0,.22s0,.06,0,.09c0,.24.05.48.05.74A4.87,4.87,0,0,1,437.09,241.23Z"/><path class="cls-18" d="M437.09,241.23h0l0,.68c0,.17,0,.34,0,.5a.5.5,0,0,1,0,.12v.05a11.83,11.83,0,0,1-3.21,6.67l-.31.32a3.84,3.84,0,0,1-.3.28s0,0-.05,0a2.29,2.29,0,0,1-.23.21l0,0a2,2,0,0,1-.27.22.91.91,0,0,1-.16.13,1.24,1.24,0,0,1-.18.14,4.11,4.11,0,0,1-.35.27.15.15,0,0,1-.07.05,2.22,2.22,0,0,1-.27.19,2.61,2.61,0,0,1-.27.19l-.29.18a5.64,5.64,0,0,1-.53.31,1.18,1.18,0,0,1-.19.11h0l-.42.22h0a3,3,0,0,1-.44.21l-.5.23-.52.2-.07,0a3.66,3.66,0,0,1-.43.15l-.44.14-.23.07-.44.12-.23.06-.25,0,0,0-.65.13h-.05c-.26.05-.53.09-.8.12a1.66,1.66,0,0,1-.22,0,3.57,3.57,0,0,1-.46,0h-.27l-.37,0H421c-11.85,0-22.38-5-29.08-12.62h0a29.6,29.6,0,0,1-7.58-19.57V163.71c0-3.85-3.56-7-8-7H363.07c-8,0-14.43-5.65-14.43-12.62a11.87,11.87,0,0,1,4.22-8.92,15.51,15.51,0,0,1,10.21-3.7H376.4c20.33,0,36.81,14.42,36.81,32.2v57.95c0,3.72,3.34,6.76,7.54,7h1.92l.74,0h0l.59,0h.14l.39,0,.17,0,.16,0h0a3,3,0,0,1,.51.08.69.69,0,0,1,.2,0l.58.11.16,0,.17,0,.45.11.46.13.2.07h0l.5.17.63.24.08,0h0l.4.17.16.08.07,0,0,0h0l0,0s0,0,0,0l.22.11.16.08.11,0,0,0h0c.33.18.66.37,1,.57l.24.16.48.33.08.05c.13.09.25.19.37.29l.14.11a14.14,14.14,0,0,1,1.16,1l.34.36c.19.21.37.42.55.64l.42.56a1.6,1.6,0,0,1,.16.23c.1.14.2.29.29.44s.25.41.36.62a6,6,0,0,1,.37.77,2.44,2.44,0,0,1,.14.28h0l0,0a1,1,0,0,0,.05.16,5.85,5.85,0,0,1,.23.63.5.5,0,0,1,0,.13,1.59,1.59,0,0,1,.07.2s0,0,0,0l.09.34a.35.35,0,0,1,0,.14l0,.13s0,0,0,.05h0c0,.07,0,.14.05.22s0,.08,0,.12a2.74,2.74,0,0,1,.05.28,2.33,2.33,0,0,1,.05.28,2.91,2.91,0,0,1,0,.31c0,.24.05.48.05.74A4.87,4.87,0,0,1,437.09,241.23Z"/><path class="cls-19" d="M173.11,248.58c.09.18.17.37.25.55l.13.27C173.37,249.13,173.24,248.85,173.11,248.58Z"/><path class="cls-20" d="M174.19,251.18l0-.09c0,.1.06.19.1.29h0A1.19,1.19,0,0,0,174.19,251.18Z"/><path class="cls-21" d="M174.12,251c-.15-.44-.32-.87-.51-1.3C173.79,250.12,174,250.55,174.12,251Z"/><path class="cls-22" d="M457.88,386.22q-23.42-28.29-46.81-56.59a28.62,28.62,0,0,0,2.14-10.87V260.81c0-.16,0-.32,0-.48l0-.31a2.16,2.16,0,0,1,.05-.27.85.85,0,0,1,0-.22,1.53,1.53,0,0,1,.07-.29,6.38,6.38,0,0,1,1-2.11,2.34,2.34,0,0,1,.24-.31,2.51,2.51,0,0,1,.26-.31,1.9,1.9,0,0,1,.24-.25l.33-.32.29-.24a8,8,0,0,1,1-.66,7.9,7.9,0,0,1,2.07-.87c.21-.06.42-.11.64-.15l.28-.05a4.48,4.48,0,0,1,.64-.08c.22,0,.45,0,.67,0-11.85,0-22.38-5-29.08-12.62h0c-.27.3-.53.62-.78.93s-.26.33-.38.48l-.24.31-.37.5a8,8,0,0,0-.48.66c-.11.16-.23.32-.34.49l-.57.88c-.17.28-.34.56-.5.85-.42.72-.8,1.45-1.15,2.2-.1.22-.21.44-.3.66s-.31.69-.45,1l-.37,1a.88.88,0,0,1-.05.15,28.46,28.46,0,0,0-1.6,9.43v57.95a7.14,7.14,0,0,1-5.76,6.68v-.15H182.48v.32a5.86,5.86,0,0,1-.63-.12c-3.44-.76-6-3.48-6-6.73V260.81a28.27,28.27,0,0,0-1.63-9.43h0c0-.1-.07-.19-.1-.29a.42.42,0,0,1,0-.1c-.16-.44-.33-.87-.51-1.3h0l-.12-.28-.13-.27c-.08-.18-.16-.37-.25-.55s-.22-.49-.34-.73h0l-.05-.08c0-.09-.09-.18-.14-.27l-.14-.26h0c-.11-.19-.21-.38-.31-.57l-.33-.57a.17.17,0,0,1,0-.05l-.25-.41-.25-.41a0,0,0,0,1,0,0l-.27-.41-.27-.41c-.37-.55-.76-1.08-1.17-1.61l-.41-.52-.42-.52c-.08-.08-.15-.17-.22-.25l-.22-.24h0c-6.7,7.64-17.23,12.58-29.08,12.62a8.56,8.56,0,0,1,2.22.31c.25.06.5.14.73.22a8.84,8.84,0,0,1,1.35.65c.21.12.42.25.62.39a6.7,6.7,0,0,1,2.89,5.38v57.95a28.31,28.31,0,0,0,.85,6.91L96.66,388.13a13.43,13.43,0,0,0,.22,12.74,11.53,11.53,0,0,0,13.53,5.07q170.9-.22,341.81-.42a10.84,10.84,0,0,0,7-4.73C461.75,396.67,461.29,390.72,457.88,386.22ZM215.11,393l1.29-21.18H341L344.35,393Zm-73.4-29.9L158,341.71l2.91-3.8,50.62-.43c0-.19,0-.38-.05-.58h68.32l69-.58,29.77-.25,15.68-.13,5.66,7.57,14.34,19.24Z"/><path class="cls-23" d="M174.27,251.38h0c0-.1-.07-.19-.1-.29l0,.09A1.19,1.19,0,0,1,174.27,251.38Z"/><polygon class="cls-24" points="344.35 393.03 215.11 393.03 216.4 371.85 340.97 371.85 344.35 393.03"/><path class="cls-25" d="M378.59,243,323,307.73l-15.62-8.15L363,234.87Z"/><path class="cls-26" d="M260.64,172.39,251,208.72l30.28-17.25,11.46,10.6-51.1,26.53L235,222.47l14.24-60.6Z"/><path class="cls-27" d="M288.1,275.68l-5.1,1.43-11.38,3.21q.69,5.82,1.3,15.66.4,6.43.64,12.09c.1,2,.16,3.9.22,5.75L287.23,310q1.68-11,1.82-33.28Zm-7.23-36.35c-.71-3.3-2.12-5.64-4.24-7a2.07,2.07,0,0,0-.25-.15c-2.07-1.24-4.66-1.43-7.75-.55q-5,1.41-7,4.89a11.65,11.65,0,0,0-.9,8.48c.72,3.35,2.16,5.7,4.3,7.06a7.8,7.8,0,0,0,2.44,1,11.73,11.73,0,0,0,5.71-.34,10.65,10.65,0,0,0,6.77-4.89A11.69,11.69,0,0,0,280.87,239.33Z"/><polygon class="cls-28" points="311.1 301.53 376.98 242.18 378.59 243.02 322.98 307.73 311.1 301.53"/><polygon class="cls-29" points="260.64 172.39 254.08 166.34 241.65 228.6 251.01 208.72 260.64 172.39"/><polygon class="cls-30" points="286.83 196.59 251.15 223.67 292.75 202.07 286.83 196.59"/><path class="cls-31" d="M289.05,276.76q-.15,22.29-1.82,33.28l-13.45,3.78c-.06-1.85-.12-3.76-.22-5.75,7.61-8.31,9.18-22.89,9.44-31l5.1-1.43Z"/><path class="cls-32" d="M276.38,232.18a17.15,17.15,0,0,0-7.73,9.16,24.85,24.85,0,0,0-1.18,11.72,7.8,7.8,0,0,1-2.44-1c-2.14-1.36-3.58-3.71-4.3-7.06a11.65,11.65,0,0,1,.9-8.48q2-3.48,7-4.89C271.72,230.75,274.31,230.94,276.38,232.18Z"/><path class="cls-33" d="M340.09,220.65a9.19,9.19,0,0,1,.28-8l6.24-12.51c2.28-4.57,3.27-8.45,3-11.64a16.83,16.83,0,0,0-4.4-9.41q-4-4.63-12.43-10.14l-6.85,13.75a25.34,25.34,0,0,1,4.87,4,7,7,0,0,1,1.37,3,5.47,5.47,0,0,1-.65,3.54l-6.66,13.35c-1.84,3.71-2.45,7.1-1.82,10.14s2.63,6,6,9l-.29.59q-6-2.61-9.88-1.27t-6.52,6.66l-6.78,13.6a4.2,4.2,0,0,1-3.67,2.67q-2.4.11-7.15-2.72L287.91,259q8.44,5.5,14,7t9.36-.57q3.84-2.07,7.27-9l6.1-12.21a7,7,0,0,1,6-4.29q4-.33,8.78,2.78l7.39-14.84h0Q341.8,224.67,340.09,220.65Z"/><path class="cls-34" d="M339.37,242.73q-4.78-3.12-8.78-2.78a7,7,0,0,0-6,4.29l-6.1,12.21q-3.43,6.9-7.27,9t-9.36.57q-5.53-1.51-14-7l6.83-13.7s-.52,13.25,10.39,14.36S321.87,219.8,339.37,242.73Z"/><path class="cls-35" d="M346.75,227.89c-.58,0-19.19-.12-14.58-15,6.22-20.14,6-29.2-6.24-30.17l6.85-13.75q8.46,5.5,12.43,10.14a16.83,16.83,0,0,1,4.4,9.41c.27,3.19-.72,7.07-3,11.64l-6.24,12.51a9.19,9.19,0,0,0-.28,8Q341.8,224.67,346.75,227.89Z"/><path class="cls-36" d="M196,261.89h0l6.76,15.21q4.91-2.85,8.89-2.3a7.19,7.19,0,0,1,5.78,4.61L223,291.94q3.13,7.08,6.89,9.37t9.33,1.07q5.58-1.2,14.26-6.24l-6.25-14.06c-3.25,1.71-5.66,2.49-7.26,2.34a4.3,4.3,0,0,1-3.55-2.87l-6.21-14q-2.43-5.46-6.23-7t-9.93.73l-.27-.61c3.49-2.78,5.6-5.67,6.36-8.68s.3-6.42-1.4-10.22L212.6,228.1a5.52,5.52,0,0,1-.5-3.56,7.05,7.05,0,0,1,1.49-2.9,24.6,24.6,0,0,1,5-3.78l-6.27-14.11q-8.68,5-12.83,9.45a16.55,16.55,0,0,0-4.79,9.17q-.61,4.74,2.51,11.78L203,247a9.17,9.17,0,0,1-.06,8C201.65,257.63,199.33,259.91,196,261.89Z"/><path class="cls-37" d="M202.7,277.1q4.91-2.85,8.89-2.3a7.19,7.19,0,0,1,5.78,4.61L223,291.94q3.13,7.08,6.89,9.37t9.33,1.07q5.58-1.2,14.26-6.24l-6.25-14.06s0,13.27-11,13.78S221.14,255.16,202.7,277.1Z"/><path class="cls-38" d="M196,261.89c.58,0,19.17.92,15.19-14.24-5.38-20.45-4.75-29.49,7.48-29.79l-6.27-14.11q-8.68,5-12.83,9.45a16.55,16.55,0,0,0-4.79,9.17q-.61,4.74,2.51,11.78L203,247a9.17,9.17,0,0,1-.06,8C201.65,257.63,199.33,259.91,196,261.89Z"/><polygon class="cls-39" points="378.59 336.07 378.59 336.9 279.81 336.9 348.82 336.32 378.59 336.07"/><polygon class="cls-24" points="414.27 362.75 141.71 363.13 158.02 341.71 160.93 337.91 211.55 337.49 279.81 336.9 348.82 336.32 378.59 336.07 394.27 335.94 399.93 343.51 414.27 362.75"/></g></g></g></svg>