<svg width="527" height="667" viewBox="0 0 527 667" fill="none" xmlns="http://www.w3.org/2000/svg">
<g clip-path="url(#clip0)">
<path opacity="0.17" d="M161 341.5C170.19 341.96 194.23 344.44 215 362.5C230.9 376.33 237 392.41 241 403.5C255.51 443.44 246.22 480.86 240.75 497.77C232.25 507.28 213.44 531.06 209 566.5C207.68 576.94 205 600.81 217 627.5C223.853 642.643 234.121 655.992 247 666.5C235.78 662.15 170.9 635.84 151 572.5C141.21 541.34 147.49 500.63 148 496.75C149 489.2 150.09 481 154 470.75C157.91 460.5 160.62 458.81 166 445.75C166.59 444.32 166.6 444.23 174 421.75C178.63 407.69 180.46 402.14 183 394.75C185.09 388.65 186.85 383.69 188 380.5C187.095 374.189 185.062 368.092 182 362.5C177.081 353.689 169.811 346.418 161 341.5Z" fill="#474646"/>
<path d="M247 666.5C236.28 662.9 187.62 645.26 161 593.5C126.85 527.12 158.58 462.19 162 455.5C166.36 445.27 172.32 430.92 179 413.5C186.84 393.04 188.54 387.5 188 380.5C187.52 374.5 184.72 358.22 161 341.5C164.86 338.94 204.05 313.76 242 330.5C264.26 340.32 275.38 359.7 281 369.5C291.266 387.693 296.289 408.375 295.51 429.25C311.96 412.281 324.278 391.75 331.51 369.25C324.841 346.151 316.654 323.519 307 301.5C300.53 286.75 295.9 276.2 288 262.5C269.69 230.8 256.7 221.83 231 183.5C223.14 171.78 217.28 162.08 214 156.5C206.217 138.908 202.787 119.699 204 100.5C204.873 87.422 207.914 74.5801 213 62.5C143.877 106.283 88.2985 168.434 52.48 242C37.5711 278.822 31.6557 318.667 35.2243 358.232C38.793 397.797 51.7429 435.94 73 469.5C39.004 432.463 15.8285 386.804 5.99998 337.5C-3.03505 380.105 -1.85556 424.243 9.44194 466.305C20.7394 508.366 41.834 547.156 71 579.5C115.887 630.59 179.151 661.862 247 666.5Z" fill="url(#paint0_linear)"/>
<path d="M297.48 0C291.61 3.53 255.71 25.93 246.48 72C236.38 122.42 266.59 159.4 270.48 164C291.236 186.484 307.985 212.358 320 240.5C330.32 264.82 343.16 295.05 339 334.5C336.06 362.3 326 382.7 321 392.5C308 418.24 296.37 425.97 277 449.5C249.33 483.11 219.72 519.08 220 562.5C220 567.6 220.93 610.2 251 635.5C298.57 675.5 383.28 642.01 426 612.5C476.56 577.57 497.77 527.88 507 505.5C518.878 476.551 525.645 445.762 527 414.5C514.101 453.243 488.343 486.41 454 508.5C462.43 497.72 526.08 413.59 498 314.5C486.22 272.97 462.76 244.42 447 228.5C436.41 217.44 414 193.99 385 163.5C332.73 108.5 317.3 91.8 307 63.5C299.707 43.159 296.473 21.5854 297.48 0V0Z" fill="url(#paint1_linear)"/>
</g>
<defs>
<linearGradient id="paint0_linear" x1="-1.85407e-05" y1="364.5" x2="331.49" y2="364.5" gradientUnits="userSpaceOnUse">
<stop stop-color="#E84F37"/>
<stop offset="1" stop-color="#F8A81D"/>
</linearGradient>
<linearGradient id="paint1_linear" x1="67751.2" y1="213778" x2="162004" y2="213778" gradientUnits="userSpaceOnUse">
<stop stop-color="#E84F37"/>
<stop offset="1" stop-color="#F8A81D"/>
</linearGradient>
<clipPath id="clip0">
<rect width="526.98" height="666.5" fill="white"/>
</clipPath>
</defs>
</svg>
