<svg width="454" height="618" viewBox="0 0 454 618" fill="none" xmlns="http://www.w3.org/2000/svg">
<path d="M166.225 100.462H273.549C292.776 102.284 311.436 107.777 328.45 116.621C345.463 125.465 360.49 137.485 372.659 151.984C411.044 197.24 410.069 246.765 409.901 258.128C409.733 269.491 414 320.607 381.025 366.886C368.52 384.435 352.219 399.151 333.25 410.015C314.211 420.989 292.95 427.87 270.912 430.192L115.359 428.78L162.126 344.16L259.103 346.352C263.537 346.027 299.956 342.894 319.577 310.478C327.653 297 331.532 281.556 330.747 266.001C331.067 259.735 331.89 237.042 316.956 215.891C310.881 207.369 302.93 200.252 293.674 195.049C284.378 189.819 274.013 186.617 263.302 185.666L210.959 184.254L166.225 100.462Z" fill="url(#paint0_linear)"/>
<path d="M21.6582 374.206C14.7708 354.468 4.59105 316.11 13.4606 271C16.0811 257.527 20.5158 234.039 36.4239 210.08C40.3715 204.122 40.8586 204.447 55.1372 184.708C69.4158 164.97 76.7903 154.792 82.3674 144.939C89.6387 132.099 95.629 118.619 100.258 104.682C104.524 91.2092 109.127 77.7525 108.472 63.0296C106.658 26.0033 78.2685 1.16763 79.5788 0.0313555C80.889 -1.10492 115.527 28.6979 156.549 80.2198C181.645 111.695 194.446 127.83 203.466 149.127C211.194 167.453 227.757 206.444 217.258 253.745C213.646 269.718 203.819 285.853 184.115 318.269C154.735 366.82 139.801 379.027 127.001 415.047C121.172 432.655 118.402 451.074 118.803 469.556C118.746 474.491 119.407 479.409 120.768 484.165C122.028 488.305 123.508 492.38 125.203 496.372C126.194 498.255 127.001 499.618 126.681 499.975C126.362 500.333 120.6 496.729 116.182 492.931L103.869 480.87C96.9819 473.825 91.4049 468.03 89.9266 466.261C85.3239 461.099 71.5492 444.801 62.3605 426.475C56.6155 414.885 39.3804 379.66 49.8793 340.443C56.2795 316.63 70.5581 299.862 77.4455 291.745C87.6252 279.847 90.5817 280.383 106.339 263.095C122.095 245.807 130.612 236.149 135.215 221.426C141.447 201.704 137.835 182.744 136.693 182.744C135.551 182.744 136.088 192.857 131.049 205.697C130.226 208.051 127.437 214.933 117.257 228.715C112.336 235.613 104.289 245.791 87.0204 263.176C76.3535 273.825 75.3624 273.971 67.652 281.811C45.495 304.196 32.3755 317.36 26.4625 336.303C23.8419 344.42 20.7174 359.954 26.4625 382.193L21.6582 374.206Z" fill="url(#paint1_linear)"/>
<path d="M20.032 547.328C24.7253 547.328 28.8427 548.245 32.384 550.08C35.968 551.915 38.72 554.539 40.64 557.952C42.6027 561.323 43.584 565.248 43.584 569.728C43.584 574.208 42.6027 578.133 40.64 581.504C38.72 584.832 35.968 587.413 32.384 589.248C28.8427 591.083 24.7253 592 20.032 592H4.416V547.328H20.032ZM19.712 584.384C24.4053 584.384 28.032 583.104 30.592 580.544C33.152 577.984 34.432 574.379 34.432 569.728C34.432 565.077 33.152 561.451 30.592 558.848C28.032 556.203 24.4053 554.88 19.712 554.88H13.376V584.384H19.712ZM54.835 552.32C53.2137 552.32 51.8697 551.829 50.803 550.848C49.779 549.824 49.267 548.565 49.267 547.072C49.267 545.579 49.779 544.341 50.803 543.36C51.8697 542.336 53.2137 541.824 54.835 541.824C56.4137 541.824 57.715 542.336 58.739 543.36C59.763 544.341 60.275 545.579 60.275 547.072C60.275 548.565 59.763 549.824 58.739 550.848C57.715 551.829 56.4137 552.32 54.835 552.32ZM59.251 597.824C59.251 601.749 58.2697 604.565 56.307 606.272C54.387 608.021 51.6137 608.896 47.987 608.896H44.019V601.28H46.579C47.9443 601.28 48.9043 601.003 49.459 600.448C50.0137 599.936 50.291 599.083 50.291 597.888V556.544H59.251V597.824ZM101.064 573.504C101.064 574.784 100.978 575.936 100.808 576.96H74.8875C75.1008 579.52 75.9968 581.525 77.5755 582.976C79.1542 584.427 81.0955 585.152 83.3995 585.152C86.7275 585.152 89.0955 583.723 90.5035 580.864H100.168C99.1435 584.277 97.1808 587.093 94.2795 589.312C91.3782 591.488 87.8155 592.576 83.5915 592.576C80.1782 592.576 77.1062 591.829 74.3755 590.336C71.6875 588.8 69.5755 586.645 68.0395 583.872C66.5462 581.099 65.7995 577.899 65.7995 574.272C65.7995 570.603 66.5462 567.381 68.0395 564.608C69.5328 561.835 71.6235 559.701 74.3115 558.208C76.9995 556.715 80.0928 555.968 83.5915 555.968C86.9622 555.968 89.9702 556.693 92.6155 558.144C95.3035 559.595 97.3728 561.664 98.8235 564.352C100.317 566.997 101.064 570.048 101.064 573.504ZM91.7835 570.944C91.7408 568.64 90.9088 566.805 89.2875 565.44C87.6662 564.032 85.6822 563.328 83.3355 563.328C81.1168 563.328 79.2395 564.011 77.7035 565.376C76.2102 566.699 75.2928 568.555 74.9515 570.944H91.7835ZM116.564 544.64V592H107.604V544.64H116.564ZM141.672 563.904H135.464V592H126.376V563.904H122.344V556.544H126.376V554.752C126.376 550.4 127.613 547.2 130.088 545.152C132.563 543.104 136.296 542.144 141.288 542.272V549.824C139.112 549.781 137.597 550.144 136.744 550.912C135.891 551.68 135.464 553.067 135.464 555.072V556.544H141.672V563.904ZM145.174 574.144C145.174 570.56 145.878 567.381 147.286 564.608C148.737 561.835 150.679 559.701 153.111 558.208C155.585 556.715 158.337 555.968 161.367 555.968C164.012 555.968 166.316 556.501 168.279 557.568C170.284 558.635 171.884 559.979 173.079 561.6V556.544H182.103V592H173.079V586.816C171.927 588.48 170.327 589.867 168.279 590.976C166.273 592.043 163.948 592.576 161.303 592.576C158.316 592.576 155.585 591.808 153.111 590.272C150.679 588.736 148.737 586.581 147.286 583.808C145.878 580.992 145.174 577.771 145.174 574.144ZM173.079 574.272C173.079 572.096 172.652 570.24 171.799 568.704C170.945 567.125 169.793 565.931 168.343 565.12C166.892 564.267 165.335 563.84 163.671 563.84C162.007 563.84 160.471 564.245 159.062 565.056C157.655 565.867 156.503 567.061 155.607 568.64C154.753 570.176 154.327 572.011 154.327 574.144C154.327 576.277 154.753 578.155 155.607 579.776C156.503 581.355 157.655 582.571 159.062 583.424C160.513 584.277 162.049 584.704 163.671 584.704C165.335 584.704 166.892 584.299 168.343 583.488C169.793 582.635 170.945 581.44 171.799 579.904C172.652 578.325 173.079 576.448 173.079 574.272ZM221.72 547.328C226.413 547.328 230.53 548.245 234.072 550.08C237.656 551.915 240.408 554.539 242.328 557.952C244.29 561.323 245.272 565.248 245.272 569.728C245.272 574.208 244.29 578.133 242.328 581.504C240.408 584.832 237.656 587.413 234.072 589.248C230.53 591.083 226.413 592 221.72 592H206.104V547.328H221.72ZM221.4 584.384C226.093 584.384 229.72 583.104 232.28 580.544C234.84 577.984 236.12 574.379 236.12 569.728C236.12 565.077 234.84 561.451 232.28 558.848C229.72 556.203 226.093 554.88 221.4 554.88H215.064V584.384H221.4ZM267.723 592.576C264.309 592.576 261.237 591.829 258.507 590.336C255.776 588.8 253.621 586.645 252.043 583.872C250.507 581.099 249.739 577.899 249.739 574.272C249.739 570.645 250.528 567.445 252.107 564.672C253.728 561.899 255.925 559.765 258.699 558.272C261.472 556.736 264.565 555.968 267.979 555.968C271.392 555.968 274.485 556.736 277.259 558.272C280.032 559.765 282.208 561.899 283.787 564.672C285.408 567.445 286.219 570.645 286.219 574.272C286.219 577.899 285.387 581.099 283.722 583.872C282.101 586.645 279.883 588.8 277.067 590.336C274.293 591.829 271.179 592.576 267.723 592.576ZM267.723 584.768C269.344 584.768 270.859 584.384 272.267 583.616C273.717 582.805 274.869 581.611 275.723 580.032C276.576 578.453 277.003 576.533 277.003 574.272C277.003 570.901 276.107 568.32 274.315 566.528C272.565 564.693 270.411 563.776 267.851 563.776C265.291 563.776 263.136 564.693 261.387 566.528C259.68 568.32 258.827 570.901 258.827 574.272C258.827 577.643 259.659 580.245 261.323 582.08C263.029 583.872 265.163 584.768 267.723 584.768ZM290.487 574.272C290.487 570.603 291.234 567.403 292.727 564.672C294.22 561.899 296.29 559.765 298.935 558.272C301.58 556.736 304.61 555.968 308.023 555.968C312.418 555.968 316.044 557.077 318.903 559.296C321.804 561.472 323.746 564.544 324.727 568.512H315.063C314.551 566.976 313.676 565.781 312.439 564.928C311.244 564.032 309.751 563.584 307.959 563.584C305.399 563.584 303.372 564.523 301.879 566.4C300.386 568.235 299.639 570.859 299.639 574.272C299.639 577.643 300.386 580.267 301.879 582.144C303.372 583.979 305.399 584.896 307.959 584.896C311.586 584.896 313.954 583.275 315.063 580.032H324.727C323.746 583.872 321.804 586.923 318.903 589.184C316.002 591.445 312.375 592.576 308.023 592.576C304.61 592.576 301.58 591.829 298.935 590.336C296.29 588.8 294.22 586.667 292.727 583.936C291.234 581.163 290.487 577.941 290.487 574.272ZM341.723 563.904V581.056C341.723 582.251 342 583.125 342.555 583.68C343.152 584.192 344.134 584.448 345.499 584.448H349.659V592H344.027C336.475 592 332.699 588.331 332.699 580.992V563.904H328.475V556.544H332.699V547.776H341.723V556.544H349.659V563.904H341.723ZM371.848 592.576C368.434 592.576 365.362 591.829 362.632 590.336C359.901 588.8 357.746 586.645 356.168 583.872C354.632 581.099 353.864 577.899 353.864 574.272C353.864 570.645 354.653 567.445 356.232 564.672C357.853 561.899 360.05 559.765 362.824 558.272C365.597 556.736 368.69 555.968 372.104 555.968C375.517 555.968 378.61 556.736 381.384 558.272C384.157 559.765 386.333 561.899 387.912 564.672C389.533 567.445 390.344 570.645 390.344 574.272C390.344 577.899 389.512 581.099 387.847 583.872C386.226 586.645 384.008 588.8 381.192 590.336C378.418 591.829 375.304 592.576 371.848 592.576ZM371.848 584.768C373.469 584.768 374.984 584.384 376.392 583.616C377.842 582.805 378.994 581.611 379.848 580.032C380.701 578.453 381.128 576.533 381.128 574.272C381.128 570.901 380.232 568.32 378.44 566.528C376.69 564.693 374.536 563.776 371.976 563.776C369.416 563.776 367.261 564.693 365.512 566.528C363.805 568.32 362.952 570.901 362.952 574.272C362.952 577.643 363.784 580.245 365.448 582.08C367.154 583.872 369.288 584.768 371.848 584.768ZM405.876 562.048C407.028 560.171 408.521 558.699 410.356 557.632C412.233 556.565 414.367 556.032 416.756 556.032V565.44H414.388C411.572 565.44 409.439 566.101 407.988 567.424C406.58 568.747 405.876 571.051 405.876 574.336V592H396.916V556.544H405.876V562.048ZM436.359 592.576C433.458 592.576 430.855 592.064 428.551 591.04C426.247 589.973 424.412 588.544 423.047 586.752C421.724 584.96 420.999 582.976 420.871 580.8H429.895C430.066 582.165 430.727 583.296 431.879 584.192C433.074 585.088 434.546 585.536 436.295 585.536C438.002 585.536 439.324 585.195 440.263 584.512C441.244 583.829 441.735 582.955 441.735 581.888C441.735 580.736 441.138 579.883 439.943 579.328C438.791 578.731 436.935 578.091 434.375 577.408C431.73 576.768 429.554 576.107 427.847 575.424C426.183 574.741 424.732 573.696 423.495 572.288C422.3 570.88 421.703 568.981 421.703 566.592C421.703 564.629 422.258 562.837 423.367 561.216C424.519 559.595 426.14 558.315 428.231 557.376C430.364 556.437 432.86 555.968 435.719 555.968C439.943 555.968 443.314 557.035 445.831 559.168C448.348 561.259 449.735 564.096 449.991 567.68H441.415C441.287 566.272 440.69 565.163 439.623 564.352C438.599 563.499 437.212 563.072 435.463 563.072C433.842 563.072 432.583 563.371 431.687 563.968C430.834 564.565 430.407 565.397 430.407 566.464C430.407 567.659 431.004 568.576 432.199 569.216C433.394 569.813 435.25 570.432 437.767 571.072C440.327 571.712 442.439 572.373 444.103 573.056C445.767 573.739 447.196 574.805 448.391 576.256C449.628 577.664 450.268 579.541 450.311 581.888C450.311 583.936 449.735 585.771 448.583 587.392C447.474 589.013 445.852 590.293 443.719 591.232C441.628 592.128 439.175 592.576 436.359 592.576Z" fill="#12A49B"/>
<defs>
<linearGradient id="paint0_linear" x1="115.359" y1="265.287" x2="410.54" y2="265.287" gradientUnits="userSpaceOnUse">
<stop stop-color="#11A49B"/>
<stop offset="1" stop-color="#90FC8E"/>
</linearGradient>
<linearGradient id="paint1_linear" x1="113733" y1="203500" x2="159961" y2="203500" gradientUnits="userSpaceOnUse">
<stop stop-color="#11A49B"/>
<stop offset="1" stop-color="#90FC8E"/>
</linearGradient>
</defs>
</svg>
