<svg width="836" height="1276" viewBox="0 0 836 1276" fill="none" xmlns="http://www.w3.org/2000/svg">
<path d="M353.516 1185.17L398.696 1193.32L399.926 1217.27L347.596 1216.77L353.516 1185.17Z" fill="white"/>
<path d="M399.927 1219.13L347.587 1218.64C347.314 1218.64 347.045 1218.57 346.799 1218.46C346.553 1218.34 346.335 1218.17 346.162 1217.96C345.988 1217.75 345.863 1217.5 345.795 1217.24C345.727 1216.97 345.717 1216.7 345.767 1216.43L351.687 1184.83C351.779 1184.35 352.057 1183.92 352.461 1183.64C352.865 1183.36 353.363 1183.25 353.847 1183.34L399.027 1191.49C399.44 1191.57 399.816 1191.78 400.093 1192.09C400.371 1192.41 400.534 1192.81 400.557 1193.23L401.787 1217.18C401.797 1217.43 401.757 1217.68 401.669 1217.92C401.58 1218.15 401.445 1218.37 401.271 1218.55C401.098 1218.73 400.889 1218.88 400.658 1218.98C400.427 1219.08 400.178 1219.13 399.927 1219.13ZM349.837 1214.93L397.967 1215.38L396.907 1194.89L355.007 1187.33L349.837 1214.93Z" fill="#262424"/>
<path d="M514.236 1263.16C511.057 1267.22 506.896 1270.4 502.146 1272.4C496.187 1275.09 489.601 1276.09 483.11 1275.29C476.62 1274.49 470.477 1271.91 465.356 1267.84C447.106 1253.84 392.246 1222.22 392.246 1222.22C399.176 1195.22 386.616 1186.67 386.616 1186.67C395.086 1174.94 408.066 1161.67 417.246 1152.84C423.586 1146.74 428.086 1142.71 428.086 1142.71C467.316 1176.54 514.236 1263.16 514.236 1263.16Z" fill="#8C68E4"/>
<path d="M514.236 1263.16C511.057 1267.22 506.896 1270.4 502.146 1272.4C469.556 1207.76 428.856 1164.51 417.246 1152.84C423.586 1146.74 428.086 1142.71 428.086 1142.71C467.316 1176.54 514.236 1263.16 514.236 1263.16Z" fill="white"/>
<path d="M502.156 1274.27C501.813 1274.27 501.476 1274.18 501.181 1274C500.886 1273.83 500.646 1273.57 500.486 1273.27C468.156 1209.14 427.586 1165.91 415.926 1154.18C415.749 1154.01 415.608 1153.8 415.512 1153.57C415.416 1153.34 415.367 1153.1 415.367 1152.85C415.367 1152.6 415.416 1152.36 415.512 1152.13C415.608 1151.9 415.749 1151.69 415.926 1151.52C422.216 1145.46 426.776 1141.38 426.816 1141.34C427.157 1141.04 427.594 1140.88 428.046 1140.88C428.499 1140.88 428.936 1141.04 429.276 1141.34C468.276 1175.01 515.376 1261.45 515.846 1262.34C516.017 1262.65 516.094 1263.01 516.069 1263.36C516.044 1263.71 515.918 1264.05 515.706 1264.34C512.341 1268.66 507.924 1272.05 502.876 1274.17C502.645 1274.25 502.401 1274.28 502.156 1274.27V1274.27ZM419.906 1152.88C433.056 1166.3 471.696 1208.46 502.996 1269.94C506.434 1268.23 509.495 1265.85 511.996 1262.94C506.506 1252.99 463.996 1177.04 428.096 1145.17C426.546 1146.63 423.596 1149.35 419.906 1152.88Z" fill="#262424"/>
<path d="M316.486 1166.16C316.486 1166.16 325.126 1158.26 340.186 1162.21C355.246 1166.16 370.546 1180.48 363.186 1211.09C355.826 1241.7 320.476 1252.32 301.186 1225.16C281.896 1198 316.486 1166.16 316.486 1166.16Z" fill="#FFFF7C"/>
<path d="M410.776 1020.25L312.546 1163.45C329.316 1168.37 350.546 1181.22 347.546 1204.45C344.546 1227.68 325.326 1231.59 325.326 1231.59C325.326 1231.59 286.576 1231.59 254.936 1227.15C252.686 1226.85 250.496 1226.5 248.296 1226.15C224.656 1222.24 206.996 1212.58 208.536 1178.57C209.066 1165.65 212.386 1149.3 219.206 1128.39C243.856 1052.39 326.326 868.23 326.326 868.23C354.946 805.01 442.866 795.65 443.816 877.59C444.766 959.53 410.776 1020.25 410.776 1020.25Z" fill="#8C68E4"/>
<path d="M325.206 924.86C321.156 924.757 317.187 923.695 313.626 921.76C313.166 921.527 312.818 921.12 312.657 920.63C312.497 920.139 312.538 919.605 312.771 919.145C313.005 918.685 313.411 918.336 313.902 918.176C314.392 918.015 314.926 918.057 315.386 918.29C321.596 921.45 327.196 921.78 332.016 919.29C345.866 912.12 350.016 884.48 350.096 884.2C350.133 883.947 350.219 883.704 350.35 883.485C350.481 883.265 350.653 883.074 350.858 882.921C351.063 882.768 351.296 882.657 351.543 882.594C351.791 882.532 352.049 882.518 352.301 882.555C352.554 882.592 352.797 882.678 353.017 882.809C353.236 882.939 353.428 883.112 353.581 883.317C353.733 883.522 353.844 883.754 353.907 884.002C353.97 884.25 353.983 884.507 353.946 884.76C353.766 885.98 349.426 914.65 333.806 922.76C331.152 924.146 328.201 924.866 325.206 924.86V924.86Z" fill="#262424"/>
<path d="M262.136 1206.29C262.157 1213.85 259.631 1221.2 254.966 1227.15C252.716 1226.85 250.526 1226.5 248.326 1226.15C224.686 1222.24 207.026 1212.58 208.566 1178.57C213.653 1174.99 219.624 1172.87 225.829 1172.45C232.035 1172.03 238.237 1173.32 243.762 1176.18C249.286 1179.03 253.92 1183.35 257.16 1188.66C260.4 1193.97 262.121 1200.07 262.136 1206.29Z" fill="white"/>
<path d="M336.237 1189.09C336.12 1189.1 336.003 1189.1 335.887 1189.09L287.497 1180.2C287.176 1180.15 286.874 1180.01 286.618 1179.81C286.362 1179.61 286.16 1179.35 286.032 1179.05C285.903 1178.75 285.852 1178.43 285.883 1178.1C285.913 1177.78 286.025 1177.47 286.207 1177.2L396.777 1003.42C397.054 1002.98 397.492 1002.68 397.996 1002.57C398.499 1002.45 399.027 1002.55 399.462 1002.82C399.897 1003.1 400.204 1003.54 400.315 1004.04C400.427 1004.55 400.334 1005.07 400.057 1005.51L291.057 1176.87L336.607 1185.24C337.087 1185.32 337.518 1185.59 337.813 1185.98C338.108 1186.36 338.246 1186.85 338.199 1187.34C338.153 1187.82 337.925 1188.27 337.561 1188.6C337.197 1188.92 336.724 1189.1 336.237 1189.09V1189.09Z" fill="#262424"/>
<path d="M270.076 1187.86C269.632 1187.85 269.203 1187.7 268.861 1187.41C268.518 1187.13 268.282 1186.74 268.193 1186.3C268.103 1185.87 268.164 1185.42 268.367 1185.02C268.569 1184.63 268.901 1184.31 269.306 1184.13L286.896 1176.55L305.496 1163.55C305.919 1163.26 306.442 1163.14 306.949 1163.23C307.457 1163.32 307.907 1163.61 308.201 1164.03C308.496 1164.46 308.61 1164.98 308.519 1165.49C308.428 1166 308.139 1166.45 307.716 1166.74L288.956 1179.82C288.85 1179.89 288.736 1179.96 288.616 1180.01L270.846 1187.66C270.606 1187.78 270.344 1187.85 270.076 1187.86Z" fill="#262424"/>
<path d="M709.066 1175.7H709.006C689.396 1181.09 658.886 1120.78 650.766 1093.88C642.646 1066.98 644.246 1037.53 645.016 1033.51C645.546 1030.37 651.946 1020.83 659.016 1014.51C659.07 1014.46 659.131 1014.42 659.196 1014.39C661.074 1012.62 663.163 1011.09 665.416 1009.83C685.026 999.4 703.156 1021.68 712.816 1069.08C722.476 1116.48 728.676 1170.13 709.066 1175.7Z" fill="#8C68E4"/>
<path d="M709.067 1175.7H709.006C718.366 1164.21 716.296 1130.97 704.626 1074.7C688.866 998.7 661.627 1012.9 659.187 1014.39C661.064 1012.62 663.153 1011.09 665.406 1009.83C685.016 999.4 703.147 1021.68 712.807 1069.08C722.467 1116.48 728.677 1170.13 709.067 1175.7Z" fill="white"/>
<path d="M709.067 1177.57H709.007C708.662 1177.56 708.326 1177.46 708.036 1177.27C707.746 1177.09 707.513 1176.82 707.362 1176.51C707.212 1176.2 707.151 1175.86 707.185 1175.51C707.22 1175.17 707.348 1174.84 707.557 1174.57C716.187 1163.98 714.667 1132.38 702.797 1075.11C694.037 1032.88 681.907 1019.49 673.277 1015.69C671.215 1014.71 668.95 1014.22 666.667 1014.28C664.383 1014.34 662.146 1014.93 660.137 1016.02C659.737 1016.26 659.261 1016.35 658.801 1016.26C658.342 1016.17 657.933 1015.91 657.655 1015.53C657.378 1015.16 657.252 1014.69 657.302 1014.22C657.352 1013.76 657.575 1013.33 657.927 1013.02C659.92 1011.14 662.141 1009.52 664.537 1008.19C670.907 1004.8 677.207 1004.54 683.277 1007.4C696.737 1013.74 707.867 1035.52 714.637 1068.72C728.277 1136.1 726.577 1172.72 709.587 1177.53C709.416 1177.57 709.241 1177.58 709.067 1177.57ZM668.147 1010.57C670.437 1010.73 672.681 1011.29 674.777 1012.23C688.497 1018.23 699.157 1039.16 706.447 1074.31C716.787 1124.18 719.297 1154.48 714.167 1169.8C722.877 1157.97 721.846 1123.12 710.966 1069.43C704.446 1037.43 694.047 1016.58 681.677 1010.75C679.573 1009.73 677.273 1009.19 674.938 1009.16C672.602 1009.12 670.287 1009.6 668.157 1010.56L668.147 1010.57Z" fill="#262424"/>
<path d="M628.526 1062.36L650.746 1033.48C650.746 1033.48 662.046 1025.03 666.376 1042.74L653.996 1081.62L628.526 1062.36Z" fill="white"/>
<path d="M653.996 1083.48C653.592 1083.48 653.198 1083.34 652.876 1083.1L627.406 1063.84C627.21 1063.69 627.045 1063.5 626.921 1063.29C626.797 1063.08 626.717 1062.84 626.684 1062.6C626.652 1062.35 626.668 1062.1 626.732 1061.87C626.795 1061.63 626.906 1061.41 627.056 1061.21L649.276 1032.33C649.38 1032.19 649.501 1032.07 649.636 1031.97C649.836 1031.82 654.636 1028.27 659.796 1030.11C663.736 1031.52 666.566 1035.62 668.196 1042.28C668.288 1042.61 668.288 1042.95 668.196 1043.28L655.776 1082.18C655.686 1082.46 655.529 1082.72 655.319 1082.93C655.108 1083.14 654.85 1083.3 654.566 1083.39C654.382 1083.45 654.19 1083.48 653.996 1083.48V1083.48ZM631.156 1062.01L653.016 1078.54L664.436 1042.67C663.136 1037.67 661.096 1034.55 658.526 1033.67C655.736 1032.67 652.796 1034.39 652.046 1034.88L631.156 1062.01Z" fill="#262424"/>
<path d="M595.966 1086.69C595.966 1086.69 596.436 1077.78 599.156 1073.09C601.876 1068.4 616.436 1057.78 627.296 1056.55C638.156 1055.32 665.066 1064.49 668.526 1086.69C670.814 1100.81 667.443 1115.26 659.146 1126.91C656.926 1130.12 649.646 1139.57 643.416 1137.91C637.186 1136.25 595.966 1086.69 595.966 1086.69Z" fill="#FFFF7C"/>
<path d="M652.706 1118.54C652.706 1118.54 631.256 1164.04 618.046 1187.8C615.796 1191.8 613.836 1195.09 612.236 1197.52C602.816 1211.86 577.046 1223.83 545.696 1204.87C538.488 1200.41 531.826 1195.12 525.846 1189.11C485.846 1149.65 414.226 1010.42 414.226 1010.42C414.226 1010.42 408.776 841.42 449.296 826.22C518.916 800.09 546.586 879.54 559.916 928.96C573.246 978.38 591.496 1091.36 591.496 1091.36C607.316 1074.12 623.076 1064.22 641.386 1079.51C659.696 1094.8 652.706 1118.54 652.706 1118.54Z" fill="#8C68E4"/>
<path d="M413.776 984.5C413.625 984.5 413.474 984.484 413.326 984.45C412.716 984.31 398.326 980.82 395.836 972.17C393.556 964.31 394.956 915.39 395.016 913.31C395.029 912.804 395.239 912.323 395.602 911.97C395.964 911.617 396.45 911.42 396.956 911.42H397.016C397.272 911.426 397.524 911.483 397.757 911.588C397.991 911.692 398.201 911.841 398.377 912.027C398.553 912.213 398.69 912.432 398.781 912.671C398.871 912.91 398.914 913.164 398.906 913.42C398.496 927.42 397.816 965.05 399.566 971.08C401.126 976.45 410.666 979.81 414.216 980.66C414.691 980.757 415.113 981.029 415.398 981.422C415.683 981.814 415.81 982.299 415.755 982.781C415.7 983.263 415.466 983.707 415.1 984.025C414.733 984.343 414.261 984.513 413.776 984.5V984.5Z" fill="#262424"/>
<path d="M413.386 1001.76C412.873 1001.73 412.39 1001.51 412.036 1001.14C411.683 1000.77 411.486 1000.27 411.486 999.76L413.336 918.66C413.342 918.404 413.398 918.153 413.502 917.919C413.605 917.685 413.753 917.474 413.938 917.298C414.123 917.121 414.34 916.983 414.579 916.891C414.817 916.798 415.071 916.754 415.326 916.76C415.582 916.766 415.833 916.822 416.067 916.925C416.301 917.028 416.512 917.177 416.688 917.361C416.865 917.546 417.003 917.764 417.095 918.002C417.188 918.24 417.232 918.494 417.226 918.75L415.376 999.85C415.372 1000.11 415.318 1000.36 415.215 1000.59C415.113 1000.83 414.965 1001.04 414.78 1001.22C414.595 1001.4 414.376 1001.54 414.137 1001.63C413.898 1001.72 413.643 1001.77 413.386 1001.76Z" fill="#262424"/>
<path d="M531.526 934.46C527.857 934.495 524.24 933.593 521.016 931.84C507.546 924.47 504.766 904.36 504.656 903.51C504.589 902.998 504.727 902.48 505.041 902.07C505.356 901.661 505.82 901.393 506.331 901.325C506.843 901.257 507.361 901.396 507.771 901.71C508.181 902.024 508.449 902.488 508.516 903C508.516 903.19 511.156 922 522.906 928.44C528.796 931.65 536.156 931.23 544.766 927.17C545.233 926.95 545.768 926.924 546.254 927.099C546.74 927.273 547.136 927.633 547.356 928.1C547.577 928.567 547.602 929.102 547.428 929.588C547.253 930.073 546.893 930.47 546.426 930.69C541.797 933.027 536.71 934.314 531.526 934.46V934.46Z" fill="#262424"/>
<path d="M618.037 1187.76C615.787 1191.76 613.827 1195.05 612.227 1197.48C602.807 1211.82 577.036 1223.79 545.686 1204.83C545.626 1203.83 545.566 1202.76 545.566 1201.75C545.548 1193.01 548.579 1184.53 554.136 1177.78C559.694 1171.04 567.431 1166.44 576.015 1164.78C584.599 1163.12 593.492 1164.51 601.162 1168.71C608.832 1172.9 614.8 1179.64 618.037 1187.76V1187.76Z" fill="white"/>
<path d="M593.966 1149.1H593.646C593.278 1149.04 592.935 1148.87 592.659 1148.62C592.382 1148.37 592.183 1148.05 592.086 1147.69L534.426 932.53C534.294 932.031 534.364 931.5 534.623 931.054C534.882 930.608 535.308 930.282 535.806 930.15C536.305 930.017 536.836 930.088 537.282 930.347C537.728 930.606 538.054 931.031 538.186 931.53L594.746 1142.53L632.846 1085.84C633.134 1085.41 633.58 1085.12 634.086 1085.02C634.593 1084.92 635.118 1085.02 635.546 1085.31C635.975 1085.6 636.271 1086.04 636.37 1086.55C636.47 1087.06 636.364 1087.58 636.076 1088.01L595.586 1148.25C595.403 1148.51 595.161 1148.72 594.879 1148.87C594.597 1149.02 594.284 1149.1 593.966 1149.1Z" fill="#262424"/>
<path d="M592.606 1162.06H592.476C592.221 1162.04 591.972 1161.98 591.743 1161.86C591.514 1161.75 591.309 1161.59 591.141 1161.4C590.973 1161.21 590.844 1160.98 590.763 1160.74C590.681 1160.5 590.649 1160.24 590.666 1159.99C592.126 1138.13 590.666 1101.69 590.666 1101.32C590.656 1101.06 590.696 1100.81 590.783 1100.57C590.871 1100.33 591.005 1100.11 591.178 1099.92C591.527 1099.55 592.012 1099.32 592.526 1099.3C593.041 1099.28 593.543 1099.46 593.921 1099.81C594.3 1100.16 594.525 1100.64 594.546 1101.16C594.546 1101.53 596.016 1138.16 594.546 1160.24C594.516 1160.73 594.298 1161.2 593.937 1161.53C593.577 1161.87 593.101 1162.06 592.606 1162.06V1162.06Z" fill="#262424"/>
<path d="M316.486 578.87L286.866 635.65C286.866 635.65 228.606 581.33 223.166 570.97C217.726 560.61 211.556 467.28 211.556 467.28C211.556 467.28 191.556 457.09 181.836 448.17C172.116 439.25 163.576 414.63 163.576 414.63C162.516 408.89 177.166 390.21 179.926 390.42C182.686 390.63 199.356 412.85 199.926 413.54C199.696 412.82 192.066 389.73 191.226 386.39C190.386 383.05 193.566 379.81 196.536 381.93C199.506 384.05 216.706 417.17 217.536 418.02C218.366 418.87 234.536 427.36 234.536 427.36L240.536 422.27C240.106 406.98 246.476 406.56 247.756 409.53C249.036 412.5 250.306 434.53 249.456 438.41C248.606 442.29 242.656 456.24 242.656 456.24L266.716 539.86L316.486 578.87Z" fill="white"/>
<path d="M286.866 637.51C286.395 637.51 285.941 637.331 285.596 637.01C283.206 634.78 227.036 582.35 221.516 571.83C216.216 561.72 210.516 479.29 209.766 468.45C205.636 466.29 189.316 457.52 180.576 449.54C170.576 440.4 162.166 416.25 161.806 415.23C161.776 415.142 161.753 415.051 161.736 414.96C160.736 409.6 169.306 397.96 173.616 393.19C177.406 388.98 178.946 388.47 180.066 388.56C180.896 388.62 182.906 388.78 194.706 403.76C191.516 393.97 189.756 388.41 189.366 386.85C189.043 385.642 189.096 384.364 189.517 383.186C189.939 382.009 190.709 380.988 191.726 380.26C192.595 379.668 193.627 379.366 194.677 379.394C195.727 379.423 196.742 379.782 197.576 380.42C199.576 381.86 204.826 391.06 214.416 408.66C216.416 412.35 218.326 415.85 218.876 416.72C220.206 417.61 227.446 421.54 234.246 425.13L238.566 421.44C238.416 409.06 242.716 406.75 244.566 406.33C245.526 406.113 246.532 406.242 247.406 406.693C248.281 407.145 248.968 407.891 249.346 408.8C250.756 412.09 252.106 434.54 251.156 438.8C250.376 442.32 245.686 453.56 244.506 456.34L268.236 538.76L317.626 577.4C317.967 577.669 318.204 578.049 318.295 578.475C318.387 578.9 318.327 579.344 318.126 579.73L288.506 636.51C288.376 636.769 288.187 636.994 287.954 637.168C287.722 637.341 287.452 637.458 287.166 637.51H286.866ZM165.386 414.17C166.116 416.23 174.166 438.65 183.086 446.79C192.556 455.44 212.196 465.52 212.396 465.62C212.681 465.769 212.923 465.989 213.098 466.259C213.273 466.528 213.376 466.839 213.396 467.16C215.106 493.01 220.496 561.89 224.796 570.11C228.856 577.85 265.796 613.43 286.326 632.62L314.096 579.39L265.446 541.34C265.13 541.085 264.905 540.734 264.806 540.34L240.776 456.76C240.66 456.349 240.688 455.912 240.856 455.52C242.496 451.67 246.856 441.01 247.556 438.01C248.306 434.61 247.056 412.83 245.966 410.27C245.929 410.162 245.854 410.071 245.754 410.016C245.654 409.96 245.537 409.944 245.426 409.97C244.426 410.18 242.066 412.79 242.326 422.23C242.335 422.508 242.281 422.784 242.168 423.039C242.056 423.293 241.888 423.519 241.676 423.7L235.676 428.79C235.393 429.032 235.043 429.184 234.672 429.225C234.301 429.266 233.926 429.194 233.596 429.02C222.726 423.3 216.866 420.02 216.166 419.35C215.766 418.95 215.396 418.35 211.106 410.45C206.616 402.2 197.266 385.04 195.356 383.45C195.144 383.261 194.875 383.15 194.592 383.134C194.309 383.117 194.028 383.197 193.796 383.36C193.416 383.662 193.133 384.071 192.984 384.533C192.835 384.995 192.825 385.492 192.956 385.96C193.426 387.83 196.176 396.43 201.136 411.52L201.616 412.99C201.745 413.409 201.723 413.86 201.553 414.264C201.384 414.669 201.077 415 200.688 415.202C200.298 415.403 199.85 415.461 199.422 415.366C198.994 415.27 198.613 415.027 198.346 414.68C189.786 403.31 182.046 394.06 179.766 392.43C176.366 394.44 164.866 409.86 165.386 414.17Z" fill="#262424"/>
<path d="M307.106 567.26L272.296 630.58L343.026 701.68C343.026 701.68 382.646 624.29 382.646 623.18C382.646 622.07 307.106 567.26 307.106 567.26Z" fill="#FFFF7C"/>
<path d="M286.866 637.59C286.532 637.59 286.204 637.504 285.913 637.34C285.622 637.176 285.378 636.94 285.205 636.655C285.032 636.369 284.936 636.044 284.926 635.71C284.915 635.376 284.991 635.045 285.146 634.75L313.146 581.05C313.264 580.823 313.426 580.622 313.622 580.458C313.818 580.294 314.044 580.17 314.288 580.093C314.532 580.017 314.788 579.989 315.043 580.011C315.297 580.034 315.545 580.106 315.771 580.225C315.998 580.343 316.199 580.504 316.363 580.7C316.527 580.896 316.651 581.122 316.727 581.366C316.804 581.61 316.832 581.866 316.809 582.121C316.787 582.375 316.714 582.623 316.596 582.85L288.596 636.55C288.426 636.861 288.176 637.121 287.872 637.304C287.568 637.487 287.221 637.585 286.866 637.59V637.59Z" fill="#262424"/>
<path d="M515.337 522.26C500.857 528.65 513.967 558.78 519.547 568.26C525.127 577.74 518.797 605.66 537.807 614.26C556.817 622.86 523.097 661.26 571.547 697.97C608.887 726.27 670.867 702.03 661.197 670.39C651.527 638.75 600.106 625.63 591.626 596.57C586.226 578.08 593.257 550.87 562.047 542.09C538.777 535.61 526.777 517.21 515.337 522.26Z" fill="#262424"/>
<path d="M375.987 617.84C375.987 617.84 337.467 690.94 335.987 707.23C334.507 723.52 360.057 755.37 360.057 755.37L314.876 869.06C314.876 869.06 362.647 933.49 414.117 937.57C465.587 941.65 560.016 889.06 560.016 889.06L530.776 770.19L562.996 701.68L546.706 617.84C546.706 617.84 498.567 639.84 465.607 643.54C432.647 647.24 375.987 617.84 375.987 617.84Z" fill="#FFFF7C"/>
<path d="M341.017 692.87C340.693 692.869 340.376 692.787 340.092 692.633C339.808 692.478 339.567 692.255 339.39 691.985C339.214 691.714 339.107 691.404 339.08 691.082C339.054 690.76 339.107 690.436 339.237 690.14C347.797 670.86 371.237 622.79 371.477 622.3C371.703 621.836 372.105 621.481 372.594 621.313C373.082 621.145 373.617 621.178 374.082 621.405C374.546 621.632 374.901 622.033 375.069 622.522C375.236 623.01 375.203 623.546 374.977 624.01C374.737 624.49 351.327 672.5 342.797 691.72C342.637 692.059 342.386 692.347 342.071 692.55C341.757 692.753 341.391 692.864 341.017 692.87V692.87Z" fill="#262424"/>
<path d="M418.326 928.07C417.393 928.07 416.486 928.046 415.606 928C376.176 926 330.436 868.05 328.506 865.59C328.188 865.184 328.044 864.668 328.106 864.156C328.168 863.644 328.43 863.178 328.836 862.86C329.242 862.542 329.758 862.397 330.27 862.459C330.782 862.521 331.248 862.784 331.566 863.19C332.026 863.78 378.136 922.19 415.796 924.11C453.856 926.03 544.596 881.75 545.506 881.31C545.735 881.197 545.984 881.131 546.239 881.115C546.494 881.099 546.749 881.134 546.991 881.216C547.232 881.299 547.455 881.428 547.646 881.597C547.838 881.766 547.994 881.971 548.106 882.2C548.219 882.429 548.285 882.678 548.301 882.933C548.317 883.187 548.282 883.443 548.2 883.684C548.117 883.926 547.988 884.148 547.819 884.34C547.65 884.531 547.445 884.687 547.216 884.8C543.556 886.61 458.626 928.07 418.326 928.07Z" fill="#262424"/>
<path d="M453.496 629.47C432.336 627.8 418.686 643.79 417.206 661.07C415.726 678.35 434.776 686.25 434.776 686.25C434.776 686.25 442.187 667.98 448.847 666.5C455.507 665.02 462.636 688.76 462.636 688.76C462.636 688.76 485.637 683.58 489.797 661.11C493.957 638.64 472.256 630.95 453.496 629.47Z" fill="#8C68E4"/>
<path d="M440.646 598L436.156 641.33C436.156 641.33 442.476 653.67 452.776 654.16C463.076 654.65 473.056 643.54 473.056 643.54V595.4L440.646 598Z" fill="white"/>
<path d="M453.446 656.04H452.686C441.426 655.5 434.766 642.73 434.496 642.19C434.338 641.882 434.269 641.535 434.297 641.19L438.777 597.76C438.822 597.326 439.018 596.921 439.33 596.616C439.642 596.311 440.051 596.125 440.487 596.09L472.896 593.5C473.152 593.481 473.409 593.514 473.651 593.599C473.893 593.684 474.115 593.818 474.303 593.993C474.491 594.167 474.641 594.379 474.743 594.614C474.845 594.85 474.897 595.103 474.896 595.36V643.5C474.897 643.962 474.726 644.407 474.417 644.75C474.027 645.26 464.216 656.04 453.446 656.04ZM438.076 640.93C439.296 643.07 444.846 651.93 452.876 652.29C460.906 652.65 469.166 644.87 471.206 642.79V597.43L442.347 599.76L438.076 640.93Z" fill="#262424"/>
<path d="M501.876 529.24L507.626 528.31C508.529 528.161 509.455 528.257 510.308 528.588C511.161 528.918 511.91 529.472 512.476 530.19C514.143 532.207 515.33 534.576 515.946 537.12C516.366 539.872 515.81 542.684 514.376 545.07C514.048 545.655 513.607 546.17 513.078 546.584C512.549 546.997 511.944 547.302 511.296 547.48L504.876 549.29C504.145 549.496 503.377 549.538 502.628 549.412C501.879 549.286 501.167 548.995 500.543 548.561C499.92 548.127 499.4 547.56 499.022 546.901C498.644 546.242 498.416 545.507 498.356 544.75L497.556 534.75C497.447 533.455 497.832 532.168 498.633 531.145C499.435 530.123 500.593 529.442 501.876 529.24Z" fill="white"/>
<path d="M503.487 551.42C501.705 551.418 499.988 550.745 498.68 549.535C497.372 548.325 496.567 546.666 496.427 544.89L495.627 534.89C495.495 533.117 496.03 531.359 497.127 529.961C498.224 528.562 499.804 527.624 501.557 527.33V527.33L507.307 526.4C508.551 526.196 509.828 526.329 511.004 526.785C512.18 527.24 513.213 528.001 513.997 528.99C515.849 531.245 517.166 533.892 517.847 536.73C518.365 539.932 517.738 543.214 516.077 546C515.625 546.81 515.017 547.523 514.287 548.096C513.557 548.67 512.721 549.092 511.827 549.34L505.407 551.15C504.782 551.327 504.136 551.418 503.487 551.42ZM502.187 531.16C501.394 531.29 500.68 531.712 500.184 532.344C499.687 532.975 499.446 533.769 499.507 534.57L500.307 544.57C500.344 545.042 500.485 545.5 500.72 545.91C500.955 546.321 501.279 546.675 501.667 546.945C502.055 547.216 502.499 547.397 502.966 547.476C503.433 547.554 503.911 547.528 504.367 547.4L510.787 545.59C511.187 545.482 511.563 545.296 511.891 545.042C512.219 544.788 512.493 544.471 512.697 544.11C513.904 542.128 514.385 539.787 514.057 537.49C513.497 535.247 512.441 533.159 510.967 531.38C510.614 530.938 510.151 530.598 509.623 530.394C509.096 530.19 508.525 530.13 507.967 530.22L502.187 531.16Z" fill="#262424"/>
<path d="M417.006 570.88C412.696 589.49 414.706 612.98 437.006 618.81C453.416 623.1 477.116 608.72 485.666 584.38C494.216 560.04 496.056 537.63 465.866 530.47C462.63 529.753 459.349 529.252 456.046 528.97C437.676 527.78 430.646 527.41 419.506 560.97C418.536 563.97 417.776 567.37 417.006 570.88Z" fill="white"/>
<path d="M442.286 621.41C440.347 621.421 438.414 621.183 436.536 620.7C413.536 614.7 410.396 590.81 415.116 570.45L415.426 569.11C416.126 566.01 416.796 563.11 417.686 560.4C423.336 543.4 428.046 534.67 433.946 530.4C439.846 526.13 446.786 526.45 456.196 527.06C456.451 527.076 456.7 527.143 456.929 527.255C457.158 527.368 457.363 527.525 457.531 527.716C457.7 527.908 457.829 528.131 457.911 528.373C457.994 528.615 458.028 528.87 458.011 529.125C457.995 529.38 457.928 529.629 457.816 529.858C457.703 530.087 457.546 530.291 457.355 530.46C457.163 530.629 456.94 530.758 456.698 530.84C456.456 530.922 456.201 530.956 455.946 530.94C438.096 529.78 432.066 529.39 421.376 561.63C420.546 564.13 419.906 566.97 419.226 569.98L418.916 571.34C416.826 580.34 412.006 610.29 437.526 616.95C442.586 618.27 449.016 617.31 457.776 613.95C458.258 613.763 458.793 613.775 459.266 613.983C459.739 614.191 460.109 614.578 460.296 615.06C460.483 615.541 460.471 616.077 460.263 616.55C460.055 617.022 459.667 617.393 459.186 617.58C452.416 620.14 446.976 621.41 442.286 621.41Z" fill="#262424"/>
<path d="M476.476 585.33C473.853 583.192 471.855 580.386 470.693 577.208C469.531 574.029 469.249 570.596 469.876 567.27C470.256 565.01 471.006 562.03 471.236 559.19C454.236 568.34 427.596 568.59 416.166 568.19C414.372 568.155 412.635 567.556 411.199 566.48C409.764 565.403 408.703 563.902 408.166 562.19C401.776 540.23 427.616 510.48 450.776 518.76C483.286 509.05 509.916 532.51 507.026 556.36C503.776 582.76 482.936 590.88 476.476 585.33Z" fill="#262424"/>
<path d="M477.776 583.23C477.776 583.23 493.396 574.31 504.866 582.02C516.336 589.73 503.006 618.02 472.866 605.25L477.776 583.23Z" fill="white"/>
<path d="M487.407 610.43C482.131 610.338 476.927 609.185 472.107 607.04C471.632 606.838 471.257 606.456 471.063 605.978C470.87 605.5 470.875 604.964 471.077 604.49C471.278 604.015 471.66 603.64 472.138 603.447C472.616 603.253 473.152 603.258 473.627 603.46C490.467 610.59 501.177 604.36 505.237 596.86C508.057 591.65 507.447 586.09 503.787 583.63C493.467 576.7 478.887 584.84 478.787 584.92C478.338 585.176 477.807 585.243 477.309 585.107C476.811 584.971 476.387 584.643 476.132 584.195C475.876 583.746 475.808 583.215 475.944 582.717C476.08 582.219 476.408 581.796 476.857 581.54C477.537 581.15 493.667 572.11 505.997 580.4C511.357 584 512.487 591.7 508.697 598.71C505.057 605.36 497.597 610.43 487.407 610.43Z" fill="#262424"/>
<path d="M596.926 585.76L623.716 556.88L686.776 450C686.776 450 682.336 433.21 682.336 426.3C682.336 419.39 695.726 395.07 701.466 393.22C707.206 391.37 706.096 397.48 705.166 400.63C704.236 403.78 700.906 411.18 700.906 411.18L702.906 421.92C702.906 421.92 725.126 412.48 728.086 409.33C731.046 406.18 737.896 384.7 739.936 382.33C741.976 379.96 745.306 386.77 745.306 386.77C745.306 386.77 753.456 395.84 756.786 402.88C760.116 409.92 749.376 446.02 746.976 447.69C744.576 449.36 715.776 463.76 715.776 463.76C715.776 463.76 684.776 568.37 676.666 580.22C668.556 592.07 621.116 640.58 621.116 640.58L596.926 585.76Z" fill="white"/>
<path d="M621.116 642.45C621.006 642.46 620.896 642.46 620.786 642.45C620.487 642.395 620.206 642.268 619.967 642.08C619.728 641.892 619.539 641.648 619.416 641.37L595.226 586.57C595.083 586.239 595.039 585.874 595.1 585.519C595.16 585.164 595.322 584.834 595.566 584.57L622.206 555.76L684.776 449.76C683.896 446.35 680.466 432.64 680.466 426.34C680.466 418.67 694.246 393.63 700.896 391.48C703.836 390.53 705.496 391.34 706.366 392.19C708.036 393.82 708.236 396.84 706.956 401.19C706.146 403.95 703.646 409.66 702.846 411.44L704.336 419.32C712.846 415.63 724.956 410 726.756 408.08C728.156 406.59 731.206 398.65 733.436 392.84C735.986 386.19 737.436 382.37 738.536 381.12C738.865 380.706 739.294 380.383 739.782 380.182C740.27 379.981 740.802 379.908 741.326 379.97C743.866 380.29 745.986 383.97 746.886 385.72C748.126 387.12 755.316 395.37 758.486 402.08C760.576 406.5 758.206 418.48 755.856 427.75C755.656 428.55 750.856 447.26 748.046 449.21C745.736 450.81 722.396 462.52 717.256 465.09C714.196 475.43 686.106 569.76 678.166 581.3C670.026 593.15 624.356 639.92 622.416 641.91C622.07 642.253 621.604 642.447 621.116 642.45V642.45ZM599.116 586.15L621.696 637.31C630.696 628.09 668.076 589.41 675.116 579.17C683.006 567.7 713.626 464.28 713.936 463.24C714.014 462.99 714.143 462.76 714.316 462.564C714.488 462.367 714.699 462.209 714.936 462.1C726.276 456.43 743.626 447.64 745.886 446.2C748.546 442.73 758.016 409.62 755.186 403.65C752.006 396.95 744.086 388.08 744.006 387.99C743.89 387.86 743.793 387.715 743.716 387.56C743.079 386.205 742.232 384.96 741.206 383.87C740.336 385.4 738.486 390.21 736.976 394.15C733.626 402.87 731.296 408.73 729.526 410.61C726.456 413.88 707.526 422.04 703.716 423.61C703.46 423.717 703.183 423.766 702.905 423.753C702.627 423.74 702.355 423.665 702.11 423.534C701.865 423.403 701.652 423.219 701.487 422.995C701.322 422.771 701.209 422.513 701.156 422.24L699.156 411.5C699.085 411.125 699.131 410.738 699.286 410.39C699.286 410.32 702.576 403.06 703.456 400.08C704.396 396.88 704.186 395.15 703.836 394.81C703.259 394.639 702.639 394.7 702.106 394.98C697.436 396.49 684.266 419.6 684.266 426.29C684.266 432.98 688.606 449.35 688.646 449.51C688.709 449.748 688.723 449.996 688.689 450.24C688.654 450.483 688.572 450.718 688.446 450.93L625.376 557.82C625.308 557.935 625.228 558.042 625.136 558.14L599.116 586.15Z" fill="#262424"/>
<path d="M530.246 624.76L598.537 575.76L632.977 637.97L562.977 701.66C540.707 693.76 514.616 667.33 530.246 624.76Z" fill="#FFFF7C"/>
<path d="M556.776 700.98C556.474 700.979 556.176 700.907 555.906 700.77C535.456 690.53 515.566 665.54 526.816 628.77C526.968 628.277 527.309 627.864 527.764 627.622C528.22 627.38 528.753 627.329 529.246 627.48C529.74 627.631 530.153 627.972 530.395 628.428C530.637 628.883 530.688 629.417 530.536 629.91C520.006 664.31 537.636 687.27 557.646 697.29C558.046 697.481 558.368 697.803 558.559 698.202C558.751 698.602 558.8 699.054 558.698 699.485C558.596 699.916 558.35 700.3 558.001 700.572C557.651 700.843 557.219 700.987 556.776 700.98Z" fill="#262424"/>
<path d="M617.376 642.53C617.021 642.524 616.673 642.424 616.369 642.24C616.065 642.055 615.815 641.793 615.646 641.48L588.016 587.89C587.78 587.431 587.736 586.897 587.894 586.406C588.051 585.914 588.397 585.506 588.856 585.27C589.315 585.034 589.849 584.99 590.34 585.147C590.832 585.305 591.24 585.651 591.476 586.11L619.106 639.7C619.256 639.996 619.328 640.326 619.315 640.658C619.301 640.99 619.203 641.313 619.03 641.597C618.857 641.88 618.614 642.115 618.324 642.278C618.035 642.441 617.709 642.528 617.376 642.53Z" fill="#262424"/>
<path d="M731.426 695.399L719.264 707.561C716.308 710.517 716.308 715.311 719.264 718.267L749.408 748.411C752.364 751.367 757.157 751.367 760.114 748.411L772.276 736.249C775.232 733.292 775.232 728.499 772.276 725.543L742.132 695.399C739.176 692.443 734.382 692.443 731.426 695.399Z" fill="#8C68E4"/>
<path d="M800.076 645.07L818.996 663.99C820.673 665.666 822.003 667.656 822.91 669.846C823.818 672.036 824.285 674.384 824.285 676.755C824.285 679.125 823.818 681.473 822.91 683.663C822.003 685.854 820.673 687.844 818.996 689.52L792.776 715.7C791.949 716.528 790.966 717.186 789.884 717.635C788.802 718.083 787.643 718.314 786.471 718.314C785.3 718.314 784.14 718.083 783.059 717.635C781.977 717.186 780.994 716.528 780.166 715.7L750.666 686.2C748.995 684.529 748.057 682.263 748.056 679.9V636.22C748.056 634.894 748.583 633.622 749.521 632.684C750.459 631.746 751.73 631.22 753.056 631.22C754.054 631.219 755.029 631.517 755.855 632.075C756.682 632.632 757.323 633.425 757.696 634.35L769.086 662.56L786.566 645.08C787.451 644.188 788.502 643.48 789.661 642.997C790.82 642.513 792.064 642.264 793.319 642.263C794.575 642.262 795.819 642.51 796.978 642.991C798.138 643.473 799.191 644.179 800.076 645.07V645.07Z" fill="#8C68E4"/>
<path d="M7.20624 611.99C5.5364 612.99 4.07987 614.309 2.91984 615.872C1.7598 617.435 0.918997 619.211 0.44541 621.099C-0.0281767 622.986 -0.125265 624.949 0.159705 626.874C0.444675 628.8 1.1061 630.65 2.10624 632.32C7.33144 641.021 15.7974 647.291 25.6436 649.753C35.4898 652.215 45.9107 650.667 54.6162 645.45L67.3262 637.83L40.0462 592.3L7.20624 611.99ZM28.0963 639.99C24.4886 639.103 21.0929 637.508 18.106 635.299C15.1192 633.09 12.6006 630.31 10.6963 627.12C10.0429 626.027 9.84963 624.719 10.1589 623.484C10.4683 622.248 11.2549 621.186 12.3463 620.53L36.6162 605.99L53.6162 634.34L49.4963 636.81C46.3187 638.733 42.7919 640.009 39.1191 640.564C35.4462 641.118 31.7 640.94 28.0963 640.04V639.99Z" fill="#8C68E4"/>
<path d="M88.7764 563.09L116.056 608.62L128.776 601C137.486 595.786 143.77 587.327 146.245 577.482C148.72 567.638 147.185 557.213 141.976 548.5C140.976 546.83 139.657 545.373 138.094 544.213C136.532 543.053 134.756 542.212 132.868 541.739C130.98 541.265 129.017 541.168 127.092 541.453C125.166 541.738 123.316 542.4 121.646 543.4L88.7764 563.09ZM123.616 592.41L119.496 594.88L102.496 566.53L126.776 551.99C127.869 551.336 129.177 551.143 130.412 551.452C131.648 551.762 132.71 552.548 133.366 553.64C137.213 560.069 138.352 567.762 136.534 575.031C134.715 582.299 130.088 588.549 123.666 592.41H123.616Z" fill="#8C68E4"/>
<path d="M96.7763 550.97L114.656 580.76C119.783 589.309 121.653 599.421 119.922 609.238C118.192 619.056 112.977 627.919 105.236 634.2L130.146 675.76C143.146 672.4 157.066 681.39 157.066 681.39L112.186 708.28C112.186 708.28 110.846 691.76 119.976 681.86L95.0663 640.29C85.8733 644.169 75.5889 644.598 66.1047 641.498C56.6205 638.399 48.5744 631.979 43.4463 623.42L25.6063 593.64C25.0226 592.665 24.8496 591.498 25.1252 590.396C25.4008 589.293 26.1025 588.345 27.0763 587.76L90.9663 549.48C91.9374 548.92 93.0891 548.762 94.1749 549.041C95.2608 549.319 96.1945 550.012 96.7763 550.97Z" fill="#8C68E4"/>
<path d="M70.4962 584.24L80.4962 590.66C80.7725 590.843 81.0899 590.954 81.4198 590.983C81.7497 591.013 82.0817 590.96 82.3862 590.83L93.3162 586.27C93.6679 586.104 94.0602 586.045 94.4452 586.098C94.8302 586.152 95.1912 586.317 95.484 586.573C95.7769 586.828 95.9888 587.164 96.094 587.538C96.1991 587.912 96.193 588.309 96.0762 588.68L93.0762 600.13C92.9889 600.45 92.9825 600.786 93.0576 601.109C93.1327 601.432 93.2868 601.731 93.5062 601.98L101.226 610.98C101.493 611.263 101.671 611.618 101.738 612.001C101.806 612.384 101.761 612.778 101.608 613.136C101.456 613.493 101.202 613.799 100.878 614.014C100.555 614.23 100.175 614.347 99.7862 614.35L87.9662 615.01C87.6326 615.027 87.3087 615.128 87.024 615.302C86.7392 615.477 86.5028 615.72 86.3362 616.01L80.1762 626.12C79.9898 626.461 79.708 626.74 79.3653 626.924C79.0226 627.107 78.6338 627.187 78.2466 627.153C77.8594 627.119 77.4904 626.973 77.1849 626.733C76.8794 626.492 76.6505 626.168 76.5262 625.8L72.2462 614.8C72.1394 614.468 71.9475 614.169 71.6896 613.934C71.4317 613.699 71.1168 613.536 70.7762 613.46L59.2162 610.76C58.8345 610.687 58.4822 610.505 58.2023 610.236C57.9224 609.967 57.7271 609.621 57.6401 609.243C57.5531 608.864 57.5783 608.468 57.7126 608.104C57.8469 607.739 58.0844 607.422 58.3962 607.19L67.5762 599.71C67.835 599.502 68.0381 599.234 68.1673 598.928C68.2965 598.623 68.3477 598.29 68.3162 597.96L67.3162 586.16C67.2513 585.765 67.306 585.36 67.4735 584.997C67.641 584.634 67.9136 584.33 68.2559 584.123C68.5982 583.916 68.9947 583.817 69.394 583.838C69.7934 583.859 70.1773 583.999 70.4962 584.24V584.24Z" fill="#FFFF7C"/>
<path d="M144.776 188.66C151.363 187.424 157.638 184.888 163.233 181.2C168.829 177.512 173.634 172.746 177.366 167.18L192.896 182.76C192.896 182.76 179.896 208.31 147.346 209.05L144.776 188.66Z" fill="#FFFF7C"/>
<path d="M139.646 796.97C143.114 802.709 147.691 807.699 153.11 811.648C158.529 815.597 164.681 818.426 171.206 819.97L162.116 839.97C162.116 839.97 133.636 836.76 121.486 806.56L139.646 796.97Z" fill="#FFFF7C"/>
<path d="M703.776 850.93C700.309 845.191 695.731 840.201 690.312 836.252C684.894 832.302 678.742 829.473 672.216 827.93L681.306 807.93C681.306 807.93 709.786 811.08 721.936 841.32L703.776 850.93Z" fill="#FFFF7C"/>
<path d="M803.986 365.87C807.454 371.609 812.031 376.599 817.45 380.548C822.869 384.497 829.021 387.326 835.546 388.87L826.456 408.87C826.456 408.87 797.976 405.72 785.826 375.48L803.986 365.87Z" fill="#FFFF7C"/>
<path d="M261.136 20.89C267.025 18.3306 271.729 13.6408 274.307 7.76L277.686 0L281.076 7.76C283.646 13.6558 288.351 18.3609 294.246 20.93L302.006 24.31L294.246 27.69C288.351 30.2591 283.646 34.9642 281.076 40.86L277.696 48.62L274.316 40.86C271.751 34.9511 267.041 30.2342 261.136 27.66L253.376 24.28L261.136 20.89Z" fill="#8C68E4"/>
<path d="M64.4362 352.59C69.4546 350.403 73.4595 346.398 75.6462 341.38L78.5262 334.77L81.4062 341.38C83.5928 346.398 87.5977 350.403 92.6162 352.59L99.2262 355.47L92.6162 358.35C87.5977 360.536 83.5928 364.541 81.4062 369.56L78.5262 376.17L75.6462 369.56C73.4595 364.541 69.4546 360.536 64.4362 358.35L57.8262 355.47L64.4362 352.59Z" fill="#FFFF7C"/>
<path d="M133.996 1053.92C138.397 1052 141.909 1048.49 143.826 1044.09L146.346 1038.3L148.866 1044.09C150.784 1048.49 154.295 1052 158.696 1053.92L164.486 1056.44L158.696 1058.96C154.295 1060.88 150.784 1064.39 148.866 1068.79L146.346 1074.58L143.776 1068.76C141.859 1064.36 138.347 1060.85 133.946 1058.93L128.156 1056.41L133.996 1053.92Z" fill="#8C68E4"/>
<path d="M753.276 176.43C759.472 173.73 764.417 168.786 767.116 162.59L770.666 154.43L774.216 162.59C776.916 168.786 781.86 173.73 788.056 176.43L796.216 179.98L788.056 183.53C781.86 186.229 776.916 191.174 774.216 197.37L770.666 205.53L767.116 197.37C764.417 191.174 759.472 186.229 753.276 183.53L745.116 179.98L753.276 176.43Z" fill="#8C68E4"/>
<path d="M690.246 48.5898C699.79 48.5898 707.526 40.8533 707.526 31.3098C707.526 21.7663 699.79 14.0298 690.246 14.0298C680.703 14.0298 672.966 21.7663 672.966 31.3098C672.966 40.8533 680.703 48.5898 690.246 48.5898Z" fill="#8C68E4"/>
<path d="M770.666 995.89C778.028 995.89 783.996 989.922 783.996 982.56C783.996 975.198 778.028 969.229 770.666 969.229C763.304 969.229 757.336 975.198 757.336 982.56C757.336 989.922 763.304 995.89 770.666 995.89Z" fill="#8C68E4"/>
<path d="M363.216 324.88C297.306 385.61 259.536 461.88 259.536 461.88H312.616L331.376 514.46C331.376 514.46 369.146 438.18 435.056 377.46L363.216 324.88Z" fill="#8C68E4"/>
<path d="M553.716 324.88C619.626 385.61 657.396 461.88 657.396 461.88H604.316L585.557 514.46C585.557 514.46 547.776 438.19 481.876 377.47L553.716 324.88Z" fill="#8C68E4"/>
<path d="M611.776 105.76L622.396 158.7C623.233 162.874 624.877 166.845 627.236 170.39L657.166 215.33C660.739 220.697 662.646 227.002 662.646 233.45C662.646 239.898 660.739 246.202 657.166 251.57L627.236 296.51C624.877 300.054 623.233 304.025 622.396 308.2L611.776 361.16C610.504 367.475 607.395 373.274 602.838 377.828C598.282 382.383 592.482 385.49 586.166 386.76L533.226 397.38C529.052 398.217 525.081 399.861 521.536 402.22L476.596 432.15C471.229 435.723 464.925 437.629 458.476 437.629C452.028 437.629 445.724 435.723 440.356 432.15L395.416 402.22C391.872 399.861 387.901 398.217 383.726 397.38L330.776 386.76C324.453 385.491 318.646 382.381 314.085 377.821C309.525 373.26 306.415 367.453 305.146 361.13L294.526 308.19C293.689 304.015 292.045 300.044 289.686 296.5L259.776 251.58C256.203 246.212 254.297 239.908 254.297 233.46C254.297 227.012 256.203 220.707 259.776 215.34L289.706 170.4C292.065 166.855 293.709 162.884 294.546 158.71L305.146 105.76C306.417 99.4381 309.527 93.6331 314.088 89.0746C318.648 84.5161 324.454 81.4075 330.776 80.1398L383.716 69.5198C387.891 68.6829 391.862 67.0388 395.406 64.6798L440.346 34.7598C445.714 31.1867 452.018 29.2803 458.466 29.2803C464.915 29.2803 471.219 31.1867 476.586 34.7598L521.526 64.6898C525.071 67.0488 529.042 68.6929 533.216 69.5298L586.156 80.1498C592.475 81.4186 598.278 84.5265 602.837 89.0829C607.395 93.6394 610.505 99.4413 611.776 105.76V105.76Z" fill="#FFFF7C"/>
<path d="M458.467 382.24C540.635 382.24 607.247 315.629 607.247 233.46C607.247 151.291 540.635 84.6797 458.467 84.6797C376.298 84.6797 309.687 151.291 309.687 233.46C309.687 315.629 376.298 382.24 458.467 382.24Z" fill="white"/>
<path d="M458.467 365.87C531.595 365.87 590.877 306.588 590.877 233.46C590.877 160.332 531.595 101.05 458.467 101.05C385.339 101.05 326.057 160.332 326.057 233.46C326.057 306.588 385.339 365.87 458.467 365.87Z" fill="#8C68E4"/>
<path d="M544.756 205.43L485.126 196.76L458.466 233.46L544.756 205.43Z" fill="#FFFF7C"/>
<path d="M458.466 233.46L501.606 247.48L544.756 205.43L458.466 233.46Z" fill="white"/>
<path d="M458.466 233.46L511.796 306.86L501.606 247.48L458.466 233.46Z" fill="#FFFF7C"/>
<path d="M405.136 306.86L458.466 278.82V233.46L405.136 306.86Z" fill="#FFFF7C"/>
<path d="M458.466 233.46L415.326 247.48L405.136 306.86L458.466 233.46Z" fill="white"/>
<path d="M458.466 233.46V278.82L511.796 306.86L458.466 233.46Z" fill="white"/>
<path d="M458.467 142.74L431.807 196.76L458.467 233.46V142.74Z" fill="#FFFF7C"/>
<path d="M458.466 233.46L372.176 205.43L415.326 247.48L458.466 233.46Z" fill="#FFFF7C"/>
<path d="M458.466 233.46L485.126 196.76L458.466 142.74V233.46Z" fill="white"/>
<path d="M458.466 233.46L431.806 196.76L372.176 205.43L458.466 233.46Z" fill="white"/>
<path d="M458.656 68.7797C463.102 68.7797 466.706 65.1756 466.706 60.7297C466.706 56.2838 463.102 52.6797 458.656 52.6797C454.211 52.6797 450.606 56.2838 450.606 60.7297C450.606 65.1756 454.211 68.7797 458.656 68.7797Z" fill="white"/>
<path d="M458.656 70.6398C456.696 70.6398 454.78 70.0586 453.15 68.9697C451.521 67.8808 450.251 66.333 449.5 64.5222C448.75 62.7114 448.554 60.7188 448.937 58.7965C449.319 56.8741 450.263 55.1083 451.649 53.7224C453.035 52.3365 454.8 51.3926 456.723 51.0102C458.645 50.6279 460.638 50.8241 462.448 51.5742C464.259 52.3242 465.807 53.5944 466.896 55.2241C467.985 56.8538 468.566 58.7698 468.566 60.7298C468.563 63.3573 467.519 65.8764 465.661 67.7343C463.803 69.5922 461.284 70.6372 458.656 70.6398ZM458.656 54.5498C457.434 54.5498 456.239 54.9123 455.223 55.5913C454.206 56.2704 453.414 57.2356 452.947 58.3648C452.479 59.4941 452.356 60.7367 452.595 61.9355C452.833 63.1343 453.422 64.2355 454.286 65.0997C455.15 65.964 456.252 66.5526 457.45 66.7911C458.649 67.0295 459.892 66.9072 461.021 66.4394C462.15 65.9717 463.116 65.1796 463.795 64.1633C464.474 63.147 464.836 61.9521 464.836 60.7298C464.833 59.0916 464.182 57.5212 463.023 56.3628C461.865 55.2044 460.294 54.5525 458.656 54.5498V54.5498Z" fill="#262424"/>
<path d="M342.145 116.882C345.289 113.738 345.289 108.641 342.145 105.498C339.002 102.354 333.905 102.354 330.761 105.498C327.617 108.641 327.617 113.738 330.761 116.882C333.905 120.026 339.002 120.026 342.145 116.882Z" fill="white"/>
<path d="M336.456 121.1C334.163 121.101 331.941 120.307 330.168 118.853C328.394 117.399 327.18 115.375 326.732 113.126C326.284 110.877 326.63 108.542 327.711 106.52C328.791 104.497 330.54 102.912 332.659 102.034C334.777 101.157 337.134 101.041 339.329 101.707C341.523 102.372 343.419 103.779 344.692 105.685C345.966 107.592 346.539 109.882 346.314 112.164C346.088 114.446 345.078 116.579 343.456 118.2C342.538 119.12 341.447 119.85 340.245 120.347C339.044 120.845 337.757 121.101 336.456 121.1ZM336.456 105.01C335.027 105.01 333.641 105.506 332.536 106.413C331.431 107.32 330.674 108.582 330.395 109.984C330.116 111.387 330.332 112.842 331.006 114.103C331.68 115.364 332.771 116.352 334.092 116.899C335.413 117.447 336.882 117.519 338.251 117.104C339.619 116.689 340.801 115.812 341.595 114.623C342.389 113.434 342.747 112.007 342.607 110.584C342.467 109.161 341.837 107.831 340.826 106.82C340.254 106.244 339.573 105.788 338.823 105.477C338.073 105.166 337.268 105.008 336.456 105.01Z" fill="#262424"/>
<path d="M285.737 241.33C290.182 241.33 293.787 237.726 293.787 233.28C293.787 228.834 290.182 225.23 285.737 225.23C281.291 225.23 277.687 228.834 277.687 233.28C277.687 237.726 281.291 241.33 285.737 241.33Z" fill="white"/>
<path d="M285.776 243.19C283.816 243.19 281.9 242.608 280.271 241.519C278.641 240.431 277.371 238.883 276.621 237.072C275.871 235.261 275.674 233.269 276.057 231.346C276.439 229.424 277.383 227.658 278.769 226.272C280.155 224.886 281.921 223.942 283.843 223.56C285.765 223.178 287.758 223.374 289.569 224.124C291.379 224.874 292.927 226.144 294.016 227.774C295.105 229.404 295.686 231.32 295.686 233.28C295.684 235.907 294.639 238.426 292.781 240.284C290.923 242.142 288.404 243.187 285.776 243.19ZM285.776 227.1C284.554 227.1 283.359 227.462 282.343 228.141C281.327 228.82 280.534 229.785 280.067 230.915C279.599 232.044 279.476 233.286 279.715 234.485C279.953 235.684 280.542 236.785 281.406 237.65C282.271 238.514 283.372 239.102 284.571 239.341C285.769 239.579 287.012 239.457 288.141 238.989C289.27 238.521 290.236 237.729 290.915 236.713C291.594 235.697 291.956 234.502 291.956 233.28C291.954 231.641 291.302 230.071 290.143 228.913C288.985 227.754 287.414 227.102 285.776 227.1V227.1Z" fill="#262424"/>
<path d="M341.894 361.158C345.038 358.014 345.038 352.917 341.894 349.774C338.75 346.63 333.653 346.63 330.51 349.774C327.366 352.917 327.366 358.014 330.51 361.158C333.653 364.302 338.75 364.302 341.894 361.158Z" fill="white"/>
<path d="M336.196 365.38C333.903 365.381 331.68 364.587 329.907 363.133C328.134 361.678 326.92 359.654 326.472 357.406C326.024 355.157 326.37 352.822 327.451 350.8C328.531 348.777 330.28 347.192 332.398 346.314C334.517 345.436 336.874 345.321 339.068 345.986C341.263 346.652 343.158 348.058 344.432 349.965C345.706 351.872 346.279 354.161 346.053 356.443C345.828 358.725 344.818 360.859 343.196 362.48C342.278 363.4 341.186 364.13 339.985 364.627C338.784 365.125 337.496 365.381 336.196 365.38V365.38ZM336.196 349.29C334.766 349.29 333.381 349.785 332.276 350.692C331.17 351.6 330.414 352.862 330.135 354.264C329.856 355.666 330.072 357.122 330.746 358.383C331.42 359.644 332.51 360.632 333.831 361.179C335.152 361.726 336.622 361.798 337.99 361.383C339.359 360.968 340.541 360.092 341.335 358.903C342.129 357.714 342.487 356.287 342.346 354.864C342.206 353.441 341.577 352.111 340.566 351.1C339.994 350.524 339.313 350.068 338.562 349.757C337.812 349.446 337.008 349.287 336.196 349.29V349.29Z" fill="#262424"/>
<path d="M458.286 414.24C462.732 414.24 466.336 410.636 466.336 406.19C466.336 401.744 462.732 398.14 458.286 398.14C453.84 398.14 450.236 401.744 450.236 406.19C450.236 410.636 453.84 414.24 458.286 414.24Z" fill="white"/>
<path d="M458.276 416.1C456.316 416.1 454.4 415.519 452.771 414.43C451.141 413.341 449.871 411.793 449.121 409.982C448.371 408.171 448.174 406.179 448.557 404.256C448.939 402.334 449.883 400.568 451.269 399.182C452.655 397.796 454.421 396.853 456.343 396.47C458.265 396.088 460.258 396.284 462.069 397.034C463.879 397.784 465.427 399.054 466.516 400.684C467.605 402.314 468.186 404.23 468.186 406.19C468.184 408.817 467.139 411.336 465.281 413.194C463.423 415.052 460.904 416.097 458.276 416.1ZM458.276 400.01C457.054 400.01 455.859 400.372 454.843 401.051C453.827 401.73 453.034 402.696 452.567 403.825C452.099 404.954 451.976 406.197 452.215 407.395C452.453 408.594 453.042 409.695 453.906 410.56C454.771 411.424 455.872 412.013 457.071 412.251C458.269 412.489 459.512 412.367 460.641 411.899C461.77 411.432 462.736 410.64 463.415 409.623C464.094 408.607 464.456 407.412 464.456 406.19C464.454 404.552 463.802 402.981 462.643 401.823C461.485 400.664 459.914 400.012 458.276 400.01V400.01Z" fill="#262424"/>
<path d="M586.17 361.42C589.313 358.276 589.313 353.179 586.17 350.035C583.026 346.892 577.929 346.892 574.785 350.035C571.641 353.179 571.641 358.276 574.785 361.42C577.929 364.563 583.026 364.563 586.17 361.42Z" fill="white"/>
<path d="M580.476 365.64C579.176 365.643 577.888 365.388 576.686 364.891C575.485 364.393 574.394 363.662 573.476 362.74V362.74C571.854 361.119 570.845 358.986 570.619 356.704C570.394 354.422 570.967 352.132 572.241 350.225C573.514 348.319 575.41 346.912 577.604 346.247C579.798 345.581 582.156 345.697 584.274 346.574C586.393 347.452 588.141 349.037 589.222 351.06C590.303 353.082 590.648 355.417 590.2 357.666C589.752 359.915 588.538 361.939 586.765 363.393C584.992 364.847 582.77 365.641 580.476 365.64V365.64ZM580.476 349.55C579.254 349.55 578.059 349.912 577.043 350.591C576.027 351.27 575.234 352.236 574.767 353.365C574.299 354.494 574.177 355.737 574.415 356.936C574.654 358.134 575.242 359.236 576.106 360.1V360.1C576.825 360.818 577.71 361.349 578.682 361.644C579.655 361.939 580.685 361.989 581.682 361.791C582.679 361.593 583.611 361.152 584.397 360.507C585.182 359.862 585.797 359.034 586.186 358.095C586.575 357.156 586.726 356.136 586.627 355.124C586.527 354.113 586.179 353.142 585.615 352.296C585.05 351.451 584.286 350.759 583.39 350.28C582.493 349.801 581.493 349.55 580.476 349.55V349.55Z" fill="#262424"/>
<path d="M631.196 241.7C635.642 241.7 639.246 238.096 639.246 233.65C639.246 229.204 635.642 225.6 631.196 225.6C626.751 225.6 623.146 229.204 623.146 233.65C623.146 238.096 626.751 241.7 631.196 241.7Z" fill="white"/>
<path d="M631.196 243.56C629.236 243.56 627.32 242.979 625.691 241.89C624.061 240.801 622.791 239.253 622.041 237.442C621.291 235.631 621.094 233.639 621.477 231.716C621.859 229.794 622.803 228.028 624.189 226.642C625.575 225.256 627.341 224.313 629.263 223.93C631.185 223.548 633.178 223.744 634.989 224.494C636.8 225.244 638.347 226.514 639.436 228.144C640.525 229.774 641.106 231.69 641.106 233.65C641.104 236.277 640.059 238.796 638.201 240.654C636.343 242.512 633.824 243.557 631.196 243.56V243.56ZM631.196 227.47C629.974 227.47 628.779 227.832 627.763 228.511C626.747 229.19 625.955 230.156 625.487 231.285C625.019 232.414 624.897 233.657 625.135 234.855C625.374 236.054 625.962 237.155 626.826 238.02C627.691 238.884 628.792 239.473 629.991 239.711C631.19 239.949 632.432 239.827 633.561 239.359C634.691 238.892 635.656 238.099 636.335 237.083C637.014 236.067 637.376 234.872 637.376 233.65C637.374 232.012 636.722 230.441 635.563 229.283C634.405 228.124 632.835 227.472 631.196 227.47V227.47Z" fill="#262424"/>
<path d="M586.421 117.144C589.565 114 589.565 108.903 586.421 105.759C583.278 102.616 578.181 102.616 575.037 105.759C571.893 108.903 571.893 114 575.037 117.144C578.181 120.288 583.278 120.288 586.421 117.144Z" fill="white"/>
<path d="M580.776 121.37C578.483 121.371 576.261 120.577 574.488 119.123C572.715 117.669 571.501 115.645 571.053 113.396C570.605 111.147 570.95 108.812 572.031 106.79C573.112 104.767 574.86 103.182 576.979 102.304C579.097 101.427 581.454 101.311 583.649 101.977C585.843 102.642 587.739 104.049 589.012 105.955C590.286 107.862 590.859 110.152 590.634 112.434C590.408 114.716 589.398 116.849 587.776 118.47V118.47C586.859 119.392 585.768 120.123 584.567 120.621C583.365 121.118 582.077 121.373 580.776 121.37ZM580.776 105.28C579.76 105.28 578.759 105.53 577.863 106.01C576.967 106.489 576.203 107.181 575.638 108.026C575.073 108.871 574.726 109.843 574.626 110.854C574.527 111.866 574.678 112.886 575.067 113.825C575.456 114.764 576.07 115.592 576.856 116.237C577.642 116.882 578.574 117.323 579.571 117.521C580.568 117.719 581.598 117.669 582.57 117.374C583.543 117.079 584.428 116.548 585.146 115.83V115.83C586.014 114.966 586.606 113.864 586.846 112.663C587.087 111.463 586.965 110.218 586.497 109.087C586.029 107.955 585.235 106.989 584.217 106.309C583.198 105.629 582.001 105.268 580.776 105.27V105.28Z" fill="#262424"/>
</svg>
