<svg width="1299" height="1060" viewBox="0 0 1299 1060" fill="none" xmlns="http://www.w3.org/2000/svg">
<path d="M1275.98 2.49023H328.79C317.512 2.49023 308.37 11.6326 308.37 22.9102V699.4C308.37 710.678 317.512 719.82 328.79 719.82H1275.98C1287.26 719.82 1296.4 710.678 1296.4 699.4V22.9102C1296.4 11.6326 1287.26 2.49023 1275.98 2.49023Z" fill="white"/>
<path d="M1275.97 722.33H328.79C322.718 722.309 316.9 719.887 312.607 715.594C308.313 711.3 305.891 705.482 305.87 699.41V22.92C305.891 16.8477 308.313 11.0302 312.607 6.7364C316.9 2.44263 322.718 0.0210845 328.79 0H1275.97C1282.04 0.0210845 1287.86 2.44263 1292.15 6.7364C1296.45 11.0302 1298.87 16.8477 1298.89 22.92V699.41C1298.87 705.482 1296.45 711.3 1292.15 715.594C1287.86 719.887 1282.04 722.309 1275.97 722.33ZM328.79 4.99001C324.039 4.9953 319.484 6.88499 316.125 10.2445C312.765 13.604 310.875 18.1589 310.87 22.91V699.41C310.875 704.161 312.765 708.716 316.125 712.076C319.484 715.435 324.039 717.325 328.79 717.33H1275.97C1280.72 717.325 1285.28 715.435 1288.64 712.076C1292 708.716 1293.88 704.161 1293.89 699.41V22.92C1293.88 18.1689 1292 13.614 1288.64 10.2545C1285.28 6.89498 1280.72 5.00529 1275.97 5H328.79V4.99001Z" fill="#262424"/>
<path d="M1272.04 26.8496H332.72V695.48H1272.04V26.8496Z" fill="white"/>
<path d="M1272.05 697.98H332.72C332.057 697.98 331.421 697.716 330.952 697.247C330.483 696.779 330.22 696.143 330.22 695.48V26.8496C330.22 26.1866 330.483 25.5507 330.952 25.0818C331.421 24.613 332.057 24.3496 332.72 24.3496H1272.04C1272.7 24.3496 1273.34 24.613 1273.81 25.0818C1274.28 25.5507 1274.54 26.1866 1274.54 26.8496V695.48C1274.54 696.141 1274.28 696.775 1273.81 697.244C1273.34 697.712 1272.71 697.977 1272.05 697.98V697.98ZM335.23 692.98H1269.5V29.3496H335.22V692.98H335.23Z" fill="#262424"/>
<path d="M1272.04 26.8496H332.72V103.08H1272.04V26.8496Z" fill="white"/>
<path d="M1272.04 105.58H332.72C332.057 105.58 331.421 105.316 330.952 104.847C330.483 104.379 330.22 103.743 330.22 103.08V26.8496C330.22 26.1866 330.483 25.5507 330.952 25.0818C331.421 24.613 332.057 24.3496 332.72 24.3496H1272.04C1272.7 24.3496 1273.34 24.613 1273.81 25.0818C1274.28 25.5507 1274.54 26.1866 1274.54 26.8496V103.08C1274.54 103.743 1274.28 104.379 1273.81 104.847C1273.34 105.316 1272.7 105.58 1272.04 105.58ZM335.22 100.58H1269.5V29.3496H335.22V100.58V100.58Z" fill="#262424"/>
<path d="M502.62 46.8398C497.814 46.8398 493.205 48.7489 489.807 52.1471C486.409 55.5452 484.5 60.1541 484.5 64.9598C484.5 69.7656 486.409 74.3745 489.807 77.7726C493.205 81.1708 497.814 83.0798 502.62 83.0798H1101.5C1106.31 83.0798 1110.91 81.1708 1114.31 77.7726C1117.71 74.3745 1119.62 69.7656 1119.62 64.9598C1119.62 60.1541 1117.71 55.5452 1114.31 52.1471C1110.91 48.7489 1106.31 46.8398 1101.5 46.8398H502.62Z" fill="#8C68E4"/>
<path d="M377.65 78.5L395.42 50.5C395.836 49.8432 396.411 49.3022 397.092 48.9274C397.773 48.5525 398.538 48.356 399.315 48.356C400.092 48.356 400.857 48.5525 401.538 48.9274C402.219 49.3022 402.794 49.8432 403.21 50.5L420.98 78.5C421.425 79.1978 421.674 80.0026 421.701 80.8299C421.728 81.6572 421.532 82.4766 421.133 83.2019C420.734 83.9271 420.147 84.5316 419.434 84.9518C418.721 85.372 417.908 85.5925 417.08 85.59H381.55C380.722 85.5925 379.909 85.372 379.196 84.9518C378.483 84.5316 377.896 83.9271 377.497 83.2019C377.098 82.4766 376.902 81.6572 376.928 80.8299C376.955 80.0026 377.205 79.1978 377.65 78.5V78.5Z" fill="#FFFF7C"/>
<path d="M1236.65 45.9902H1199.33C1196.02 45.9902 1193.33 48.6765 1193.33 51.9902V53.2702C1193.33 56.5839 1196.02 59.2702 1199.33 59.2702H1236.65C1239.96 59.2702 1242.65 56.5839 1242.65 53.2702V51.9902C1242.65 48.6765 1239.96 45.9902 1236.65 45.9902Z" fill="#FFFF7C"/>
<path d="M1236.65 70.6602H1199.33C1196.02 70.6602 1193.33 73.3464 1193.33 76.6602V77.9402C1193.33 81.2539 1196.02 83.9402 1199.33 83.9402H1236.65C1239.96 83.9402 1242.65 81.2539 1242.65 77.9402V76.6602C1242.65 73.3464 1239.96 70.6602 1236.65 70.6602Z" fill="#FFFF7C"/>
<path d="M1082.3 131.42H522.46C515.231 131.42 509.37 137.281 509.37 144.51V1022.11C509.37 1029.34 515.231 1035.2 522.46 1035.2H1082.3C1089.53 1035.2 1095.39 1029.34 1095.39 1022.11V144.51C1095.39 137.281 1089.53 131.42 1082.3 131.42Z" fill="#8C68E4"/>
<path d="M1023.45 229.78H770.18C762.675 229.78 756.59 235.864 756.59 243.37V246.28C756.59 253.785 762.675 259.87 770.18 259.87H1023.45C1030.96 259.87 1037.04 253.785 1037.04 246.28V243.37C1037.04 235.864 1030.96 229.78 1023.45 229.78Z" fill="#FFFF7C"/>
<path d="M1023.45 309.29H770.18C762.675 309.29 756.59 315.374 756.59 322.88V325.79C756.59 333.296 762.675 339.38 770.18 339.38H1023.45C1030.96 339.38 1037.04 333.296 1037.04 325.79V322.88C1037.04 315.374 1030.96 309.29 1023.45 309.29Z" fill="#FFFF7C"/>
<path d="M783.98 757.69H591.98C584.475 757.69 578.39 763.774 578.39 771.28V774.19C578.39 781.695 584.475 787.78 591.98 787.78H783.98C791.486 787.78 797.57 781.695 797.57 774.19V771.28C797.57 763.774 791.486 757.69 783.98 757.69Z" fill="white"/>
<path d="M783.98 837.21H591.98C584.475 837.21 578.39 843.294 578.39 850.8V853.71C578.39 861.216 584.475 867.3 591.98 867.3H783.98C791.486 867.3 797.57 861.216 797.57 853.71V850.8C797.57 843.294 791.486 837.21 783.98 837.21Z" fill="white"/>
<path d="M783.98 916.72H591.98C584.475 916.72 578.39 922.804 578.39 930.31V933.22C578.39 940.725 584.475 946.81 591.98 946.81H783.98C791.486 946.81 797.57 940.725 797.57 933.22V930.31C797.57 922.804 791.486 916.72 783.98 916.72Z" fill="white"/>
<path d="M687.36 356.58H633.91L620.77 388.13H589.44L662.17 220.55H663.92L736.65 388.13H699.85L687.36 356.58ZM676.84 329.85L661.29 290.67L645.08 329.88H676.84V329.85Z" fill="white"/>
<path d="M1026.37 420.16H589.05C583.163 420.16 578.39 424.933 578.39 430.82V708.51C578.39 714.398 583.163 719.17 589.05 719.17H1026.37C1032.26 719.17 1037.03 714.398 1037.03 708.51V430.82C1037.03 424.933 1032.26 420.16 1026.37 420.16Z" fill="white"/>
<path d="M1024.42 756.51H844.69C837.726 756.51 832.08 762.155 832.08 769.12V950.93C832.08 957.894 837.726 963.54 844.69 963.54H1024.42C1031.38 963.54 1037.03 957.894 1037.03 950.93V769.12C1037.03 762.155 1031.38 756.51 1024.42 756.51Z" fill="#FFFF7C"/>
<path d="M1023.75 770.41V949.64C1023.75 949.802 1023.69 949.957 1023.57 950.071C1023.46 950.186 1023.3 950.25 1023.14 950.25H845.98C845.815 950.25 845.658 950.184 845.542 950.068C845.425 949.952 845.36 949.794 845.36 949.63V770.41C845.36 770.248 845.424 770.093 845.539 769.978C845.653 769.864 845.808 769.8 845.97 769.8H1023.13C1023.29 769.8 1023.45 769.864 1023.56 769.978C1023.68 770.092 1023.75 770.247 1023.75 770.41V770.41Z" fill="white"/>
<path d="M846.04 950.26H1023.04C1023.13 950.26 1023.22 950.242 1023.3 950.208C1023.38 950.174 1023.46 950.124 1023.52 950.06C1023.58 949.997 1023.63 949.922 1023.67 949.84C1023.7 949.757 1023.72 949.669 1023.72 949.58V917.67L983.86 877.81C982.501 876.45 980.888 875.371 979.112 874.635C977.336 873.898 975.433 873.52 973.51 873.52C971.588 873.52 969.684 873.898 967.908 874.635C966.132 875.371 964.519 876.45 963.16 877.81L943.5 897.53L894.03 848.06C892.671 846.7 891.058 845.621 889.282 844.885C887.506 844.148 885.603 843.77 883.68 843.77C881.758 843.77 879.854 844.148 878.078 844.885C876.302 845.621 874.689 846.7 873.33 848.06L845.33 876.06V949.6C845.333 949.69 845.353 949.779 845.39 949.861C845.428 949.943 845.481 950.017 845.547 950.078C845.613 950.14 845.691 950.187 845.775 950.219C845.86 950.25 845.95 950.264 846.04 950.26Z" fill="#FFFF7C"/>
<path d="M949.06 853.38C960.349 853.38 969.5 844.229 969.5 832.94C969.5 821.651 960.349 812.5 949.06 812.5C937.771 812.5 928.62 821.651 928.62 832.94C928.62 844.229 937.771 853.38 949.06 853.38Z" fill="#FFFF7C"/>
<path d="M89.32 900.38L71.21 975.53L97.03 980.92L124.01 913.1L89.32 900.38Z" fill="white"/>
<path d="M97.03 983.42C96.8587 983.421 96.6878 983.404 96.52 983.37L70.7 977.97C70.3757 977.901 70.0684 977.769 69.7958 977.58C69.5232 977.392 69.2908 977.151 69.1121 976.872C68.9334 976.593 68.8121 976.281 68.755 975.954C68.698 975.628 68.7065 975.293 68.78 974.97L86.89 899.82C86.9728 899.477 87.127 899.156 87.3425 898.878C87.5581 898.599 87.8301 898.369 88.1407 898.203C88.4514 898.037 88.7936 897.938 89.1451 897.913C89.4965 897.889 89.8492 897.939 90.18 898.06L124.86 910.78C125.173 910.895 125.46 911.072 125.704 911.3C125.948 911.528 126.144 911.802 126.28 912.107C126.416 912.412 126.489 912.741 126.496 913.074C126.503 913.408 126.443 913.74 126.32 914.05L99.32 981.87C99.1331 982.325 98.8161 982.715 98.4088 982.99C98.0015 983.266 97.5218 983.415 97.03 983.42V983.42ZM74.24 973.6L95.48 978.04L120.73 914.56L91.1 903.67L74.24 973.6Z" fill="#262424"/>
<path d="M178.34 1046.05V1056.84H45.77C45.77 1056.84 45.77 1051.75 46.2 1043.73C47.2 1024.56 50.76 988.6 62.73 965.5H111.67C111.67 965.5 124.67 1003.8 166.42 1026.18C169.669 1027.92 172.443 1030.43 174.499 1033.49C176.556 1036.55 177.834 1040.06 178.22 1043.73C178.299 1044.5 178.339 1045.28 178.34 1046.05V1046.05Z" fill="#8C68E4"/>
<path d="M178.34 1046.05V1056.84H45.77C45.77 1056.84 45.77 1051.75 46.2 1043.73H178.2C178.286 1044.5 178.332 1045.27 178.34 1046.05Z" fill="white"/>
<path d="M178.34 1059.35H45.77C45.107 1059.35 44.4711 1059.09 44.0022 1058.62C43.5334 1058.15 43.27 1057.51 43.27 1056.85C43.27 1056.64 43.27 1051.6 43.71 1043.61C43.7434 1042.97 44.0214 1042.37 44.4867 1041.93C44.9519 1041.48 45.5689 1041.24 46.21 1041.24H178.21C178.83 1041.24 179.428 1041.47 179.889 1041.88C180.349 1042.3 180.638 1042.87 180.7 1043.49C180.786 1044.34 180.83 1045.2 180.83 1046.06V1056.85C180.83 1057.51 180.568 1058.15 180.101 1058.61C179.635 1059.08 179.001 1059.35 178.34 1059.35ZM48.34 1054.35H175.84V1046.24H48.58C48.42 1049.67 48.34 1052.5 48.31 1054.35H48.34Z" fill="#262424"/>
<path d="M199.32 779.54C198.9 782.75 194.59 794.21 188.47 809.37C171.31 851.95 139.85 923.73 139.85 923.73L77.1201 900.93L117.04 758.36C117.04 758.36 80.3801 644.3 76.3001 612.53C72.2201 580.76 86.9001 531.07 86.9001 531.07C112.97 456.07 170.81 468.34 178.95 509.07C185.55 542.07 195.88 690.82 198.71 752.82C199.38 767.43 199.63 777.22 199.32 779.54Z" fill="#8C68E4"/>
<path d="M153.41 769.67C153.211 769.67 153.013 769.646 152.82 769.6L123 762.37C122.675 762.299 122.367 762.164 122.095 761.972C121.823 761.781 121.591 761.537 121.415 761.255C121.238 760.973 121.119 760.658 121.066 760.33C121.012 760.002 121.025 759.666 121.102 759.342C121.18 759.019 121.322 758.714 121.519 758.446C121.716 758.178 121.965 757.952 122.251 757.781C122.537 757.61 122.854 757.498 123.183 757.452C123.513 757.405 123.848 757.425 124.17 757.51L153.99 764.67C154.653 764.747 155.258 765.084 155.673 765.607C156.087 766.13 156.277 766.797 156.2 767.46C156.123 768.123 155.786 768.728 155.263 769.143C154.74 769.557 154.073 769.747 153.41 769.67V769.67Z" fill="#262424"/>
<path d="M124.5 903.45C124.093 903.45 123.692 903.351 123.332 903.161C122.972 902.971 122.664 902.696 122.434 902.36C122.205 902.024 122.061 901.637 122.015 901.233C121.969 900.828 122.022 900.419 122.17 900.04L171.74 773.33L162.1 642.61C162.051 641.947 162.267 641.291 162.701 640.788C163.136 640.284 163.752 639.974 164.415 639.925C165.078 639.876 165.733 640.092 166.237 640.526C166.741 640.96 167.051 641.577 167.1 642.24L176.78 773.53C176.805 773.901 176.747 774.274 176.61 774.62L126.83 901.86C126.647 902.329 126.326 902.731 125.911 903.015C125.495 903.298 125.003 903.45 124.5 903.45Z" fill="#262424"/>
<path d="M92.93 572.12C92.93 572.12 90.76 581.66 89.03 605.5C94.6752 613.916 102.07 621.014 110.71 626.31C110.71 626.31 120.71 621.97 137.16 612L141.93 576.88C141.93 576.88 109.41 570.39 92.93 572.12Z" fill="white"/>
<path d="M199.32 779.54C198.9 782.75 194.59 794.21 188.47 809.37C181.25 803.72 176.47 794.26 176.47 783.54C176.47 768.32 186.02 755.63 198.66 752.82C199.38 767.43 199.63 777.22 199.32 779.54Z" fill="white"/>
<path d="M78.9201 876.49L154.06 906.16L136.72 943.16L70.0601 916.57L78.9201 876.49Z" fill="white"/>
<path d="M136.72 945.67C136.401 945.67 136.086 945.609 135.79 945.49L69.12 918.9C68.5703 918.679 68.1168 918.271 67.8402 917.747C67.5637 917.223 67.4821 916.618 67.61 916.04L76.47 875.96C76.5475 875.606 76.7009 875.274 76.9196 874.985C77.1383 874.697 77.417 874.459 77.7366 874.289C78.0561 874.118 78.4088 874.02 78.7702 873.999C79.1317 873.979 79.4933 874.037 79.83 874.17L154.98 903.84C155.298 903.965 155.588 904.154 155.83 904.395C156.073 904.636 156.263 904.924 156.39 905.242C156.516 905.56 156.576 905.9 156.566 906.242C156.556 906.584 156.475 906.92 156.33 907.23L138.99 944.23C138.788 944.661 138.467 945.026 138.065 945.281C137.663 945.536 137.196 945.671 136.72 945.67V945.67ZM72.95 915.04L135.5 939.96L150.71 907.51L80.76 879.89L72.95 915.04Z" fill="#262424"/>
<path d="M258.5 901.82L250.44 978.7L276.74 980.65L294.56 909.87L258.5 901.82Z" fill="white"/>
<path d="M276.74 983.15H276.55L250.24 981.15C249.907 981.125 249.582 981.034 249.284 980.881C248.987 980.728 248.723 980.517 248.509 980.261C248.295 980.005 248.134 979.708 248.036 979.388C247.938 979.068 247.906 978.733 247.94 978.4L256.01 901.52C256.047 901.173 256.157 900.837 256.332 900.534C256.507 900.232 256.743 899.97 257.026 899.764C257.309 899.559 257.631 899.415 257.973 899.342C258.315 899.269 258.668 899.268 259.01 899.34L295.06 907.34C295.386 907.413 295.694 907.55 295.966 907.744C296.238 907.938 296.468 908.184 296.644 908.468C296.819 908.753 296.936 909.069 296.986 909.399C297.037 909.729 297.021 910.066 296.94 910.39L279.12 981.17C279.003 981.719 278.705 982.214 278.273 982.573C277.842 982.932 277.301 983.135 276.74 983.15ZM253.19 976.4L274.83 978.01L291.5 911.75L260.69 904.88L253.19 976.4Z" fill="#262424"/>
<path d="M357.89 1046.05V1056.84H225.32C225.32 1056.84 225.32 1051.75 225.75 1043.73C226.75 1024.56 230.31 988.6 242.28 965.5H291.22C291.22 965.5 304.22 1003.8 345.97 1026.18C349.219 1027.92 351.993 1030.43 354.049 1033.49C356.106 1036.55 357.384 1040.06 357.77 1043.73C357.849 1044.5 357.889 1045.28 357.89 1046.05V1046.05Z" fill="#8C68E4"/>
<path d="M357.89 1046.05V1056.84H225.32C225.32 1056.84 225.32 1051.75 225.75 1043.73H357.75C357.836 1044.5 357.883 1045.27 357.89 1046.05V1046.05Z" fill="white"/>
<path d="M357.89 1059.35H225.32C224.657 1059.35 224.021 1059.09 223.552 1058.62C223.083 1058.15 222.82 1057.51 222.82 1056.85C222.82 1056.64 222.82 1051.6 223.26 1043.61C223.293 1042.97 223.571 1042.37 224.037 1041.93C224.502 1041.48 225.119 1041.24 225.76 1041.24H357.76C358.38 1041.24 358.979 1041.47 359.439 1041.88C359.899 1042.3 360.188 1042.87 360.25 1043.49C360.336 1044.34 360.38 1045.19 360.38 1046.05V1056.84C360.381 1057.17 360.318 1057.49 360.194 1057.8C360.069 1058.1 359.886 1058.38 359.655 1058.61C359.424 1058.84 359.149 1059.03 358.846 1059.16C358.543 1059.28 358.218 1059.35 357.89 1059.35V1059.35ZM227.89 1054.35H355.39V1046.24H228.13C227.96 1049.67 227.89 1052.5 227.85 1054.35H227.89Z" fill="#262424"/>
<path d="M335.08 771.77C335.17 775.01 332.7 787 329.08 802.93C318.79 847.67 298.94 923.49 298.94 923.49L233.41 910.78L250.5 763.67C250.5 763.67 179.9 646.98 170.9 616.24C161.9 585.5 169.79 531.8 169.79 531.8C183.79 453.69 258.24 468.86 272.66 507.8C284.34 539.35 317.8 684.67 330.3 745.48C333.24 759.8 335.02 769.42 335.08 771.77Z" fill="#8C68E4"/>
<path d="M188.83 658.01C188.373 658.011 187.924 657.887 187.533 657.65C187.141 657.414 186.822 657.075 186.61 656.67C176.82 637.92 170.73 624.55 168.5 616.94C159.5 586.03 166.99 533.65 167.32 531.44C167.417 530.784 167.77 530.193 168.303 529.797C168.836 529.401 169.504 529.233 170.16 529.33C170.817 529.427 171.408 529.78 171.803 530.313C172.199 530.846 172.367 531.514 172.27 532.17C172.19 532.7 164.57 585.69 173.27 615.54C175.41 622.84 181.37 635.9 191.01 654.36C191.206 654.738 191.302 655.16 191.289 655.586C191.277 656.011 191.155 656.427 190.937 656.792C190.718 657.158 190.41 657.462 190.042 657.675C189.673 657.888 189.256 658.003 188.83 658.01V658.01Z" fill="#262424"/>
<path d="M287.79 769.19H287.59L257.01 766.75C256.347 766.697 255.732 766.383 255.301 765.877C254.869 765.37 254.657 764.713 254.71 764.05C254.763 763.387 255.077 762.772 255.584 762.341C256.09 761.91 256.747 761.697 257.41 761.75L287.99 764.19C288.653 764.217 289.278 764.506 289.728 764.993C290.178 765.481 290.416 766.127 290.39 766.79C290.363 767.453 290.075 768.079 289.587 768.529C289.099 768.979 288.453 769.217 287.79 769.19V769.19Z" fill="#262424"/>
<path d="M280.17 905.88C279.988 905.879 279.807 905.859 279.63 905.82C279.307 905.75 279 905.617 278.729 905.428C278.457 905.239 278.226 904.998 278.049 904.719C277.871 904.44 277.75 904.128 277.694 903.802C277.638 903.476 277.646 903.143 277.72 902.82L306.86 769.92L254.77 556.42C254.612 555.776 254.717 555.095 255.061 554.528C255.405 553.96 255.961 553.553 256.605 553.395C257.25 553.237 257.93 553.342 258.498 553.686C259.065 554.03 259.472 554.586 259.63 555.23L311.85 769.29C311.936 769.662 311.936 770.048 311.85 770.42L282.58 903.88C282.466 904.438 282.165 904.941 281.727 905.304C281.289 905.668 280.739 905.871 280.17 905.88V905.88Z" fill="#262424"/>
<path d="M267.75 601.57C267.242 601.568 266.747 601.412 266.33 601.122C265.913 600.832 265.595 600.422 265.417 599.947C265.238 599.471 265.209 598.953 265.333 598.46C265.457 597.968 265.728 597.525 266.11 597.19L271.05 592.89C272.197 591.894 273.036 590.592 273.47 589.136C273.904 587.681 273.914 586.131 273.5 584.67L266.83 561.74C266.644 561.104 266.719 560.419 267.038 559.838C267.357 559.257 267.893 558.826 268.53 558.64C269.166 558.454 269.851 558.529 270.432 558.848C271.013 559.167 271.444 559.704 271.63 560.34L278.3 583.27C278.983 585.65 278.972 588.175 278.269 590.549C277.565 592.923 276.199 595.046 274.33 596.67L269.39 600.97C268.934 601.361 268.351 601.575 267.75 601.57V601.57Z" fill="#262424"/>
<path d="M195.67 581.92C195.67 581.92 196.91 593.3 198.93 617.12C205.822 624.552 214.237 630.409 223.6 634.29C223.6 634.29 232.77 628.45 247.48 616.02L246.79 584.84C246.79 584.84 217.29 578.67 195.67 581.92Z" fill="white"/>
<path d="M335.08 771.77C335.17 775.01 332.7 787 329.08 802.93C321.08 798.48 314.91 789.88 313.23 779.29C310.85 764.29 318.3 750.23 330.35 745.48C333.24 759.8 335.02 769.42 335.08 771.77Z" fill="white"/>
<path d="M231.32 886.35L310.18 903.91L298.83 943.16L228.83 927.32L231.32 886.35Z" fill="white"/>
<path d="M298.84 945.67C298.655 945.67 298.47 945.65 298.29 945.61L228.29 929.77C227.712 929.638 227.2 929.306 226.844 928.831C226.489 928.357 226.314 927.772 226.35 927.18L228.84 886.18C228.863 885.823 228.962 885.475 229.13 885.159C229.299 884.844 229.534 884.568 229.818 884.351C230.102 884.134 230.43 883.981 230.779 883.901C231.128 883.821 231.489 883.818 231.84 883.89L310.7 901.45C311.033 901.524 311.347 901.665 311.623 901.865C311.899 902.066 312.132 902.32 312.306 902.613C312.48 902.906 312.593 903.232 312.636 903.57C312.68 903.909 312.654 904.252 312.56 904.58L301.22 943.83C301.077 944.353 300.767 944.816 300.338 945.148C299.908 945.48 299.383 945.663 298.84 945.67V945.67ZM231.5 925.35L297.13 940.2L307.13 905.77L233.73 889.43L231.5 925.35Z" fill="#262424"/>
<path d="M167.58 339.1L122.2 351.83L137.68 311.06L104.31 308.06C104.31 308.06 56.3801 361.45 59.4101 391.19C62.4401 420.93 112.71 421.19 170.35 413.31C227.99 405.43 167.58 339.1 167.58 339.1Z" fill="white"/>
<path d="M116.08 420.16C92.27 420.16 76.17 416.45 66.65 408.97C63.8956 406.881 61.6075 404.24 59.932 401.216C58.2566 398.193 57.2307 394.852 56.92 391.41C53.81 360.93 100.46 308.58 102.45 306.41C102.71 306.119 103.035 305.894 103.398 305.752C103.761 305.609 104.152 305.554 104.54 305.59L137.91 308.59C138.294 308.625 138.665 308.748 138.994 308.95C139.323 309.152 139.6 309.428 139.805 309.755C140.009 310.083 140.135 310.453 140.172 310.837C140.21 311.221 140.157 311.609 140.02 311.97L126.3 348.09L166.91 336.67C167.356 336.545 167.827 336.546 168.272 336.673C168.717 336.8 169.118 337.048 169.43 337.39C170.88 338.98 204.79 376.56 196.43 399.62C193.25 408.4 184.59 413.82 170.69 415.72C149.23 418.67 131.12 420.16 116.08 420.16ZM105.35 310.67C99.07 317.87 59.23 364.74 61.9 390.94C62.1366 393.717 62.9583 396.413 64.3113 398.85C65.6643 401.287 67.5178 403.41 69.75 405.08C83.94 416.24 116.75 418.08 170.02 410.83C181.93 409.2 189.24 404.83 191.74 397.98C198.34 379.77 172.29 348.35 166.74 341.98L122.87 354.29C122.426 354.411 121.957 354.408 121.514 354.279C121.072 354.151 120.674 353.903 120.363 353.563C120.053 353.222 119.843 352.803 119.756 352.351C119.669 351.898 119.708 351.431 119.87 351L134.18 313.31L105.35 310.67Z" fill="#262424"/>
<path d="M588.41 626.25L606.97 652.9L576.31 641.9C579.06 640.17 586.18 634.92 588.41 626.25Z" fill="#262424"/>
<path d="M482.95 606.85L508.72 577.85L508.85 577.68L530.14 545.24L586.77 626.56C584.67 633.74 579.03 638.32 576.11 640.28L482.95 606.85Z" fill="white"/>
<path d="M576.11 642.75C575.823 642.748 575.539 642.697 575.27 642.6L482.11 609.2C481.729 609.058 481.389 608.826 481.119 608.524C480.848 608.221 480.655 607.857 480.557 607.463C480.458 607.07 480.457 606.658 480.553 606.263C480.65 605.869 480.841 605.504 481.11 605.2L506.83 576.2L528.08 543.82C528.304 543.477 528.61 543.195 528.969 542.998C529.328 542.801 529.73 542.695 530.14 542.69C530.55 542.681 530.955 542.774 531.32 542.961C531.685 543.148 531.998 543.422 532.23 543.76L588.86 625.08C589.074 625.386 589.216 625.737 589.277 626.105C589.337 626.474 589.314 626.851 589.21 627.21C586.91 635.07 580.91 640.04 577.54 642.3C577.121 642.593 576.621 642.75 576.11 642.75ZM487.28 605.75L575.74 637.46C579.458 634.826 582.333 631.172 584.02 626.94L530.21 549.67L510.95 579.02C510.845 579.182 510.728 579.335 510.6 579.48L487.28 605.75Z" fill="#262424"/>
<path d="M530.18 547.88L585.12 626.77C583.12 632.71 578.45 636.77 575.88 638.56L485.5 606.19L509.8 578.82C509.895 578.71 509.982 578.593 510.06 578.47L530.13 547.88H530.18ZM530.06 542.52L507.55 576.82L480.31 607.51L576.26 641.91C579.01 640.17 586.13 634.91 588.36 626.25L530.06 542.53V542.52Z" fill="#262424"/>
<path d="M136.5 240.49L527.66 539.98C534.43 545.17 534.56 557.14 529.04 570.17C524.087 581.541 516.436 591.533 506.75 599.28C495.61 608.01 484.02 611.01 477.25 605.82L86.0701 306.33C89.3801 308.86 97.6401 302.54 106.6 292.92C114.895 283.911 122.356 274.168 128.89 263.81C135.84 252.67 139.79 243.02 136.5 240.49Z" fill="#8C68E4"/>
<path d="M502.86 598.79C502.311 598.792 501.777 598.613 501.34 598.28L114.05 301.77C113.787 301.573 113.566 301.326 113.399 301.044C113.232 300.761 113.122 300.449 113.075 300.124C112.981 299.467 113.152 298.8 113.55 298.27C113.948 297.74 114.54 297.389 115.196 297.295C115.853 297.201 116.52 297.372 117.05 297.77L504.34 594.27C504.767 594.581 505.084 595.02 505.246 595.522C505.408 596.025 505.407 596.566 505.243 597.068C505.079 597.57 504.76 598.007 504.331 598.316C503.903 598.626 503.388 598.792 502.86 598.79V598.79Z" fill="#262424"/>
<path d="M526.04 570.36C525.491 570.362 524.957 570.183 524.52 569.85L136 272.4C135.737 272.203 135.516 271.956 135.349 271.674C135.182 271.391 135.072 271.078 135.025 270.753C134.979 270.428 134.997 270.097 135.078 269.779C135.16 269.461 135.303 269.163 135.5 268.9C135.697 268.637 135.944 268.416 136.226 268.249C136.509 268.081 136.821 267.971 137.146 267.925C137.471 267.879 137.802 267.897 138.12 267.978C138.438 268.06 138.737 268.203 139 268.4L527.56 565.88C527.973 566.198 528.276 566.638 528.427 567.137C528.578 567.636 528.569 568.169 528.401 568.663C528.234 569.157 527.916 569.586 527.493 569.89C527.069 570.194 526.561 570.359 526.04 570.36V570.36Z" fill="#262424"/>
<path d="M102.05 214.13L136.5 240.49C146.01 247.77 142.43 268.41 128.5 286.59C114.57 304.77 95.5899 313.59 86.0799 306.33L51.6399 279.97C61.1499 287.25 80.1399 278.41 94.0599 260.23C107.98 242.05 111.56 221.41 102.05 214.13Z" fill="#FFFF7C"/>
<path d="M67.63 187.78L102.05 214.13C111.56 221.41 107.98 242.05 94.05 260.23C80.12 278.41 61.15 287.23 51.63 279.97L17.21 253.62C26.72 260.9 45.71 252.06 59.63 233.88C73.55 215.7 77.13 195.05 67.63 187.78Z" fill="white"/>
<path d="M59.85 285.03C56.3549 285.122 52.9296 284.041 50.12 281.96L15.7 255.6C15.1695 255.202 14.8189 254.61 14.7251 253.954C14.6313 253.297 14.8021 252.631 15.2 252.1C15.5978 251.57 16.19 251.219 16.8464 251.125C17.5028 251.032 18.1695 251.202 18.7 251.6C22.52 254.53 28.55 254.31 35.7 251C43.35 247.44 51.14 240.81 57.63 232.33C70.47 215.56 74.34 196.06 66.1 189.74C65.8373 189.543 65.616 189.296 65.4488 189.014C65.2815 188.731 65.1715 188.419 65.1251 188.094C65.0313 187.437 65.2021 186.771 65.6 186.24C65.9978 185.71 66.59 185.359 67.2464 185.265C67.9028 185.172 68.5695 185.342 69.1 185.74L103.51 212.09C108.89 216.2 110.92 223.8 109.25 233.47C107.67 242.57 102.96 252.59 95.99 261.7C84.85 276.38 70.75 285.03 59.85 285.03ZM27.77 258.55L53.16 277.99C61.42 284.31 79.23 275.48 92.07 258.72C98.56 250.24 102.93 240.99 104.38 232.72C105.72 224.97 104.38 219.1 100.53 216.17L75.14 196.67C76.81 207.12 72.03 221.79 61.62 235.39C54.62 244.5 46.2 251.66 37.83 255.55C34.6624 257.091 31.2643 258.105 27.77 258.55V258.55Z" fill="#262424"/>
<path d="M59.6322 233.896C73.5524 215.716 77.1302 195.076 67.6233 187.797C58.1164 180.518 39.125 189.356 25.2048 207.536C11.2846 225.717 7.70684 246.356 17.2137 253.635C26.7206 260.914 45.712 252.077 59.6322 233.896Z" fill="white"/>
<path d="M25.4001 258.67C21.9146 258.759 18.4998 257.678 15.7001 255.6C10.3301 251.49 8.29009 243.9 9.97009 234.23C11.5501 225.13 16.2501 215.11 23.2301 206C38.2301 186.42 58.3901 177.54 69.1601 185.79C79.9301 194.03 76.6201 215.79 61.6301 235.4C54.6301 244.51 46.2101 251.67 37.8401 255.56C33.9673 257.485 29.7229 258.546 25.4001 258.67V258.67ZM59.4001 187.67C50.2301 187.67 37.1801 195.92 27.1701 209C20.6801 217.48 16.3101 226.73 14.8701 235C13.5301 242.75 14.8701 248.62 18.7201 251.55C22.5701 254.48 28.5701 254.26 35.7201 250.95C43.3701 247.39 51.1601 240.76 57.6501 232.28C70.4901 215.51 74.3601 196 66.1101 189.68C64.1657 188.284 61.8116 187.577 59.4201 187.67H59.4001Z" fill="#262424"/>
<path d="M254.72 309.48C224.51 313.38 137.72 343.22 137.72 343.22C137.72 343.22 118.91 392.37 161.38 419.06C161.38 419.06 234.19 401.46 260.89 388.72C287.59 375.98 309.26 302.45 254.72 309.48Z" fill="#FFFF7C"/>
<path d="M292.98 310.23L311.26 283.44L329.38 288.18L317.88 321.89L292.98 310.23Z" fill="white"/>
<path d="M317.88 324.39C317.513 324.388 317.152 324.306 316.82 324.15L291.92 312.49C291.593 312.336 291.303 312.112 291.071 311.835C290.838 311.558 290.669 311.234 290.574 310.885C290.478 310.536 290.46 310.171 290.52 309.814C290.58 309.458 290.716 309.118 290.92 308.82L309.2 282.03C309.492 281.605 309.908 281.281 310.392 281.102C310.875 280.923 311.402 280.898 311.9 281.03L330.02 285.78C330.353 285.867 330.664 286.022 330.934 286.235C331.204 286.448 331.427 286.714 331.589 287.017C331.752 287.321 331.85 287.654 331.877 287.997C331.905 288.34 331.862 288.684 331.75 289.01L320.25 322.67C320.086 323.169 319.769 323.604 319.343 323.913C318.918 324.222 318.406 324.389 317.88 324.39V324.39ZM296.7 309.21L316.42 318.44L326.16 289.91L312.34 286.29L296.7 309.21Z" fill="#262424"/>
<path d="M319.44 282.57C319.11 286.39 327.64 316.93 348.13 313.15C368.62 309.37 378.71 266.5 369.25 255.78C359.79 245.06 323.86 230.87 319.44 282.57Z" fill="white"/>
<path d="M344.63 315.97C339.295 315.905 334.188 313.797 330.36 310.08C320.91 301.51 316.65 285.95 316.96 282.35L319.45 282.56L316.96 282.35C319.22 255.86 329.68 247 338.06 244.24C350.93 239.99 365.4 247.62 371.13 254.12C377.48 261.31 375.85 277.67 371.65 289.83C366.65 304.43 358.2 313.83 348.59 315.6C347.284 315.844 345.959 315.968 344.63 315.97V315.97ZM321.94 282.77C321.83 284.92 325.54 299.19 333.99 306.62C338.1 310.23 342.71 311.62 347.68 310.68C355.35 309.26 362.54 300.86 366.92 288.19C371.3 275.52 371.48 262.06 367.38 257.42C362.38 251.71 349.89 245.6 339.63 248.98C329.66 252.28 323.5 263.96 321.93 282.78L321.94 282.77Z" fill="#262424"/>
<path d="M307.78 284.46C313.057 288.934 319.518 291.783 326.38 292.66L334.58 285.73C334.58 285.73 329.58 266.19 339.58 263.35C349.58 260.51 353.45 272.81 350.58 281.63C347.71 290.45 375.8 290.77 381.47 276.9C387.14 263.03 374.22 252.31 374.22 252.31C374.22 252.31 369.81 232.77 341.75 233.08C313.69 233.39 304 257.67 307.78 284.46Z" fill="#262424"/>
<path d="M274.06 309.6C274.06 309.6 292.06 298.25 309.68 306.76C327.3 315.27 326.07 332.29 326.07 332.29L274.06 309.6Z" fill="white"/>
<path d="M326.08 334.8C325.736 334.8 325.395 334.728 325.08 334.59L273.08 311.89C272.663 311.708 272.303 311.416 272.04 311.045C271.776 310.674 271.619 310.238 271.585 309.784C271.551 309.331 271.642 308.876 271.847 308.47C272.052 308.064 272.365 307.722 272.75 307.48C273.53 306.99 292.1 295.48 310.75 304.48C329.75 313.63 328.6 331.69 328.55 332.48C328.505 333.106 328.226 333.692 327.768 334.122C327.311 334.552 326.708 334.794 326.08 334.8V334.8ZM279.96 309.45L323.37 328.39C322.65 323.39 319.75 314.39 308.6 309.02C297.45 303.65 286.08 306.86 279.96 309.44V309.45Z" fill="#262424"/>
<path d="M78.75 535.96C78.75 535.96 182.21 531.89 296.26 584.84C296.26 584.84 300.33 506.63 301.96 478.93C301.96 478.93 342.69 457.75 346.77 451.23C350.85 444.71 341.07 351.84 336.99 335.55C332.91 319.26 285.67 302.96 254.71 309.48C223.75 316 142.3 368.95 78.75 535.96Z" fill="#FFFF7C"/>
<path d="M150.5 400.17C150.036 400.17 149.581 400.041 149.186 399.797C148.791 399.553 148.472 399.203 148.264 398.788C148.056 398.373 147.968 397.908 148.01 397.445C148.052 396.983 148.221 396.541 148.5 396.17C190.26 337.98 231.55 311.76 254.22 306.99C254.549 306.902 254.893 306.882 255.23 306.932C255.567 306.982 255.891 307.1 256.181 307.279C256.47 307.459 256.72 307.695 256.915 307.975C257.11 308.254 257.246 308.57 257.315 308.904C257.383 309.238 257.382 309.583 257.312 309.916C257.243 310.25 257.106 310.566 256.91 310.844C256.713 311.123 256.462 311.359 256.172 311.537C255.881 311.715 255.557 311.832 255.22 311.88C233.44 316.52 193.5 342.11 152.5 399.13C152.271 399.448 151.971 399.708 151.624 399.888C151.276 400.069 150.892 400.165 150.5 400.17Z" fill="#262424"/>
<path d="M289.5 574.07C289.061 574.069 288.629 573.951 288.25 573.73C209.66 528.1 92.15 526.84 90.97 526.84C90.3069 526.84 89.6711 526.576 89.2022 526.108C88.7334 525.639 88.47 525.003 88.47 524.34C88.47 523.677 88.7334 523.041 89.2022 522.572C89.6711 522.103 90.3069 521.84 90.97 521.84C92.16 521.84 210.97 523.12 290.72 569.41C291.192 569.685 291.561 570.107 291.771 570.611C291.98 571.116 292.019 571.675 291.88 572.203C291.742 572.732 291.434 573.2 291.004 573.537C290.575 573.874 290.046 574.062 289.5 574.07V574.07Z" fill="#262424"/>
<path d="M306.98 237.67C306.98 237.67 298.5 204.93 269.5 209.03C240.5 213.13 233.88 248.12 235.5 271.44C237.12 294.76 215.01 298.55 201.14 299.18C187.27 299.81 181.28 349.93 232.35 345.83C283.42 341.73 282.15 296.34 283.73 273.33C285.31 250.32 294.45 244.64 305.8 248.11C317.15 251.58 306.98 237.67 306.98 237.67Z" fill="#262424"/>
<path d="M306.76 239.03L301.09 246.97C300.659 247.571 300.481 248.316 300.593 249.047C300.705 249.778 301.099 250.436 301.69 250.88L307.88 255.54C308.189 255.773 308.543 255.94 308.92 256.031C309.296 256.121 309.687 256.134 310.069 256.067C310.45 256.001 310.814 255.857 311.138 255.644C311.461 255.431 311.738 255.154 311.95 254.83L317.5 246.36C317.907 245.74 318.054 244.985 317.91 244.257C317.766 243.53 317.342 242.888 316.73 242.47L310.66 238.34C310.049 237.922 309.298 237.76 308.569 237.889C307.84 238.018 307.191 238.428 306.76 239.03V239.03Z" fill="white"/>
<path d="M309.59 258.61C308.432 258.61 307.306 258.235 306.38 257.54L300.19 252.88C299.072 252.048 298.326 250.81 298.115 249.432C297.903 248.055 298.243 246.649 299.06 245.52L304.73 237.58C305.544 236.452 306.765 235.684 308.135 235.44C309.505 235.195 310.916 235.493 312.07 236.27L318.14 240.4C319.29 241.191 320.086 242.4 320.358 243.769C320.631 245.138 320.359 246.559 319.6 247.73L314.05 256.2C313.65 256.809 313.129 257.33 312.52 257.731C311.912 258.131 311.228 258.403 310.51 258.53C310.206 258.584 309.898 258.61 309.59 258.61V258.61ZM309.06 240.34C309.007 240.34 308.955 240.353 308.908 240.377C308.861 240.402 308.82 240.437 308.79 240.48L303.12 248.42C303.068 248.491 303.047 248.578 303.06 248.665C303.073 248.751 303.12 248.828 303.19 248.88L309.38 253.54C309.416 253.568 309.457 253.589 309.502 253.6C309.546 253.611 309.592 253.613 309.637 253.606C309.683 253.598 309.726 253.581 309.764 253.556C309.802 253.531 309.835 253.499 309.86 253.46L315.41 244.99C315.434 244.954 315.451 244.914 315.46 244.871C315.469 244.828 315.469 244.784 315.461 244.741C315.452 244.699 315.436 244.658 315.411 244.622C315.387 244.585 315.356 244.554 315.32 244.53L309.25 240.4C309.197 240.363 309.134 240.342 309.07 240.34H309.06Z" fill="#262424"/>
<path d="M506 569.93C505.367 570.515 504.567 570.888 503.711 570.996C502.856 571.103 501.988 570.94 501.23 570.53L494.5 566.85C496.11 572.29 497.2 576.6 497.5 578.13C498.29 582.87 499.58 614.02 494.87 616.13C490.16 618.24 481.42 590.67 481.42 590.67C481.42 590.67 483.52 608.5 481.42 610.08C479.32 611.66 450.42 600.08 446.79 595.39C443.16 590.7 437.88 568.63 437.88 564.97C437.88 561.31 438.75 538.51 438.75 538.51C438.75 538.51 372.14 504.45 365.84 498.67C359.54 492.89 317.58 427.33 301.84 393.23C286.1 359.13 294.41 308.56 329.84 324.66C361.94 339.24 411.97 459.66 411.97 459.66C411.97 459.66 473.56 524.41 480.67 533.1C482.12 534.87 506.23 564.1 506.23 564.1C506.971 564.904 507.364 565.97 507.321 567.063C507.277 568.156 506.803 569.187 506 569.93V569.93Z" fill="white"/>
<path d="M494.28 618.73C493.683 618.727 493.093 618.598 492.55 618.35C489.93 617.17 487.17 612.35 484.77 606.97C484.44 610.97 483.47 611.71 482.92 612.12C482.02 612.8 480.13 614.21 463.75 607.45C458.98 605.45 447.58 600.51 444.82 596.97C440.82 591.77 435.38 569.14 435.38 564.97C435.38 561.82 436 545.29 436.2 539.97C424.86 534.15 370.2 505.97 364.2 500.45C357.36 494.18 315.05 427.65 299.62 394.22C288.28 369.66 289.44 338.11 302.15 325.33C307.15 320.28 316.25 315.66 330.94 322.33C362.94 336.85 410.34 449.11 414.16 458.25C419.47 463.83 475.77 523.06 482.66 531.49C484.07 533.21 507.16 561.2 508.18 562.44C509.325 563.735 509.92 565.425 509.84 567.152C509.759 568.879 509.01 570.506 507.75 571.69C506.73 572.615 505.452 573.206 504.086 573.385C502.721 573.564 501.334 573.321 500.11 572.69L498.57 571.85C499.27 574.46 499.78 576.58 499.97 577.68C500.663 584.47 500.923 591.297 500.75 598.12C500.44 614.12 498.23 617.32 495.89 618.36C495.387 618.6 494.837 618.726 494.28 618.73ZM481.43 588.2C481.961 588.201 482.478 588.371 482.906 588.686C483.334 589 483.651 589.443 483.81 589.95C487.23 600.81 491.65 610.86 494 613.3C496.31 608.3 496 584.84 495 578.53C494.77 577.16 493.71 572.94 492.11 567.53C491.972 567.056 491.976 566.552 492.124 566.081C492.271 565.61 492.555 565.194 492.939 564.883C493.322 564.573 493.789 564.384 494.281 564.339C494.772 564.293 495.266 564.395 495.7 564.63L502.44 568.3C502.741 568.452 503.082 568.511 503.417 568.468C503.752 568.425 504.067 568.283 504.32 568.06C504.627 567.768 504.809 567.367 504.826 566.943C504.842 566.519 504.693 566.105 504.41 565.79L504.33 565.7C504.09 565.41 480.2 536.45 478.76 534.7C471.76 526.18 410.76 462.05 410.19 461.4C409.978 461.179 409.809 460.922 409.69 460.64C409.19 459.44 359.69 340.94 328.84 326.93C319.14 322.52 311.34 323.19 305.67 328.93C294.49 340.18 293.77 369.75 304.13 392.2C320.06 426.73 362.13 491.85 367.54 496.84C371.98 500.9 413.25 522.68 439.91 536.32C440.334 536.537 440.688 536.87 440.929 537.281C441.169 537.692 441.288 538.164 441.27 538.64C441.27 538.87 440.4 561.42 440.4 565C440.4 568.23 445.57 589.75 448.79 593.88C451.4 597.24 473.67 606.61 479.73 607.66C480.12 604.8 479.73 597.29 478.96 590.99C478.919 590.641 478.952 590.288 479.057 589.953C479.162 589.619 479.336 589.309 479.568 589.046C479.8 588.783 480.085 588.572 480.404 588.426C480.723 588.28 481.069 588.203 481.42 588.2H481.43Z" fill="#262424"/>
<path d="M335.34 464.55C335.34 464.55 356.78 476.21 378.59 462.29C400.4 448.37 397.77 423.55 397.77 423.55C397.77 423.55 362.77 340.81 336.84 326.14C310.91 311.47 290.66 323.76 289.53 354.6C288.05 395.26 335.34 464.55 335.34 464.55Z" fill="#FFFF7C"/>
<path d="M350.12 457.43C345.298 457.453 340.498 456.758 335.88 455.37C335.322 455.108 334.88 454.649 334.64 454.081C334.4 453.513 334.378 452.876 334.579 452.293C334.78 451.71 335.19 451.221 335.729 450.922C336.268 450.622 336.899 450.533 337.5 450.67C337.78 450.76 356.2 456.67 370.78 446.33C386.16 435.37 384.5 417.58 384.5 417.41C384.431 416.747 384.628 416.084 385.048 415.566C385.468 415.049 386.077 414.719 386.74 414.65C387.403 414.581 388.066 414.779 388.584 415.199C389.102 415.619 389.431 416.227 389.5 416.89C389.59 417.74 391.5 437.79 373.7 450.37C366.77 455.129 358.524 457.598 350.12 457.43V457.43Z" fill="#262424"/>
<path d="M329.28 457.67C328.857 457.67 328.44 457.563 328.069 457.359C327.698 457.154 327.385 456.859 327.16 456.5C314.7 436.61 285.85 386.84 287.04 354.5C287.49 342.11 290.97 332.13 297.04 325.63C297.265 325.391 297.535 325.199 297.835 325.064C298.134 324.929 298.458 324.855 298.786 324.845C299.114 324.836 299.441 324.891 299.748 325.007C300.055 325.124 300.336 325.3 300.575 325.525C300.814 325.75 301.006 326.02 301.141 326.32C301.276 326.619 301.35 326.942 301.36 327.271C301.369 327.599 301.314 327.926 301.198 328.233C301.081 328.54 300.905 328.821 300.68 329.06C295.4 334.67 292.4 343.53 291.99 354.69C290.86 385.69 319.14 434.35 331.35 453.85C331.583 454.225 331.713 454.654 331.726 455.096C331.739 455.537 331.636 455.974 331.425 456.362C331.215 456.75 330.906 457.075 330.529 457.305C330.152 457.535 329.721 457.661 329.28 457.67V457.67Z" fill="#262424"/>
<path d="M142.68 52.76C142.017 52.76 141.381 52.4966 140.912 52.0278C140.443 51.5589 140.18 50.923 140.18 50.26V38.98C140.18 38.3169 140.443 37.6811 140.912 37.2122C141.381 36.7434 142.017 36.48 142.68 36.48C143.343 36.48 143.979 36.7434 144.448 37.2122C144.917 37.6811 145.18 38.3169 145.18 38.98V50.26C145.18 50.923 144.917 51.5589 144.448 52.0278C143.979 52.4966 143.343 52.76 142.68 52.76V52.76Z" fill="#262424"/>
<path d="M159.7 58.5H148.41C147.747 58.5 147.111 58.2366 146.642 57.7678C146.173 57.2989 145.91 56.663 145.91 56C145.91 55.337 146.173 54.7011 146.642 54.2322C147.111 53.7634 147.747 53.5 148.41 53.5H159.7C160.363 53.5 160.999 53.7634 161.468 54.2322C161.937 54.7011 162.2 55.337 162.2 56C162.2 56.663 161.937 57.2989 161.468 57.7678C160.999 58.2366 160.363 58.5 159.7 58.5V58.5Z" fill="#262424"/>
<path d="M142.68 75.52C142.017 75.52 141.381 75.2566 140.912 74.7878C140.443 74.3189 140.18 73.683 140.18 73.02V61.73C140.18 61.0669 140.443 60.4311 140.912 59.9622C141.381 59.4934 142.017 59.23 142.68 59.23C143.343 59.23 143.979 59.4934 144.448 59.9622C144.917 60.4311 145.18 61.0669 145.18 61.73V73.01C145.181 73.3391 145.118 73.6653 144.993 73.9698C144.867 74.2742 144.684 74.551 144.451 74.7842C144.219 75.0174 143.943 75.2025 143.639 75.3287C143.335 75.455 143.009 75.52 142.68 75.52Z" fill="#262424"/>
<path d="M136.94 58.5H125.66C124.997 58.5 124.361 58.2366 123.892 57.7678C123.423 57.2989 123.16 56.663 123.16 56C123.16 55.337 123.423 54.7011 123.892 54.2322C124.361 53.7634 124.997 53.5 125.66 53.5H136.94C137.603 53.5 138.239 53.7634 138.708 54.2322C139.177 54.7011 139.44 55.337 139.44 56C139.44 56.663 139.177 57.2989 138.708 57.7678C138.239 58.2366 137.603 58.5 136.94 58.5V58.5Z" fill="#262424"/>
<path d="M1198.5 886.19C1197.84 886.19 1197.2 885.927 1196.73 885.458C1196.26 884.989 1196 884.353 1196 883.69V872.41C1196 871.747 1196.26 871.111 1196.73 870.642C1197.2 870.174 1197.84 869.91 1198.5 869.91C1199.16 869.91 1199.8 870.174 1200.27 870.642C1200.74 871.111 1201 871.747 1201 872.41V883.67C1201 884 1200.94 884.327 1200.82 884.633C1200.69 884.939 1200.51 885.217 1200.27 885.451C1200.04 885.685 1199.77 885.871 1199.46 885.998C1199.16 886.125 1198.83 886.19 1198.5 886.19V886.19Z" fill="#262424"/>
<path d="M1215.5 891.93H1204.2C1203.54 891.93 1202.9 891.666 1202.43 891.197C1201.96 890.729 1201.7 890.093 1201.7 889.43C1201.7 888.767 1201.96 888.131 1202.43 887.662C1202.9 887.193 1203.54 886.93 1204.2 886.93H1215.5C1216.16 886.93 1216.8 887.193 1217.27 887.662C1217.74 888.131 1218 888.767 1218 889.43C1218 890.093 1217.74 890.729 1217.27 891.197C1216.8 891.666 1216.16 891.93 1215.5 891.93Z" fill="#262424"/>
<path d="M1198.5 908.95C1197.84 908.95 1197.2 908.686 1196.73 908.218C1196.26 907.749 1196 907.113 1196 906.45V895.17C1196 894.507 1196.26 893.871 1196.73 893.402C1197.2 892.933 1197.84 892.67 1198.5 892.67C1199.16 892.67 1199.8 892.933 1200.27 893.402C1200.74 893.871 1201 894.507 1201 895.17V906.45C1201 907.113 1200.74 907.749 1200.27 908.218C1199.8 908.686 1199.16 908.95 1198.5 908.95Z" fill="#262424"/>
<path d="M1192.73 891.93H1181.45C1180.79 891.93 1180.15 891.666 1179.68 891.197C1179.21 890.729 1178.95 890.093 1178.95 889.43C1178.95 888.767 1179.21 888.131 1179.68 887.662C1180.15 887.193 1180.79 886.93 1181.45 886.93H1192.73C1193.39 886.93 1194.03 887.193 1194.5 887.662C1194.97 888.131 1195.23 888.767 1195.23 889.43C1195.23 890.093 1194.97 890.729 1194.5 891.197C1194.03 891.666 1193.39 891.93 1192.73 891.93Z" fill="#262424"/>
<path d="M164.71 191.95C167.482 191.95 169.73 189.703 169.73 186.93C169.73 184.158 167.482 181.91 164.71 181.91C161.937 181.91 159.69 184.158 159.69 186.93C159.69 189.703 161.937 191.95 164.71 191.95Z" fill="#87BFC1"/>
<path d="M1143.85 826.07C1148.74 826.07 1152.71 822.103 1152.71 817.21C1152.71 812.316 1148.74 808.35 1143.85 808.35C1138.96 808.35 1134.99 812.316 1134.99 817.21C1134.99 822.103 1138.96 826.07 1143.85 826.07Z" fill="#FFFF7C"/>
</svg>
