<svg width="1391" height="1195" viewBox="0 0 1391 1195" fill="none" xmlns="http://www.w3.org/2000/svg">
<path d="M1074.89 786.17H979.053L909.183 630.17H919.473L961.123 723.17L963.503 728.48C964.016 729.624 964.849 730.595 965.901 731.276C966.953 731.957 968.18 732.32 969.433 732.32H979.553C980.637 732.32 981.703 732.049 982.655 731.531C983.607 731.013 984.414 730.265 985.003 729.355C985.591 728.446 985.942 727.403 986.025 726.323C986.107 725.242 985.917 724.158 985.473 723.17L943.823 630.17H1005.04L1074.89 786.17Z" fill="white"/>
<path d="M1074.89 788.67H979.053C978.571 788.669 978.099 788.529 977.695 788.267C977.29 788.004 976.97 787.63 976.773 787.19L906.903 631.17C906.733 630.789 906.661 630.372 906.693 629.957C906.725 629.541 906.861 629.141 907.088 628.791C907.314 628.441 907.624 628.153 907.99 627.954C908.357 627.755 908.767 627.65 909.183 627.65H919.473C919.956 627.65 920.427 627.79 920.832 628.053C921.237 628.316 921.557 628.69 921.753 629.13L965.753 727.45C966.07 728.153 966.582 728.75 967.23 729.169C967.877 729.588 968.632 729.81 969.403 729.81H979.523C980.189 729.808 980.844 729.639 981.428 729.32C982.013 729.001 982.508 728.541 982.87 727.982C983.231 727.423 983.447 726.782 983.499 726.118C983.55 725.454 983.435 724.788 983.163 724.18L941.473 631.17C941.303 630.789 941.231 630.372 941.263 629.957C941.295 629.541 941.431 629.141 941.658 628.791C941.884 628.441 942.194 628.153 942.56 627.954C942.927 627.755 943.337 627.65 943.753 627.65H1004.97C1005.46 627.65 1005.93 627.79 1006.33 628.053C1006.74 628.316 1007.06 628.69 1007.25 629.13L1077.12 785.13C1077.3 785.507 1077.37 785.922 1077.34 786.336C1077.32 786.751 1077.19 787.152 1076.97 787.503C1076.74 787.854 1076.44 788.145 1076.08 788.349C1075.72 788.552 1075.31 788.663 1074.89 788.67ZM980.673 783.67H1071.03L1003.4 632.67H947.663L987.733 722.17C988.345 723.539 988.604 725.039 988.489 726.534C988.373 728.029 987.886 729.471 987.071 730.73C986.257 731.989 985.14 733.024 983.824 733.742C982.508 734.459 981.033 734.837 979.533 734.84H969.413C967.678 734.839 965.979 734.337 964.522 733.393C963.066 732.449 961.913 731.104 961.203 729.52L917.833 632.68H913.043L980.673 783.67Z" fill="#262424"/>
<path d="M1050.23 786.17H954.383L884.523 630.17H919.453L920.573 632.67H944.923L943.803 630.17H980.363L1050.23 786.17Z" fill="white"/>
<path d="M1052.47 785.17L982.603 629.17C982.408 628.729 982.088 628.354 981.683 628.091C981.278 627.829 980.806 627.689 980.323 627.69H884.473C884.057 627.69 883.647 627.795 883.281 627.994C882.915 628.193 882.604 628.481 882.378 628.831C882.151 629.181 882.015 629.581 881.983 629.997C881.951 630.412 882.023 630.829 882.193 631.21L952.053 787.21C952.249 787.651 952.569 788.026 952.974 788.289C953.378 788.551 953.851 788.691 954.333 788.69H1050.18C1050.6 788.691 1051.01 788.588 1051.38 788.389C1051.75 788.191 1052.06 787.903 1052.29 787.553C1052.51 787.203 1052.65 786.802 1052.68 786.385C1052.72 785.969 1052.64 785.551 1052.47 785.17V785.17ZM955.963 783.69L888.343 632.69H978.703L1046.33 783.69H955.963V783.69Z" fill="#262424"/>
<path d="M1098.71 780.5H792.723C784.621 780.5 778.053 787.066 778.053 795.165C778.053 803.264 784.621 809.83 792.723 809.83H1098.71C1106.82 809.83 1113.38 803.264 1113.38 795.165C1113.38 787.066 1106.82 780.5 1098.71 780.5Z" fill="white"/>
<path d="M1098.72 812.34H792.723C788.243 812.232 783.982 810.376 780.851 807.169C777.72 803.962 775.968 799.657 775.968 795.175C775.968 790.693 777.72 786.389 780.851 783.182C783.982 779.974 788.243 778.118 792.723 778.01H1098.72C1103.2 778.118 1107.46 779.974 1110.6 783.182C1113.73 786.389 1115.48 790.693 1115.48 795.175C1115.48 799.657 1113.73 803.962 1110.6 807.169C1107.46 810.376 1103.2 812.232 1098.72 812.34V812.34ZM792.723 783.01C789.557 783.101 786.552 784.422 784.344 786.694C782.137 788.965 780.902 792.008 780.902 795.175C780.902 798.343 782.137 801.385 784.344 803.656C786.552 805.928 789.557 807.249 792.723 807.34H1098.72C1101.89 807.249 1104.9 805.928 1107.1 803.656C1109.31 801.385 1110.54 798.343 1110.54 795.175C1110.54 792.008 1109.31 788.965 1107.1 786.694C1104.9 784.422 1101.89 783.101 1098.72 783.01H792.723Z" fill="#262424"/>
<path d="M1098.71 780.5H952.553C944.451 780.5 937.883 787.066 937.883 795.165C937.883 803.264 944.451 809.83 952.553 809.83H1098.71C1106.82 809.83 1113.38 803.264 1113.38 795.165C1113.38 787.066 1106.82 780.5 1098.71 780.5Z" fill="white"/>
<path d="M1098.72 812.34H952.553C948.073 812.232 943.812 810.376 940.681 807.169C937.55 803.962 935.798 799.657 935.798 795.175C935.798 790.693 937.55 786.389 940.681 783.182C943.812 779.974 948.073 778.118 952.553 778.01H1098.72C1103.2 778.118 1107.46 779.974 1110.6 783.182C1113.73 786.389 1115.48 790.693 1115.48 795.175C1115.48 799.657 1113.73 803.962 1110.6 807.169C1107.46 810.376 1103.2 812.232 1098.72 812.34V812.34ZM952.553 783.01C949.387 783.101 946.382 784.422 944.174 786.694C941.967 788.965 940.732 792.008 940.732 795.175C940.732 798.343 941.967 801.385 944.174 803.656C946.382 805.928 949.387 807.249 952.553 807.34H1098.72C1101.89 807.249 1104.9 805.928 1107.1 803.656C1109.31 801.385 1110.54 798.343 1110.54 795.175C1110.54 792.008 1109.31 788.965 1107.1 786.694C1104.9 784.422 1101.89 783.101 1098.72 783.01H952.553Z" fill="#262424"/>
<path d="M1297.84 110.79H581.203C569.103 110.79 559.293 120.599 559.293 132.7V613.85C559.293 625.951 569.103 635.76 581.203 635.76H1297.84C1309.94 635.76 1319.75 625.951 1319.75 613.85V132.7C1319.75 120.599 1309.94 110.79 1297.84 110.79Z" fill="white"/>
<path d="M1297.84 638.26H581.203C574.732 638.252 568.528 635.678 563.952 631.102C559.376 626.526 556.801 620.322 556.793 613.85V132.7C556.801 126.229 559.376 120.024 563.952 115.448C568.528 110.872 574.732 108.298 581.203 108.29H1297.84C1304.31 108.298 1310.52 110.872 1315.1 115.448C1319.67 120.024 1322.25 126.229 1322.25 132.7V613.85C1322.25 620.322 1319.67 626.526 1315.1 631.102C1310.52 635.678 1304.31 638.252 1297.84 638.26V638.26ZM581.203 113.26C576.057 113.265 571.123 115.312 567.484 118.951C563.845 122.59 561.799 127.524 561.793 132.67V613.85C561.801 618.995 563.849 623.928 567.487 627.566C571.126 631.205 576.058 633.252 581.203 633.26H1297.84C1302.99 633.252 1307.92 631.205 1311.56 627.566C1315.2 623.928 1317.25 618.995 1317.25 613.85V132.7C1317.25 127.555 1315.2 122.622 1311.56 118.984C1307.92 115.346 1302.99 113.298 1297.84 113.29H581.203V113.26Z" fill="#262424"/>
<path d="M1276.19 110.79H559.553C547.453 110.79 537.643 120.599 537.643 132.7V613.85C537.643 625.951 547.453 635.76 559.553 635.76H1276.19C1288.29 635.76 1298.1 625.951 1298.1 613.85V132.7C1298.1 120.599 1288.29 110.79 1276.19 110.79Z" fill="white"/>
<path d="M1276.19 638.26H559.553C553.082 638.252 546.878 635.678 542.302 631.102C537.726 626.526 535.151 620.322 535.143 613.85V132.7C535.151 126.229 537.726 120.024 542.302 115.448C546.878 110.872 553.082 108.298 559.553 108.29H1276.19C1282.66 108.298 1288.87 110.872 1293.45 115.448C1298.02 120.024 1300.6 126.229 1300.6 132.7V613.85C1300.6 620.322 1298.02 626.526 1293.45 631.102C1288.87 635.678 1282.66 638.252 1276.19 638.26V638.26ZM559.553 113.26C554.407 113.265 549.473 115.312 545.834 118.951C542.195 122.59 540.149 127.524 540.143 132.67V613.85C540.151 618.995 542.199 623.928 545.837 627.566C549.476 631.205 554.408 633.252 559.553 633.26H1276.19C1281.34 633.252 1286.27 631.205 1289.91 627.566C1293.55 623.928 1295.6 618.995 1295.6 613.85V132.7C1295.6 127.555 1293.55 122.622 1289.91 118.984C1286.27 115.346 1281.34 113.298 1276.19 113.29H559.553V113.26Z" fill="#262424"/>
<path d="M1267.19 135.79H568.553C565.289 135.79 562.643 138.436 562.643 141.7V604.85C562.643 608.114 565.289 610.76 568.553 610.76H1267.19C1270.46 610.76 1273.1 608.114 1273.1 604.85V141.7C1273.1 138.436 1270.46 135.79 1267.19 135.79Z" fill="white"/>
<path d="M1267.19 613.26H568.553C566.324 613.257 564.186 612.37 562.609 610.794C561.033 609.217 560.146 607.08 560.143 604.85V141.7C560.146 139.47 561.033 137.333 562.609 135.756C564.186 134.18 566.324 133.293 568.553 133.29H1267.19C1269.42 133.293 1271.56 134.18 1273.14 135.756C1274.71 137.333 1275.6 139.47 1275.6 141.7V604.85C1275.6 607.08 1274.71 609.217 1273.14 610.794C1271.56 612.37 1269.42 613.257 1267.19 613.26V613.26ZM568.553 138.26C567.649 138.26 566.782 138.619 566.142 139.259C565.503 139.898 565.143 140.766 565.143 141.67V604.85C565.143 605.754 565.503 606.622 566.142 607.261C566.782 607.901 567.649 608.26 568.553 608.26H1267.19C1268.1 608.26 1268.97 607.901 1269.6 607.261C1270.24 606.622 1270.6 605.754 1270.6 604.85V141.7C1270.6 140.796 1270.24 139.928 1269.6 139.289C1268.97 138.649 1268.1 138.29 1267.19 138.29H568.553V138.26Z" fill="#262424"/>
<path d="M1273.1 541.17V604.85C1273.1 606.417 1272.48 607.918 1271.37 609.026C1270.26 610.134 1268.76 610.757 1267.19 610.76H568.553C566.987 610.757 565.485 610.134 564.377 609.026C563.269 607.918 562.646 606.417 562.643 604.85V541.17H1273.1Z" fill="white"/>
<path d="M1267.19 613.26H568.553C566.324 613.257 564.186 612.37 562.609 610.794C561.033 609.217 560.146 607.08 560.143 604.85V541.17C560.143 540.507 560.407 539.871 560.876 539.402C561.344 538.933 561.98 538.67 562.643 538.67H1273.1C1273.77 538.67 1274.4 538.933 1274.87 539.402C1275.34 539.871 1275.6 540.507 1275.6 541.17V604.85C1275.6 607.08 1274.71 609.217 1273.14 610.794C1271.56 612.37 1269.42 613.257 1267.19 613.26V613.26ZM565.193 543.67V604.85C565.193 605.754 565.553 606.622 566.192 607.261C566.832 607.901 567.699 608.26 568.603 608.26H1267.24C1268.15 608.26 1269.02 607.901 1269.65 607.261C1270.29 606.622 1270.65 605.754 1270.65 604.85V543.67H565.143H565.193Z" fill="#262424"/>
<path d="M1273.1 141.7V167.17H562.643V141.7C562.643 140.133 563.266 138.629 564.374 137.521C565.483 136.413 566.986 135.79 568.553 135.79H1267.19C1267.97 135.79 1268.74 135.943 1269.46 136.24C1270.17 136.537 1270.82 136.972 1271.37 137.521C1271.92 138.07 1272.36 138.721 1272.65 139.438C1272.95 140.155 1273.1 140.924 1273.1 141.7Z" fill="white"/>
<path d="M1273.1 169.67H562.643C561.98 169.67 561.344 169.407 560.876 168.938C560.407 168.469 560.143 167.833 560.143 167.17V141.7C560.146 139.47 561.033 137.333 562.609 135.756C564.186 134.18 566.324 133.293 568.553 133.29H1267.19C1269.42 133.293 1271.56 134.18 1273.14 135.756C1274.71 137.333 1275.6 139.47 1275.6 141.7V167.17C1275.6 167.833 1275.34 168.469 1274.87 168.938C1274.4 169.407 1273.77 169.67 1273.1 169.67ZM565.103 164.67H1270.56V141.67C1270.56 140.766 1270.2 139.898 1269.56 139.259C1268.93 138.619 1268.06 138.26 1267.15 138.26H568.553C567.649 138.26 566.782 138.619 566.142 139.259C565.503 139.898 565.143 140.766 565.143 141.67V164.67H565.103Z" fill="#262424"/>
<path d="M1273.1 167.17V604.85C1273.1 606.417 1272.48 607.918 1271.37 609.026C1270.26 610.134 1268.76 610.757 1267.19 610.76H1067.11V167.17H1273.11H1273.1Z" fill="white"/>
<path d="M1267.19 613.26H1067.11C1066.45 613.26 1065.81 612.997 1065.35 612.528C1064.88 612.059 1064.61 611.423 1064.61 610.76V167.17C1064.61 166.507 1064.88 165.871 1065.35 165.402C1065.81 164.933 1066.45 164.67 1067.11 164.67H1273.11C1273.78 164.67 1274.41 164.933 1274.88 165.402C1275.35 165.871 1275.61 166.507 1275.61 167.17V604.85C1275.61 607.081 1274.72 609.22 1273.14 610.797C1271.56 612.374 1269.42 613.26 1267.19 613.26V613.26ZM1069.61 608.26H1267.19C1268.1 608.26 1268.97 607.901 1269.6 607.261C1270.24 606.622 1270.6 605.754 1270.6 604.85V169.67H1069.6V608.26H1069.61Z" fill="#262424"/>
<path d="M1232.44 191.84H1107.77C1102.8 191.84 1098.77 195.87 1098.77 200.84V436.17C1098.77 441.141 1102.8 445.17 1107.77 445.17H1232.44C1237.41 445.17 1241.44 441.141 1241.44 436.17V200.84C1241.44 195.87 1237.41 191.84 1232.44 191.84Z" fill="#FFFF7C"/>
<path d="M1232.44 505.75H1107.77C1102.8 505.75 1098.77 509.779 1098.77 514.75C1098.77 519.721 1102.8 523.75 1107.77 523.75H1232.44C1237.41 523.75 1241.44 519.721 1241.44 514.75C1241.44 509.779 1237.41 505.75 1232.44 505.75Z" fill="#8C68E4"/>
<path d="M1232.44 538.59H1107.77C1102.8 538.59 1098.77 542.619 1098.77 547.59C1098.77 552.56 1102.8 556.59 1107.77 556.59H1232.44C1237.41 556.59 1241.44 552.56 1241.44 547.59C1241.44 542.619 1237.41 538.59 1232.44 538.59Z" fill="#8C68E4"/>
<path d="M1067.11 531.17H562.643V551.17H1067.11V531.17Z" fill="white"/>
<path d="M1067.11 553.67H562.643C561.98 553.67 561.344 553.407 560.876 552.938C560.407 552.469 560.143 551.833 560.143 551.17V531.17C560.143 530.507 560.407 529.871 560.876 529.402C561.344 528.933 561.98 528.67 562.643 528.67H1067.11C1067.78 528.67 1068.41 528.933 1068.88 529.402C1069.35 529.871 1069.61 530.507 1069.61 531.17V551.17C1069.61 551.833 1069.35 552.469 1068.88 552.938C1068.41 553.407 1067.78 553.67 1067.11 553.67ZM565.113 548.67H1064.58V533.67H565.143V548.67H565.113Z" fill="#262424"/>
<path d="M768.053 526.67H861.713C862.477 526.67 863.21 526.973 863.75 527.513C864.29 528.054 864.593 528.786 864.593 529.55V552.8C864.593 553.562 864.291 554.293 863.753 554.833C863.215 555.373 862.485 555.677 861.723 555.68H768.053C767.292 555.68 766.562 555.378 766.024 554.839C765.486 554.301 765.183 553.571 765.183 552.81V529.55C765.183 528.788 765.485 528.057 766.023 527.517C766.561 526.977 767.291 526.673 768.053 526.67V526.67Z" fill="#8C68E4"/>
<path d="M959.003 467.17H882.983L849.653 412.59H780.093L746.763 467.17H670.743L776.863 293.4L814.873 231.17L852.883 293.4L814.873 355.64H890.893L925.673 412.59L959.003 467.17Z" fill="#8C68E4"/>
<path d="M250.853 1059.55L210.233 1125.19L191.973 1094.38L222.563 1036.83L250.853 1059.55Z" fill="white"/>
<path d="M210.234 1127.69C209.803 1127.69 209.38 1127.57 209.007 1127.35C208.634 1127.14 208.322 1126.83 208.104 1126.46L189.843 1095.64C189.624 1095.27 189.503 1094.85 189.493 1094.42C189.482 1093.99 189.582 1093.57 189.783 1093.19L220.373 1035.64C220.546 1035.32 220.788 1035.03 221.082 1034.81C221.376 1034.59 221.715 1034.44 222.075 1034.36C222.435 1034.29 222.807 1034.3 223.165 1034.38C223.522 1034.47 223.856 1034.63 224.144 1034.86L252.443 1057.58C252.918 1057.96 253.237 1058.5 253.34 1059.1C253.443 1059.7 253.323 1060.32 253.003 1060.84L212.384 1126.48C212.16 1126.85 211.845 1127.16 211.468 1127.37C211.091 1127.58 210.666 1127.69 210.234 1127.69ZM194.843 1094.31L210.283 1120.37L247.574 1060.12L223.354 1040.67L194.843 1094.31Z" fill="#262424"/>
<path d="M314.523 1155.62C310.723 1152.16 301.633 1145.99 298.203 1142.24C279.185 1121.47 262.089 1099.02 247.123 1075.17L189.693 1078.93C187.903 1117.17 188.693 1153.05 189.423 1173.82C189.843 1185.39 190.283 1192.27 190.283 1192.27H325.973V1179.09C325.973 1170.52 321.833 1162.28 314.523 1155.62Z" fill="#8C68E4"/>
<path d="M205.733 1148.02C210.654 1148.02 214.643 1140.81 214.643 1131.92C214.643 1123.03 210.654 1115.82 205.733 1115.82C200.813 1115.82 196.823 1123.03 196.823 1131.92C196.823 1140.81 200.813 1148.02 205.733 1148.02Z" fill="white"/>
<path d="M325.973 1179.09V1192.27H190.283C190.283 1192.27 189.843 1185.39 189.413 1173.82H305.803C305.803 1173.82 306.413 1158.89 302.803 1146.3C306.803 1149.58 311.963 1153.24 314.573 1155.62C321.833 1162.28 325.973 1170.52 325.973 1179.09Z" fill="white"/>
<path d="M325.973 1194.77H190.283C189.647 1194.77 189.034 1194.53 188.57 1194.09C188.105 1193.66 187.824 1193.06 187.783 1192.43C187.783 1192.36 187.333 1185.43 186.913 1173.91C186.901 1173.57 186.957 1173.24 187.077 1172.93C187.198 1172.61 187.38 1172.33 187.613 1172.08C187.846 1171.84 188.126 1171.65 188.436 1171.52C188.745 1171.39 189.077 1171.32 189.413 1171.32H303.343C303.343 1166.68 303.013 1156.12 300.343 1147C300.187 1146.48 300.202 1145.93 300.385 1145.43C300.567 1144.92 300.909 1144.48 301.359 1144.19C301.808 1143.89 302.342 1143.75 302.88 1143.78C303.417 1143.81 303.931 1144.01 304.343 1144.36C305.953 1145.67 307.753 1147.05 309.493 1148.36C312.113 1150.36 314.593 1152.27 316.223 1153.76C324.133 1160.97 328.493 1169.96 328.493 1179.08V1192.26C328.495 1192.59 328.43 1192.92 328.304 1193.22C328.178 1193.53 327.992 1193.81 327.758 1194.04C327.523 1194.27 327.245 1194.46 326.939 1194.58C326.632 1194.71 326.304 1194.77 325.973 1194.77V1194.77ZM192.643 1189.77H323.473V1179.09C323.473 1171.39 319.693 1163.72 312.843 1157.47C311.433 1156.18 309.183 1154.47 306.783 1152.61C307.99 1159.65 308.502 1166.79 308.313 1173.93C308.288 1174.58 308.013 1175.19 307.547 1175.63C307.081 1176.08 306.46 1176.33 305.813 1176.33H192.013C192.253 1182.54 192.473 1187.17 192.643 1189.77V1189.77Z" fill="#262424"/>
<path d="M375.474 959.43C374.547 960.497 373.57 961.537 372.544 962.55L259.354 1075.17L200.803 1047.84L276.144 914.5C276.144 914.5 180.143 778.5 174.803 751.84C169.463 725.18 160.144 592.5 225.474 592.5C290.804 592.5 301.803 679.84 301.803 679.84L383.333 883.77L386.993 892.93C391.409 903.996 392.669 916.069 390.636 927.809C388.602 939.548 383.354 950.494 375.474 959.43Z" fill="#8C68E4"/>
<path d="M246.803 693.42V733.17C246.804 735.306 246.244 737.405 245.181 739.258C244.118 741.11 242.588 742.652 240.743 743.73L217.303 757.44L193.863 743.73C192.019 742.652 190.489 741.11 189.426 739.258C188.363 737.405 187.803 735.306 187.803 733.17V693.42H246.803Z" fill="white"/>
<path d="M257.283 1040.67C256.819 1040.67 256.364 1040.54 255.969 1040.3C255.574 1040.05 255.255 1039.7 255.047 1039.29C254.84 1038.87 254.752 1038.41 254.794 1037.95C254.835 1037.48 255.005 1037.04 255.283 1036.67L343.983 917.57L271.653 732.57C271.412 731.952 271.426 731.264 271.692 730.656C271.959 730.048 272.456 729.571 273.073 729.33C273.691 729.089 274.38 729.103 274.988 729.369C275.595 729.635 276.072 730.132 276.313 730.75L349.143 917.03C349.298 917.424 349.349 917.852 349.293 918.271C349.237 918.691 349.076 919.09 348.823 919.43L259.293 1039.65C259.062 1039.97 258.759 1040.22 258.41 1040.4C258.061 1040.58 257.675 1040.67 257.283 1040.67V1040.67Z" fill="#262424"/>
<path d="M262.303 1063C261.933 1063 261.568 1062.92 261.233 1062.76L212.373 1039.68C211.84 1039.36 211.444 1038.86 211.261 1038.27C211.078 1037.68 211.122 1037.04 211.384 1036.47C211.645 1035.91 212.106 1035.47 212.677 1035.23C213.248 1034.99 213.888 1034.97 214.473 1035.17L263.333 1058.25C263.838 1058.49 264.247 1058.9 264.492 1059.41C264.738 1059.91 264.807 1060.48 264.688 1061.03C264.569 1061.58 264.269 1062.07 263.837 1062.43C263.404 1062.79 262.864 1062.99 262.303 1063V1063Z" fill="#262424"/>
<path d="M338.813 920.45H338.663L283.363 917.17C282.7 917.132 282.08 916.831 281.638 916.335C281.196 915.839 280.97 915.188 281.008 914.525C281.047 913.862 281.347 913.242 281.843 912.8C282.339 912.358 282.99 912.132 283.653 912.17L338.953 915.41C339.622 915.429 340.255 915.712 340.715 916.198C341.174 916.684 341.422 917.332 341.403 918C341.385 918.669 341.101 919.302 340.616 919.762C340.13 920.221 339.482 920.469 338.813 920.45V920.45Z" fill="#262424"/>
<path d="M375.473 959.43C365.183 952.43 358.213 938.98 358.213 923.5C358.213 904.37 368.873 888.29 383.283 883.77L386.943 892.93C391.365 903.992 392.634 916.062 390.609 927.802C388.584 939.541 383.345 950.489 375.473 959.43V959.43Z" fill="#8C68E4"/>
<path d="M729.493 1032.67L782.803 1088.5L748.473 1098.5L700.473 1054.42L729.493 1032.67Z" fill="white"/>
<path d="M748.473 1101C747.847 1101 747.244 1100.76 746.783 1100.34L698.783 1056.26C698.513 1056.01 698.301 1055.71 698.162 1055.37C698.022 1055.03 697.96 1054.66 697.978 1054.3C697.996 1053.93 698.094 1053.57 698.266 1053.25C698.439 1052.92 698.68 1052.64 698.973 1052.42L727.973 1030.67C728.462 1030.3 729.069 1030.13 729.68 1030.18C730.29 1030.23 730.86 1030.5 731.283 1030.94L784.593 1086.77C784.891 1087.08 785.103 1087.46 785.209 1087.88C785.316 1088.3 785.313 1088.73 785.202 1089.15C785.09 1089.56 784.873 1089.94 784.572 1090.25C784.271 1090.56 783.896 1090.78 783.483 1090.9L749.153 1100.9C748.932 1100.96 748.703 1101 748.473 1101ZM704.383 1054.61L749.123 1095.7L778.123 1087.24L729.193 1035.99L704.383 1054.61Z" fill="#262424"/>
<path d="M847.913 1155.62C844.113 1152.16 835.023 1145.99 831.593 1142.24C805.033 1113.24 783.453 1080.02 775.983 1068.07L723.073 1078.93C721.283 1117.17 722.073 1153.05 722.803 1173.82C723.223 1185.39 723.663 1192.27 723.663 1192.27H859.363V1179.09C859.363 1170.52 855.213 1162.28 847.913 1155.62Z" fill="#8C68E4"/>
<path d="M739.113 1148.02C744.034 1148.02 748.023 1140.81 748.023 1131.92C748.023 1123.03 744.034 1115.82 739.113 1115.82C734.193 1115.82 730.203 1123.03 730.203 1131.92C730.203 1140.81 734.193 1148.02 739.113 1148.02Z" fill="white"/>
<path d="M859.363 1179.09V1192.27H723.663C723.663 1192.27 723.663 1191.84 723.593 1191.01C723.523 1190.01 723.433 1188.33 723.333 1186.13C723.333 1185.69 723.333 1185.23 723.263 1184.74C723.193 1184.25 723.263 1183.74 723.193 1183.23C723.073 1180.6 722.933 1177.44 722.803 1173.82H839.193C839.193 1173.82 839.803 1158.9 836.193 1146.31C836.373 1146.46 836.553 1146.61 836.743 1146.75L836.963 1146.92C838.593 1148.23 840.353 1149.57 842.033 1150.85L842.623 1151.3L843.743 1152.17C845.403 1153.46 846.893 1154.65 847.963 1155.62C849.303 1156.84 850.563 1158.14 851.733 1159.52C854.854 1163.13 857.148 1167.38 858.453 1171.97C858.523 1172.23 858.593 1172.48 858.653 1172.75C858.773 1173.27 858.883 1173.79 858.983 1174.31C859.254 1175.89 859.382 1177.49 859.363 1179.09V1179.09Z" fill="white"/>
<path d="M859.363 1194.77H723.663C723.032 1194.77 722.425 1194.53 721.963 1194.1C721.501 1193.67 721.219 1193.08 721.173 1192.45C721.173 1192.45 721.173 1192 721.103 1191.13C721.033 1190.26 720.943 1188.47 720.843 1186.24V1186.02C720.843 1185.66 720.843 1185.28 720.783 1184.89V1184.58C720.783 1184.19 720.783 1183.78 720.723 1183.37C720.603 1180.7 720.463 1177.53 720.333 1173.9C720.321 1173.56 720.377 1173.23 720.497 1172.92C720.617 1172.6 720.8 1172.32 721.033 1172.07C721.266 1171.83 721.546 1171.64 721.855 1171.51C722.165 1171.38 722.497 1171.31 722.833 1171.31H836.723C836.723 1166.67 836.393 1156.12 833.723 1147C833.574 1146.49 833.593 1145.94 833.779 1145.44C833.964 1144.93 834.306 1144.5 834.754 1144.21C835.202 1143.92 835.732 1143.77 836.267 1143.81C836.801 1143.84 837.312 1144.04 837.723 1144.38L838.163 1144.73C838.243 1144.79 838.393 1144.9 838.523 1145.01C840.053 1146.24 841.773 1147.55 843.443 1148.82L844.053 1149.28L845.183 1150.16C847.293 1151.8 848.603 1152.87 849.573 1153.75C850.994 1155.04 852.331 1156.43 853.573 1157.89C856.933 1161.78 859.397 1166.36 860.793 1171.3V1171.42C860.863 1171.68 860.933 1171.93 860.993 1172.2C861.113 1172.73 861.233 1173.28 861.333 1173.83C861.649 1175.56 861.806 1177.32 861.803 1179.08V1192.26C861.806 1192.91 861.552 1193.54 861.096 1194.01C860.64 1194.48 860.018 1194.75 859.363 1194.77ZM726.023 1189.77H856.863V1179.09C856.864 1177.64 856.734 1176.19 856.473 1174.76C856.383 1174.29 856.283 1173.76 856.163 1173.31C856.163 1173.1 856.063 1172.92 856.023 1172.74V1172.62C854.801 1168.39 852.668 1164.48 849.773 1161.17C848.674 1159.87 847.491 1158.65 846.233 1157.5C845.133 1156.5 843.483 1155.2 842.163 1154.18L841.033 1153.3L840.443 1152.85L840.173 1152.64C841.38 1159.68 841.893 1166.82 841.703 1173.96C841.678 1174.61 841.403 1175.22 840.937 1175.66C840.471 1176.11 839.849 1176.36 839.203 1176.36H725.403C725.503 1178.9 725.603 1181.18 725.693 1183.16C725.693 1183.57 725.693 1184.01 725.753 1184.42V1184.67C725.753 1185.05 725.753 1185.45 725.813 1185.83V1186.05C725.903 1187.54 725.963 1188.8 726.023 1189.77Z" fill="#262424"/>
<path d="M737.473 1029.17L692.803 1068.5C692.803 1068.5 564.803 994.5 547.473 981.17C530.143 967.84 497.473 923.84 497.473 923.84C497.473 923.84 313.473 797.84 282.143 765.17C264.693 746.98 260.063 711.29 259.383 683.23C258.193 634.15 297.283 593.23 346.383 592.52H348.813C427.483 592.52 432.813 697.86 432.813 697.86L563.313 839.78L617.733 898.96L737.473 1029.17Z" fill="#8C68E4"/>
<path d="M351.633 823.17C351.1 823.169 350.582 822.998 350.153 822.68C313.153 795.4 289.653 776.68 280.343 766.93C262.543 748.38 257.803 712.47 256.953 685.61C256.943 685.282 256.997 684.955 257.113 684.647C257.229 684.34 257.404 684.058 257.629 683.819C257.854 683.579 258.123 683.386 258.423 683.251C258.722 683.116 259.045 683.041 259.373 683.03C259.702 683.02 260.029 683.074 260.336 683.19C260.644 683.306 260.925 683.481 261.165 683.706C261.404 683.93 261.597 684.2 261.733 684.5C261.868 684.799 261.943 685.122 261.953 685.45C262.773 711.45 267.253 746.06 283.953 763.45C293.073 772.96 316.343 791.53 353.123 818.63C353.56 818.939 353.885 819.379 354.053 819.887C354.22 820.394 354.221 820.942 354.054 821.45C353.888 821.958 353.563 822.399 353.127 822.708C352.691 823.018 352.168 823.18 351.633 823.17V823.17Z" fill="#262424"/>
<path d="M642.473 897.199C642.125 897.536 641.763 897.862 641.401 898.187C625.411 912.159 594.907 907.319 573.261 887.354C551.616 867.39 547.02 839.882 562.996 825.897C564.137 824.899 565.366 823.987 566.673 823.17L642.473 897.199Z" fill="#8C68E4"/>
<path d="M694.473 1035.17C693.945 1035.17 693.43 1035 693.004 1034.69L611.583 975.38C588.463 958.551 568.362 937.926 552.133 914.38L546.893 906.79L379.063 743.63C378.824 743.397 378.633 743.119 378.502 742.812C378.372 742.504 378.304 742.174 378.303 741.84V701.17C378.303 700.507 378.567 699.871 379.036 699.402C379.505 698.933 380.14 698.67 380.803 698.67C381.467 698.67 382.102 698.933 382.571 699.402C383.04 699.871 383.303 700.507 383.303 701.17V740.78L550.543 903.38C550.658 903.493 550.762 903.617 550.853 903.75L556.233 911.54C572.131 934.619 591.822 954.839 614.473 971.34L695.893 1030.65C696.316 1030.96 696.632 1031.39 696.796 1031.89C696.959 1032.38 696.963 1032.92 696.806 1033.42C696.65 1033.92 696.34 1034.36 695.922 1034.67C695.503 1034.98 694.997 1035.16 694.473 1035.17V1035.17Z" fill="#262424"/>
<path d="M685.973 1056.92C685.467 1056.92 684.971 1056.77 684.553 1056.48C684.135 1056.2 683.813 1055.79 683.631 1055.32C683.449 1054.85 683.415 1054.33 683.533 1053.84C683.651 1053.34 683.916 1052.9 684.293 1052.56L720.293 1020.06C720.536 1019.83 720.821 1019.65 721.133 1019.54C721.445 1019.42 721.777 1019.36 722.11 1019.38C722.443 1019.39 722.77 1019.47 723.071 1019.61C723.373 1019.75 723.644 1019.95 723.867 1020.2C724.09 1020.45 724.262 1020.74 724.372 1021.05C724.481 1021.37 724.527 1021.7 724.507 1022.03C724.486 1022.36 724.399 1022.69 724.25 1022.99C724.102 1023.29 723.896 1023.55 723.643 1023.77L687.643 1056.27C687.187 1056.69 686.591 1056.92 685.973 1056.92V1056.92Z" fill="#262424"/>
<path d="M355.473 693.42V733.17C355.473 735.306 354.914 737.405 353.851 739.258C352.788 741.11 351.258 742.652 349.413 743.73L325.973 757.42L302.533 743.71C300.692 742.634 299.164 741.095 298.101 739.246C297.038 737.397 296.477 735.303 296.473 733.17V693.42H355.473Z" fill="white"/>
<path d="M29.9734 571.42L4.72339 625.17L64.2234 643.42L66.2234 580.42L29.9734 571.42Z" fill="white"/>
<path d="M64.2233 645.92C63.9758 645.92 63.7298 645.883 63.4933 645.81L3.99329 627.56C3.65217 627.454 3.33778 627.276 3.07127 627.038C2.80475 626.8 2.59232 626.508 2.44829 626.181C2.30425 625.854 2.23195 625.5 2.23627 625.143C2.24058 624.785 2.3214 624.433 2.47329 624.11L27.7233 570.36C27.97 569.836 28.3911 569.414 28.9146 569.166C29.4381 568.918 30.0314 568.859 30.5933 569L66.8433 578C67.3997 578.137 67.8921 578.461 68.238 578.918C68.5839 579.375 68.7623 579.937 68.7433 580.51L66.7433 643.51C66.7199 644.161 66.4434 644.777 65.9728 645.227C65.5022 645.677 64.8745 645.926 64.2233 645.92ZM8.22329 623.63L61.8433 640.08L63.6733 582.37L31.3733 574.37L8.22329 623.63Z" fill="#262424"/>
<path d="M47.4733 604.98L27.9433 598.98C25.2117 598.135 22.2707 598.273 19.6298 599.369C16.9889 600.465 14.8145 602.45 13.4833 604.98L3.92331 623.11C3.11941 624.638 2.64771 626.319 2.53913 628.043C2.43056 629.766 2.68757 631.493 3.29331 633.11V633.11C3.93583 634.818 4.95162 636.36 6.2665 637.625C7.58137 638.889 9.16212 639.844 10.8933 640.42L35.4733 648.57C37.7884 649.34 40.2806 649.401 42.6305 648.745C44.9805 648.09 47.0811 646.747 48.6633 644.89L51.5533 641.5C53.1863 639.582 54.1885 637.208 54.4233 634.7L56.0033 617.83C56.2694 615.035 55.5673 612.233 54.0145 609.894C52.4617 607.555 50.1524 605.82 47.4733 604.98Z" fill="white"/>
<path d="M39.4034 651.7C37.8127 651.699 36.2325 651.443 34.7234 650.94L10.1034 642.76C8.07062 642.085 6.20919 640.976 4.64848 639.509C3.08777 638.042 1.86523 636.253 1.06584 634.266C0.266456 632.279 -0.0905968 630.142 0.0195019 628.003C0.129601 625.864 0.704215 623.774 1.70339 621.88L11.2634 603.75C12.87 600.707 15.4891 598.321 18.6681 597.005C21.847 595.688 25.386 595.524 28.6734 596.54L48.2034 602.54C51.4309 603.553 54.2145 605.641 56.0918 608.455C57.9691 611.269 58.8272 614.641 58.5234 618.01L56.9434 634.88C56.6624 637.898 55.4537 640.756 53.4834 643.06L50.5934 646.45C49.2217 648.085 47.51 649.402 45.5774 650.309C43.6449 651.216 41.538 651.69 39.4034 651.7V651.7ZM24.3234 600.88C22.548 600.88 20.8062 601.364 19.2855 602.28C17.7648 603.196 16.5229 604.51 15.6934 606.08L6.13339 624.17C5.47324 625.422 5.0936 626.803 5.02084 628.216C4.94809 629.63 5.18398 631.042 5.71211 632.355C6.24024 633.669 7.04794 634.851 8.07912 635.821C9.11029 636.79 10.3402 637.523 11.6834 637.97L36.3034 646.17C38.1458 646.788 40.1314 646.84 42.0034 646.317C43.8753 645.795 45.5474 644.723 46.8034 643.24L49.6934 639.85C50.994 638.325 51.7905 636.435 51.9734 634.44L53.5534 617.57C53.7564 615.342 53.1904 613.112 51.9496 611.251C50.7087 609.389 48.8679 608.009 46.7334 607.34V607.34L27.2034 601.34C26.272 601.043 25.301 600.888 24.3234 600.88V600.88Z" fill="#262424"/>
<path d="M61.9234 610.48C63.7414 610.896 65.3751 611.891 66.5782 613.316C67.7812 614.741 68.4885 616.518 68.5934 618.38L69.4734 634.71C69.6253 637.204 69.2295 639.702 68.3139 642.027C67.3984 644.352 65.9852 646.449 64.1734 648.17L60.3934 651.74C59.2498 652.819 57.8322 653.564 56.2948 653.894C54.7573 654.223 53.159 654.125 51.6734 653.61L50.6734 653.26C49.5813 652.886 48.5757 652.295 47.7167 651.524C46.8577 650.752 46.1628 649.816 45.6734 648.77L44.5534 646.38C43.5112 644.126 42.9714 641.673 42.9714 639.19C42.9714 636.707 43.5112 634.254 44.5534 632L52.2134 615.31C53.0313 613.512 54.4429 612.051 56.2111 611.172C57.9793 610.292 59.9964 610.048 61.9234 610.48V610.48Z" fill="white"/>
<path d="M54.4735 656.57C53.2307 656.569 51.997 656.359 50.8235 655.95L49.8235 655.6C48.4193 655.11 47.1272 654.345 46.023 653.349C44.9188 652.353 44.0248 651.146 43.3935 649.8L42.2735 647.41C41.0692 644.831 40.4409 642.022 40.4322 639.176C40.4236 636.33 41.0348 633.516 42.2235 630.93L49.8835 614.24C50.9528 611.92 52.7873 610.037 55.0794 608.908C57.3716 607.78 59.9821 607.473 62.4735 608.04V608.04C64.8146 608.585 66.9173 609.871 68.4686 611.707C70.02 613.543 70.9371 615.831 71.0835 618.23L72.0135 634.56C72.1792 637.417 71.7172 640.275 70.6599 642.934C69.6025 645.592 67.9756 647.987 65.8935 649.95L62.1135 653.52C60.0531 655.48 57.3174 656.573 54.4735 656.57V656.57ZM59.9835 612.77C58.8136 612.771 57.6685 613.107 56.6833 613.738C55.698 614.368 54.9139 615.268 54.4235 616.33L46.7635 633.02C45.8716 634.944 45.4096 637.039 45.4096 639.16C45.4096 641.281 45.8716 643.376 46.7635 645.3L47.8835 647.7C48.23 648.44 48.7208 649.103 49.3269 649.651C49.9331 650.199 50.6424 650.62 51.4135 650.89L52.4135 651.24C53.4679 651.608 54.6033 651.679 55.6952 651.444C56.7872 651.21 57.7934 650.679 58.6035 649.91L62.3835 646.34C63.9356 644.878 65.1483 643.093 65.9362 641.111C66.724 639.129 67.0678 636.999 66.9435 634.87L66.0135 618.54C65.9336 617.222 65.43 615.964 64.5777 614.955C63.7254 613.946 62.57 613.239 61.2835 612.94C60.8678 612.835 60.442 612.775 60.0135 612.76L59.9835 612.77Z" fill="#262424"/>
<path d="M66.2234 580.42L74.5934 618.42C74.9759 620.159 74.8905 621.968 74.346 623.664C73.8014 625.359 72.8171 626.879 71.4934 628.07V628.07C70.1555 629.263 68.5232 630.078 66.7653 630.43C65.0073 630.781 63.1873 630.657 61.4934 630.07L37.3034 621.81C35.6466 621.246 34.2648 620.075 33.4356 618.533C32.6064 616.992 32.3912 615.194 32.8334 613.5V613.5C33.2253 611.997 34.1107 610.67 35.3474 609.731C36.5841 608.791 38.1006 608.295 39.6534 608.32L50.0834 608.48L43.0834 595.93C42.4644 594.816 42.1649 593.552 42.2178 592.278C42.2707 591.004 42.674 589.769 43.3834 588.71L51.6534 576.35L66.2234 580.42Z" fill="white"/>
<path d="M64.7533 633.17C63.3724 633.171 62.0006 632.945 60.6933 632.5L36.4733 624.24C34.2392 623.448 32.3834 621.847 31.2725 619.753C30.1617 617.659 29.8765 615.224 30.4733 612.93C30.9952 610.879 32.1969 609.065 33.8823 607.784C35.5677 606.504 37.6373 605.833 39.7533 605.88L45.8633 605.98L40.9633 597.17C40.1189 595.655 39.7103 593.935 39.7827 592.202C39.855 590.469 40.4056 588.79 41.3734 587.35L49.6433 574.99C49.9379 574.558 50.3608 574.228 50.8524 574.049C51.344 573.87 51.8794 573.849 52.3834 573.99L66.8834 577.99C67.3221 578.11 67.7198 578.348 68.0334 578.677C68.3471 579.007 68.5649 579.416 68.6634 579.86L77.0333 617.86C77.4461 619.699 77.4395 621.608 77.0141 623.445C76.5887 625.281 75.7553 626.998 74.5758 628.469C73.3963 629.939 71.901 631.125 70.2006 631.939C68.5002 632.753 66.6385 633.174 64.7533 633.17V633.17ZM39.5534 610.88C38.5003 610.875 37.48 611.245 36.6752 611.924C35.8704 612.603 35.3338 613.547 35.1617 614.586C34.9895 615.625 35.1931 616.691 35.7358 617.593C36.2785 618.496 37.125 619.175 38.1234 619.51L62.3133 627.77C63.5842 628.204 64.9477 628.292 66.2639 628.025C67.5801 627.759 68.8017 627.147 69.8032 626.252C70.8048 625.357 71.5503 624.212 71.9633 622.934C72.3763 621.656 72.4419 620.292 72.1533 618.98L64.1533 582.43L52.8433 579.31L45.5333 590.17C45.0802 590.846 44.8226 591.635 44.7891 592.448C44.7556 593.262 44.9474 594.069 45.3433 594.78L52.3433 607.33C52.5557 607.714 52.6633 608.147 52.6555 608.585C52.6476 609.024 52.5245 609.452 52.2986 609.828C52.0726 610.204 51.7518 610.514 51.3682 610.727C50.9846 610.939 50.5519 611.047 50.1133 611.04L39.6833 610.88H39.6133H39.5534Z" fill="#262424"/>
<path d="M289.473 410.5C288.143 469.17 138.143 499.84 138.143 499.84C138.143 499.84 94.1435 551.17 68.1435 584.5L24.8035 575.17C24.8035 575.17 40.2935 518.82 57.8035 466.93C62.0935 454.22 66.4935 441.78 70.8035 430.5C70.8035 430.5 83.5535 422.16 103.923 411.17C137.863 392.85 192.923 367.17 245.473 360.5C245.473 360.5 290.803 351.84 289.473 410.5Z" fill="#FFFF7C"/>
<path d="M38.2933 570.51C40.8725 570.51 42.9633 568.419 42.9633 565.84C42.9633 563.261 40.8725 561.17 38.2933 561.17C35.7141 561.17 33.6233 563.261 33.6233 565.84C33.6233 568.419 35.7141 570.51 38.2933 570.51Z" fill="white"/>
<path d="M38.2933 573.01C36.8752 573.01 35.489 572.589 34.3099 571.802C33.1308 571.014 32.2118 569.894 31.6691 568.584C31.1264 567.274 30.9844 565.832 31.2611 564.441C31.5377 563.05 32.2206 561.773 33.2233 560.77C34.2261 559.767 35.5037 559.084 36.8945 558.808C38.2853 558.531 39.727 558.673 41.0371 559.216C42.3473 559.758 43.4671 560.677 44.2549 561.857C45.0428 563.036 45.4633 564.422 45.4633 565.84C45.4607 567.741 44.7044 569.563 43.3603 570.907C42.0163 572.251 40.1941 573.007 38.2933 573.01ZM38.2933 563.67C37.8641 563.67 37.4446 563.797 37.0877 564.036C36.7308 564.274 36.4527 564.613 36.2885 565.01C36.1242 565.406 36.0813 565.842 36.165 566.263C36.2487 566.684 36.4554 567.071 36.7589 567.374C37.0623 567.678 37.449 567.884 37.8699 567.968C38.2909 568.052 38.7272 568.009 39.1237 567.845C39.5202 567.68 39.8591 567.402 40.0976 567.046C40.336 566.689 40.4633 566.269 40.4633 565.84C40.4633 565.264 40.2347 564.712 39.8277 564.305C39.4208 563.899 38.8688 563.67 38.2933 563.67Z" fill="#262424"/>
<path d="M93.7135 454.04C82.9535 464.8 68.9534 469.39 57.7834 466.93C62.0734 454.22 66.4734 441.78 70.7834 430.5C70.7834 430.5 83.5334 422.16 103.903 411.17C110.803 422.91 106.863 440.89 93.7135 454.04Z" fill="#FFFF7C"/>
<path d="M133.723 499.42C133.12 499.419 132.537 499.199 132.083 498.8L94.3334 465.8C93.8641 465.356 93.5851 464.747 93.5548 464.102C93.5244 463.456 93.7451 462.824 94.1706 462.338C94.596 461.852 95.1932 461.549 95.8369 461.494C96.4806 461.438 97.1208 461.634 97.6234 462.04L135.373 495.04C135.756 495.375 136.027 495.819 136.151 496.313C136.274 496.806 136.244 497.325 136.065 497.801C135.886 498.277 135.565 498.687 135.147 498.976C134.729 499.266 134.232 499.42 133.723 499.42V499.42Z" fill="#262424"/>
<path d="M74.8134 565C74.6113 565.001 74.4098 564.977 74.2134 564.93L34.8834 555.26C34.2389 555.102 33.6835 554.695 33.3394 554.127C32.9952 553.56 32.8905 552.879 33.0484 552.235C33.2062 551.59 33.6135 551.035 34.1808 550.691C34.7481 550.347 35.4289 550.242 36.0734 550.4L75.4034 560.07C75.9983 560.214 76.5197 560.571 76.869 561.073C77.2182 561.576 77.3709 562.189 77.2982 562.797C77.2255 563.405 76.9324 563.965 76.4744 564.371C76.0164 564.777 75.4254 565.001 74.8134 565V565Z" fill="#262424"/>
<path d="M340.473 311.34C340.473 311.34 353.803 330.51 373.473 330.51C393.143 330.51 407.803 249.68 372.803 242.84C337.803 236 315.473 275.84 340.473 311.34Z" fill="white"/>
<path d="M373.473 333C352.763 333 339.033 313.64 338.473 312.76C325.323 294.09 323.643 272.48 334.093 256.36C342.613 243.22 357.283 237.24 373.343 240.36C393.343 244.26 398.173 268.96 396.063 290.77C394.033 311.25 385.473 333 373.473 333ZM342.473 309.91C342.603 310.09 355.333 328.01 373.423 328.01C380.833 328.01 389.043 310.4 390.983 290.32C392.883 270.69 388.983 248.56 372.273 245.32C358.273 242.59 345.553 247.75 338.183 259.12C330.813 270.49 328.183 289.64 342.463 309.93L342.473 309.91Z" fill="#262424"/>
<path d="M321.223 355.67L327.473 315.67L354.253 322.97L353.473 355.67H321.223Z" fill="white"/>
<path d="M353.474 358.17H321.224C320.862 358.17 320.505 358.092 320.177 357.941C319.849 357.79 319.557 357.569 319.322 357.294C319.088 357.02 318.915 356.697 318.817 356.35C318.719 356.002 318.697 355.637 318.754 355.28L325.004 315.28C325.061 314.935 325.19 314.605 325.383 314.313C325.576 314.021 325.828 313.772 326.124 313.584C326.419 313.395 326.75 313.271 327.096 313.218C327.443 313.166 327.796 313.187 328.134 313.28L354.914 320.58C355.452 320.727 355.926 321.051 356.259 321.498C356.593 321.946 356.767 322.492 356.754 323.05L355.974 355.75C355.953 356.399 355.68 357.015 355.214 357.466C354.747 357.918 354.123 358.171 353.474 358.17V358.17ZM324.144 353.17H351.034L351.714 324.87L329.474 318.82L324.144 353.17Z" fill="#262424"/>
<path d="M382.143 289.67C382.143 289.67 378.473 273.5 367.143 277.5C355.813 281.5 356.473 299.67 364.643 304.83L354.253 322.97H326.333C326.333 322.97 303.803 292.83 301.143 273.83C298.483 254.83 316.813 253.33 316.813 253.33C316.813 253.33 320.143 237 333.473 234.17C346.803 231.34 383.473 239 383.473 239C383.473 239 390.603 227.67 396.603 227.79C402.603 227.91 402.473 240.42 402.473 240.42C402.473 240.42 410.353 230.17 415.223 233.3C420.093 236.43 411.853 278.55 387.223 270.8C387.223 270.8 390.553 288.05 382.143 289.67Z" fill="#262424"/>
<path d="M297.223 357.42C297.223 357.42 304.973 337.42 334.973 337.42C364.973 337.42 375.473 362.67 375.473 362.67H297.223V357.42Z" fill="white"/>
<path d="M375.473 365.17H297.223C296.56 365.17 295.924 364.907 295.456 364.438C294.987 363.969 294.723 363.333 294.723 362.67V357.42C294.724 357.112 294.782 356.807 294.893 356.52C295.233 355.64 303.623 334.92 334.973 334.92C366.323 334.92 377.673 361.44 377.783 361.71C377.941 362.09 378.003 362.503 377.963 362.913C377.923 363.322 377.783 363.716 377.554 364.058C377.326 364.4 377.016 364.681 376.653 364.875C376.29 365.069 375.885 365.17 375.473 365.17V365.17ZM299.723 360.17H371.353C367.353 353.57 356.593 339.92 334.973 339.92C309.143 339.92 300.973 355.18 299.723 357.92V360.17Z" fill="#262424"/>
<path d="M448.143 698.5C435.623 702.834 422.811 706.273 409.803 708.79V668.94C409.725 666.578 408.731 664.338 407.032 662.694C405.334 661.051 403.062 660.132 400.698 660.132C398.334 660.132 396.063 661.051 394.364 662.694C392.665 664.338 391.672 666.578 391.593 668.94V711.81C275.773 727.7 157.153 682.5 157.153 682.5C186.153 475.84 245.473 360.5 245.473 360.5C301.773 347.23 452.143 360.5 452.143 360.5C454.803 493.17 448.143 698.5 448.143 698.5Z" fill="#FFFF7C"/>
<path d="M203.993 471.82C203.602 471.82 203.215 471.729 202.865 471.552C202.516 471.376 202.212 471.119 201.98 470.804C201.747 470.489 201.592 470.123 201.526 469.737C201.461 469.351 201.488 468.954 201.603 468.58C217.803 416.4 232.453 382.29 239.753 366.58C240.047 366.001 240.553 365.559 241.166 365.347C241.78 365.135 242.451 365.169 243.039 365.443C243.628 365.717 244.086 366.209 244.318 366.815C244.55 367.421 244.538 368.093 244.283 368.69C238.453 381.23 223.083 416.21 206.373 470.04C206.219 470.552 205.905 471.002 205.477 471.322C205.048 471.642 204.528 471.817 203.993 471.82V471.82Z" fill="#262424"/>
<path d="M266.143 675H266.053C265.392 674.976 264.767 674.692 264.315 674.208C263.863 673.724 263.622 673.081 263.643 672.42C269.593 501.96 318.403 376.18 318.903 374.92C319.161 374.325 319.64 373.853 320.239 373.605C320.838 373.356 321.51 373.35 322.113 373.587C322.716 373.825 323.204 374.287 323.473 374.877C323.741 375.467 323.77 376.139 323.553 376.75C323.063 377.99 274.553 503.04 268.643 672.59C268.62 673.237 268.346 673.85 267.88 674.3C267.414 674.749 266.791 675 266.143 675V675Z" fill="#262424"/>
<path d="M415.963 691.64C415.3 691.686 414.646 691.468 414.144 691.031C413.643 690.595 413.335 689.978 413.288 689.315C413.242 688.652 413.461 687.998 413.897 687.496C414.333 686.994 414.95 686.686 415.613 686.64C423.023 685.58 430.563 684.37 438.023 683.02C438.673 682.908 439.342 683.057 439.882 683.435C440.423 683.813 440.792 684.389 440.909 685.038C441.027 685.688 440.883 686.357 440.509 686.9C440.135 687.444 439.562 687.818 438.913 687.94C431.383 689.3 423.783 690.53 416.313 691.59L415.963 691.64Z" fill="#262424"/>
<path d="M336.343 697.41C290.463 697.41 253.683 691.54 228.663 685.78C192.543 677.47 172.943 667.87 172.123 667.47C171.534 667.173 171.086 666.655 170.877 666.029C170.668 665.402 170.716 664.719 171.009 664.128C171.302 663.536 171.817 663.085 172.442 662.872C173.066 662.659 173.75 662.701 174.343 662.99C175.123 663.38 254.343 701.64 383.993 690.31C384.322 690.281 384.652 690.317 384.967 690.416C385.281 690.515 385.573 690.675 385.825 690.887C386.078 691.098 386.286 691.358 386.439 691.65C386.591 691.942 386.684 692.262 386.713 692.59C386.742 692.918 386.706 693.249 386.607 693.564C386.508 693.878 386.348 694.17 386.137 694.422C385.925 694.675 385.665 694.883 385.373 695.036C385.081 695.188 384.762 695.281 384.433 695.31C367.473 696.77 351.413 697.41 336.343 697.41Z" fill="#262424"/>
<path d="M1310.47 408.67H1323.47C1325.35 408.67 1327.15 409.416 1328.48 410.744C1329.81 412.071 1330.55 413.872 1330.55 415.75V422.59C1330.55 424.468 1329.81 426.268 1328.48 427.596C1327.15 428.924 1325.35 429.67 1323.47 429.67H1310.47V408.67V408.67Z" fill="white"/>
<path d="M1323.47 432.17H1310.47C1309.81 432.17 1309.17 431.907 1308.71 431.438C1308.24 430.969 1307.97 430.333 1307.97 429.67V408.67C1307.97 408.007 1308.24 407.371 1308.71 406.902C1309.17 406.433 1309.81 406.17 1310.47 406.17H1323.47C1326.01 406.173 1328.45 407.183 1330.24 408.979C1332.04 410.775 1333.05 413.21 1333.05 415.75V422.59C1333.05 425.13 1332.04 427.565 1330.24 429.361C1328.45 431.157 1326.01 432.167 1323.47 432.17V432.17ZM1312.97 427.17H1323.47C1324.69 427.17 1325.85 426.687 1326.71 425.828C1327.57 424.97 1328.05 423.805 1328.05 422.59V415.75C1328.05 414.535 1327.57 413.37 1326.71 412.511C1325.85 411.652 1324.69 411.17 1323.47 411.17H1312.97V427.17Z" fill="#262424"/>
<path d="M1390.23 488.43V540.63C1390.23 619.92 1358.73 695.962 1302.66 752.03C1263.47 791.23 1216.93 822.325 1165.72 843.539C1114.5 864.753 1059.61 875.671 1004.17 875.67C985.469 875.67 967.019 871.34 950.267 863.021C933.516 854.701 918.917 842.617 907.614 827.714C896.312 812.811 888.612 795.495 885.118 777.12C881.623 758.745 882.43 739.811 887.473 721.8L1010.74 281.5C1021.52 243.008 1026.99 203.223 1026.98 163.25C1026.98 75.99 955.983 5 868.733 5C781.483 5 710.473 75.99 710.473 163.25V189.42H705.473V163.25C705.473 73.25 778.713 0 868.723 0C958.733 0 1031.97 73.24 1031.97 163.25C1031.97 203.679 1026.44 243.918 1015.54 282.85L892.273 723.17C887.446 740.438 886.679 758.588 890.034 776.201C893.388 793.815 900.772 810.413 911.609 824.697C922.446 838.981 936.441 850.565 952.499 858.54C968.558 866.516 986.244 870.667 1004.17 870.67C1115.59 870.67 1220.34 827.28 1299.17 748.49C1326.56 721.258 1348.27 688.865 1363.05 653.185C1377.83 617.506 1385.38 579.249 1385.27 540.63V488.43C1385.21 472.797 1379.84 457.649 1370.06 445.456C1360.28 433.263 1346.65 424.744 1331.4 421.29C1330.75 421.148 1330.19 420.754 1329.83 420.196C1329.47 419.637 1329.35 418.958 1329.49 418.31C1329.64 417.662 1330.03 417.096 1330.59 416.738C1331.15 416.38 1331.82 416.258 1332.47 416.4C1348.86 420.046 1363.51 429.17 1374.01 442.265C1384.51 455.36 1390.23 471.645 1390.23 488.43V488.43Z" fill="#262424"/>
<path d="M714.303 191.92H701.643V193.98C693.668 196.636 686.733 201.737 681.822 208.558C676.91 215.379 674.273 223.575 674.283 231.98V297.44C674.273 305.845 676.91 314.04 681.822 320.862C686.733 327.683 693.668 332.784 701.643 335.44V337.5H714.303C724.912 337.5 735.086 333.286 742.587 325.784C750.089 318.283 754.303 308.109 754.303 297.5V231.94C754.306 226.685 753.273 221.482 751.264 216.626C749.255 211.771 746.309 207.359 742.595 203.643C738.88 199.926 734.47 196.978 729.615 194.967C724.761 192.955 719.558 191.92 714.303 191.92V191.92Z" fill="white"/>
<path d="M714.303 339.92H701.643C700.98 339.92 700.344 339.657 699.876 339.188C699.407 338.719 699.143 338.083 699.143 337.42V337.17C691.09 334.106 684.16 328.664 679.273 321.568C674.386 314.472 671.774 306.056 671.783 297.44V231.94C671.766 223.317 674.374 214.893 679.262 207.789C684.149 200.685 691.084 195.237 699.143 192.17V191.87C699.143 191.207 699.407 190.571 699.876 190.102C700.344 189.633 700.98 189.37 701.643 189.37H714.303C725.576 189.383 736.384 193.867 744.355 201.839C752.326 209.81 756.81 220.617 756.823 231.89V297.35C756.823 308.632 752.345 319.452 744.373 327.434C736.4 335.416 725.585 339.907 714.303 339.92V339.92ZM704.103 334.92H714.303C724.251 334.91 733.788 330.953 740.822 323.919C747.856 316.885 751.813 307.348 751.823 297.4V231.94C751.813 221.992 747.856 212.455 740.822 205.421C733.788 198.387 724.251 194.431 714.303 194.42H704.103C704.024 194.862 703.827 195.275 703.533 195.614C703.239 195.954 702.859 196.208 702.433 196.35C694.96 198.834 688.46 203.61 683.855 209.999C679.251 216.388 676.776 224.065 676.783 231.94V297.4C676.779 305.28 679.259 312.961 683.871 319.351C688.484 325.74 694.993 330.513 702.473 332.99C702.892 333.138 703.264 333.395 703.55 333.734C703.836 334.073 704.027 334.483 704.103 334.92V334.92Z" fill="#262424"/>
<path d="M703.013 189.42H700.263C678.161 189.42 660.243 207.337 660.243 229.44V299.9C660.243 322.002 678.161 339.92 700.263 339.92H703.013C725.116 339.92 743.033 322.002 743.033 299.9V229.44C743.033 207.337 725.116 189.42 703.013 189.42Z" fill="#FFFF7C"/>
<path d="M672.723 330.67L662.723 304.1C659.513 296.559 658.331 288.309 659.293 280.17L661.293 262.84C661.361 262.258 661.55 261.697 661.847 261.193C662.145 260.688 662.545 260.252 663.022 259.912C663.499 259.572 664.042 259.335 664.615 259.218C665.189 259.1 665.781 259.104 666.353 259.23V259.23C667.122 259.398 667.828 259.778 668.39 260.328C668.953 260.878 669.349 261.575 669.533 262.34L674.533 283.27L680.183 259.27L690.123 231.97C690.591 230.691 691.53 229.64 692.747 229.03C693.965 228.42 695.369 228.299 696.673 228.69C697.919 229.064 698.986 229.88 699.672 230.985C700.359 232.09 700.619 233.407 700.403 234.69L695.653 264.01C695.54 264.711 695.679 265.428 696.045 266.036C696.411 266.644 696.981 267.103 697.653 267.33V267.33C698.383 267.555 699.171 267.492 699.857 267.156C700.543 266.82 701.074 266.235 701.343 265.52L710.113 241.63C710.447 240.72 711.004 239.908 711.733 239.268C712.462 238.628 713.339 238.182 714.285 237.969C715.231 237.756 716.216 237.784 717.148 238.049C718.081 238.315 718.932 238.81 719.623 239.49L733.723 253.34C735.22 254.811 736.317 256.638 736.911 258.65C737.506 260.662 737.579 262.792 737.123 264.84L730.693 292.46C729.584 297.217 727.717 301.766 725.163 305.93L698.163 350.47L672.723 330.67Z" fill="white"/>
<path d="M698.233 352.96C697.68 352.961 697.142 352.778 696.703 352.44L671.193 332.65C670.826 332.366 670.546 331.985 670.383 331.55L660.473 305.03C657.105 297.117 655.854 288.463 656.843 279.92L658.843 262.59C659.025 261.029 659.75 259.582 660.892 258.502C662.033 257.423 663.519 256.779 665.087 256.685C666.656 256.591 668.207 257.052 669.47 257.987C670.733 258.922 671.626 260.272 671.993 261.8L674.573 272.51L677.813 258.74C677.835 258.645 677.861 258.552 677.893 258.46L687.833 231.16C688.507 229.335 689.835 227.826 691.559 226.926C693.283 226.026 695.28 225.799 697.163 226.288C699.045 226.778 700.678 227.95 701.744 229.577C702.811 231.203 703.235 233.168 702.933 235.09L698.183 264.41C698.17 264.525 698.198 264.641 698.264 264.737C698.329 264.832 698.427 264.901 698.539 264.93C698.651 264.959 698.77 264.947 698.874 264.896C698.977 264.844 699.059 264.757 699.103 264.65L707.873 240.76C708.352 239.459 709.149 238.299 710.191 237.385C711.234 236.471 712.488 235.833 713.841 235.529C715.193 235.225 716.6 235.264 717.933 235.643C719.267 236.022 720.484 236.729 721.473 237.7L735.573 251.55C737.379 253.312 738.702 255.508 739.418 257.927C740.134 260.346 740.219 262.909 739.663 265.37L733.223 293.01C732.055 298.029 730.087 302.827 727.393 307.22L700.393 351.75C700.169 352.122 699.852 352.429 699.474 352.641C699.095 352.853 698.667 352.963 698.233 352.96ZM674.813 329.17L697.553 346.81L723.103 304.67C725.52 300.732 727.286 296.43 728.333 291.93L734.763 264.31C735.128 262.679 735.07 260.983 734.594 259.381C734.118 257.779 733.24 256.326 732.043 255.16L717.943 241.31C717.55 240.923 717.065 240.642 716.535 240.491C716.004 240.34 715.444 240.325 714.906 240.446C714.368 240.567 713.869 240.822 713.454 241.186C713.04 241.55 712.723 242.012 712.533 242.53L703.773 266.37C703.3 267.643 702.37 268.695 701.165 269.322C699.96 269.948 698.564 270.105 697.25 269.761C695.936 269.417 694.796 268.598 694.052 267.461C693.308 266.324 693.013 264.952 693.223 263.61L697.973 234.29C698.162 233.561 698.053 232.786 697.67 232.137C697.287 231.488 696.663 231.018 695.933 230.83C695.204 230.642 694.43 230.751 693.781 231.133C693.132 231.516 692.662 232.141 692.473 232.87L682.583 260.04L676.973 283.89C676.845 284.438 676.535 284.927 676.094 285.278C675.653 285.628 675.107 285.819 674.543 285.82V285.82C673.981 285.819 673.436 285.63 672.995 285.281C672.554 284.933 672.244 284.446 672.113 283.9L667.113 262.97C667.051 262.7 666.923 262.45 666.741 262.241C666.559 262.032 666.328 261.871 666.07 261.772C665.811 261.674 665.532 261.64 665.257 261.674C664.982 261.709 664.72 261.81 664.493 261.97C664.3 262.106 664.137 262.281 664.017 262.485C663.896 262.688 663.82 262.915 663.793 263.15L661.793 280.48C660.901 288.177 662.031 295.973 665.073 303.1V303.2L674.813 329.17Z" fill="#262424"/>
<path d="M408.553 401.9C414.413 384.16 429.123 364.07 452.333 360.51C488.333 365.45 575.333 380.06 575.333 380.06C575.333 380.06 632.413 343.82 667.013 319.54L705.734 345.47C705.734 345.47 674.453 390.47 642.573 435C634.753 445.9 626.914 456.51 619.474 466C619.474 466 604.844 470.25 582.154 474.81C544.344 482.41 484.154 490.87 431.974 481.91C431.964 481.97 390.143 457.61 408.553 401.9Z" fill="#FFFF7C"/>
<path d="M431.963 484.47C431.521 484.471 431.086 484.354 430.703 484.13C422.8 479.003 416.146 472.169 411.233 464.13C403.513 451.77 396.363 430.8 406.183 401.13C412.243 382.78 424.943 367.94 440.183 361.43C440.793 361.165 441.484 361.153 442.103 361.397C442.721 361.641 443.218 362.12 443.483 362.73C443.749 363.34 443.761 364.031 443.517 364.649C443.273 365.268 442.793 365.765 442.183 366.03C428.273 372.03 416.623 385.69 411.003 402.7C393.433 455.87 432.893 479.59 433.293 479.82C433.769 480.102 434.137 480.533 434.342 481.047C434.546 481.56 434.574 482.127 434.422 482.658C434.27 483.19 433.947 483.656 433.502 483.983C433.057 484.311 432.516 484.482 431.963 484.47V484.47Z" fill="#262424"/>
<path d="M694.593 351.857C695.346 349.391 693.958 346.78 691.491 346.027C689.024 345.273 686.414 346.661 685.66 349.128C684.907 351.595 686.295 354.205 688.762 354.959C691.228 355.712 693.839 354.324 694.593 351.857Z" fill="white"/>
<path d="M690.103 357.64C689.391 357.638 688.684 357.53 688.003 357.32C687.098 357.045 686.255 356.593 685.525 355.991C684.795 355.389 684.191 354.648 683.749 353.812C683.306 352.975 683.034 352.059 682.947 351.116C682.86 350.174 682.961 349.223 683.243 348.32V348.32C683.64 347.057 684.38 345.928 685.379 345.059C686.379 344.19 687.599 343.615 688.906 343.397C690.212 343.18 691.553 343.328 692.78 343.827C694.008 344.325 695.073 345.153 695.858 346.22C696.643 347.286 697.117 348.55 697.228 349.869C697.339 351.189 697.082 352.514 696.486 353.696C695.891 354.879 694.979 355.874 693.852 356.57C692.725 357.266 691.428 357.636 690.103 357.64V357.64ZM688.013 349.83C687.866 350.31 687.889 350.826 688.079 351.291C688.269 351.755 688.614 352.139 689.056 352.378C689.498 352.616 690.009 352.694 690.501 352.599C690.994 352.503 691.438 352.239 691.759 351.853C692.079 351.466 692.255 350.98 692.257 350.478C692.259 349.976 692.088 349.489 691.771 349.1C691.454 348.71 691.012 348.442 690.52 348.342C690.029 348.242 689.517 348.315 689.073 348.55C688.821 348.683 688.597 348.864 688.415 349.084C688.233 349.304 688.097 349.557 688.013 349.83V349.83Z" fill="#262424"/>
<path d="M604.473 436.85C617.903 429.7 632.633 429.4 642.603 435.02C634.783 445.92 626.944 456.53 619.504 466.02C619.504 466.02 604.873 470.27 582.183 474.83C578.993 461.62 588.013 445.58 604.473 436.85Z" fill="#FFFF7C"/>
<path d="M605.163 429.24C604.737 429.241 604.318 429.133 603.945 428.927C603.572 428.72 603.258 428.422 603.033 428.06L576.573 385.47C576.223 384.906 576.111 384.227 576.262 383.581C576.413 382.935 576.815 382.375 577.378 382.025C577.942 381.675 578.622 381.563 579.268 381.714C579.914 381.865 580.473 382.266 580.823 382.83L607.283 425.42C607.519 425.798 607.648 426.233 607.66 426.678C607.671 427.123 607.562 427.564 607.346 427.953C607.13 428.343 606.814 428.667 606.43 428.894C606.046 429.12 605.609 429.24 605.163 429.24V429.24Z" fill="#262424"/>
<path d="M688.993 366.22C688.469 366.221 687.958 366.057 687.533 365.75L652.743 340.67C652.477 340.478 652.251 340.236 652.078 339.957C651.905 339.678 651.789 339.367 651.736 339.043C651.683 338.719 651.694 338.388 651.769 338.068C651.844 337.748 651.982 337.447 652.173 337.18C652.365 336.914 652.608 336.687 652.887 336.514C653.166 336.342 653.476 336.225 653.8 336.172C654.124 336.119 654.456 336.131 654.775 336.206C655.095 336.281 655.397 336.418 655.663 336.61L690.473 361.7C690.9 362.011 691.217 362.45 691.38 362.952C691.542 363.455 691.541 363.996 691.376 364.498C691.212 365 690.893 365.437 690.465 365.746C690.037 366.056 689.522 366.222 688.993 366.22Z" fill="#262424"/>
<path d="M380.803 744.34C380.225 744.339 379.666 744.137 379.22 743.769C378.774 743.402 378.469 742.891 378.357 742.324C378.245 741.757 378.333 741.169 378.606 740.66C378.878 740.15 379.319 739.751 379.853 739.53C384.028 737.831 387.6 734.925 390.114 731.184C392.627 727.443 393.968 723.037 393.963 718.53V698.67C393.963 698.007 394.227 697.371 394.696 696.902C395.164 696.433 395.8 696.17 396.463 696.17C397.126 696.17 397.762 696.433 398.231 696.902C398.7 697.371 398.963 698.007 398.963 698.67V718.49C398.981 723.998 397.352 729.386 394.286 733.962C391.219 738.538 386.855 742.093 381.753 744.17C381.451 744.288 381.128 744.345 380.803 744.34V744.34Z" fill="#262424"/>
<path d="M171.033 205.8C170.37 205.8 169.735 205.537 169.266 205.068C168.797 204.599 168.533 203.963 168.533 203.3V186.42C168.533 185.757 168.797 185.121 169.266 184.652C169.735 184.183 170.37 183.92 171.033 183.92C171.696 183.92 172.332 184.183 172.801 184.652C173.27 185.121 173.533 185.757 173.533 186.42V203.3C173.533 203.963 173.27 204.599 172.801 205.068C172.332 205.537 171.696 205.8 171.033 205.8V205.8Z" fill="#262424"/>
<path d="M196.474 214.38H179.614C178.95 214.38 178.315 214.116 177.846 213.648C177.377 213.179 177.114 212.543 177.114 211.88C177.114 211.217 177.377 210.581 177.846 210.112C178.315 209.643 178.95 209.38 179.614 209.38H196.474C197.137 209.38 197.772 209.643 198.241 210.112C198.71 210.581 198.974 211.217 198.974 211.88C198.974 212.543 198.71 213.179 198.241 213.648C197.772 214.116 197.137 214.38 196.474 214.38Z" fill="#262424"/>
<path d="M171.033 239.84C170.37 239.84 169.735 239.577 169.266 239.108C168.797 238.639 168.533 238.003 168.533 237.34V220.46C168.533 219.797 168.797 219.161 169.266 218.692C169.735 218.223 170.37 217.96 171.033 217.96C171.696 217.96 172.332 218.223 172.801 218.692C173.27 219.161 173.533 219.797 173.533 220.46V237.34C173.533 238.003 173.27 238.639 172.801 239.108C172.332 239.577 171.696 239.84 171.033 239.84V239.84Z" fill="#262424"/>
<path d="M162.473 214.38H145.573C144.91 214.38 144.275 214.116 143.806 213.648C143.337 213.179 143.073 212.543 143.073 211.88C143.073 211.217 143.337 210.581 143.806 210.112C144.275 209.643 144.91 209.38 145.573 209.38H162.473C163.137 209.38 163.772 209.643 164.241 210.112C164.71 210.581 164.973 211.217 164.973 211.88C164.973 212.543 164.71 213.179 164.241 213.648C163.772 214.116 163.137 214.38 162.473 214.38Z" fill="#262424"/>
<path d="M806.793 946.84C806.13 946.84 805.495 946.577 805.026 946.108C804.557 945.639 804.293 945.003 804.293 944.34V927.46C804.293 926.797 804.557 926.161 805.026 925.692C805.495 925.223 806.13 924.96 806.793 924.96C807.456 924.96 808.092 925.223 808.561 925.692C809.03 926.161 809.293 926.797 809.293 927.46V944.34C809.293 945.003 809.03 945.639 808.561 946.108C808.092 946.577 807.456 946.84 806.793 946.84V946.84Z" fill="#262424"/>
<path d="M832.253 955.42H815.373C814.71 955.42 814.074 955.157 813.606 954.688C813.137 954.219 812.873 953.583 812.873 952.92C812.873 952.257 813.137 951.621 813.606 951.152C814.074 950.683 814.71 950.42 815.373 950.42H832.253C832.916 950.42 833.552 950.683 834.021 951.152C834.49 951.621 834.753 952.257 834.753 952.92C834.753 953.583 834.49 954.219 834.021 954.688C833.552 955.157 832.916 955.42 832.253 955.42Z" fill="#262424"/>
<path d="M806.793 980.88C806.13 980.88 805.495 980.617 805.026 980.148C804.557 979.679 804.293 979.043 804.293 978.38V961.5C804.293 960.837 804.557 960.201 805.026 959.732C805.495 959.263 806.13 959 806.793 959C807.456 959 808.092 959.263 808.561 959.732C809.03 960.201 809.293 960.837 809.293 961.5V978.38C809.293 979.043 809.03 979.679 808.561 980.148C808.092 980.617 807.456 980.88 806.793 980.88V980.88Z" fill="#262424"/>
<path d="M798.214 955.42H781.333C780.67 955.42 780.035 955.157 779.566 954.688C779.097 954.219 778.833 953.583 778.833 952.92C778.833 952.257 779.097 951.621 779.566 951.152C780.035 950.683 780.67 950.42 781.333 950.42H798.214C798.877 950.42 799.512 950.683 799.981 951.152C800.45 951.621 800.714 952.257 800.714 952.92C800.714 953.583 800.45 954.219 799.981 954.688C799.512 955.157 798.877 955.42 798.214 955.42Z" fill="#262424"/>
<path d="M1209.9 1011.67C1218.97 1011.67 1226.31 1004.32 1226.31 995.26C1226.31 986.197 1218.97 978.85 1209.9 978.85C1200.84 978.85 1193.49 986.197 1193.49 995.26C1193.49 1004.32 1200.84 1011.67 1209.9 1011.67Z" fill="#FFFF7C"/>
<path d="M143.383 972.07C150.922 972.07 157.033 965.959 157.033 958.42C157.033 950.881 150.922 944.77 143.383 944.77C135.845 944.77 129.733 950.881 129.733 958.42C129.733 965.959 135.845 972.07 143.383 972.07Z" fill="#FFFF7C"/>
</svg>
