<svg width="212" height="65" viewBox="0 0 212 65" fill="none" xmlns="http://www.w3.org/2000/svg">
<path d="M83.48 49V44.28L97.68 26.32H84.2V20.6H106.4V25.32L92.2 43.28H106.88L106.48 49H83.48ZM119.595 49.4C117.329 49.4 115.369 48.9867 113.715 48.16C112.062 47.3067 110.782 46.12 109.875 44.6C108.969 43.0533 108.515 41.2267 108.515 39.12C108.515 36.9867 108.969 35.1067 109.875 33.48C110.809 31.8533 112.049 30.5867 113.595 29.68C115.169 28.7733 116.942 28.32 118.915 28.32C121.155 28.32 122.982 28.8267 124.395 29.84C125.809 30.8533 126.782 32.2933 127.315 34.16C127.875 36 127.995 38.1467 127.675 40.6H114.755C114.915 41.6133 115.449 42.4667 116.355 43.16C117.262 43.8267 118.502 44.16 120.075 44.16C120.795 44.16 121.555 44.0133 122.355 43.72C123.155 43.4 123.835 42.9333 124.395 42.32L127.795 45.92C126.915 46.9867 125.822 47.84 124.515 48.48C123.235 49.0933 121.595 49.4 119.595 49.4ZM119.035 32.76C117.969 32.76 117.062 33.08 116.315 33.72C115.595 34.36 115.115 35.2533 114.875 36.4H122.515C122.542 35.1467 122.235 34.2267 121.595 33.64C120.982 33.0533 120.129 32.76 119.035 32.76ZM131.43 49V28.64H137.51L137.23 33C138.057 31.5067 139.11 30.36 140.39 29.56C141.697 28.7333 143.15 28.32 144.75 28.32C147.177 28.32 148.99 29.1467 150.19 30.8C151.39 32.4267 151.977 34.7733 151.95 37.84L151.87 49H145.75L145.83 38.28C145.857 36.8933 145.644 35.84 145.19 35.12C144.764 34.3733 144.07 34 143.11 34C142.31 34 141.577 34.24 140.91 34.72C140.244 35.1733 139.657 35.96 139.15 37.08C138.67 38.2 138.284 39.7333 137.99 41.68C137.697 43.6267 137.537 46.0667 137.51 49H131.43ZM166.312 28.32C169.486 28.32 171.966 29.2267 173.752 31.04C175.566 32.8533 176.472 35.3067 176.472 38.4C176.472 40.5067 176.019 42.3867 175.112 44.04C174.206 45.6933 172.926 47 171.272 47.96C169.619 48.92 167.672 49.4 165.432 49.4C162.286 49.4 159.806 48.4933 157.992 46.68C156.206 44.8667 155.312 42.4267 155.312 39.36C155.312 37.2267 155.766 35.3333 156.672 33.68C157.579 32.0267 158.859 30.72 160.512 29.76C162.166 28.8 164.099 28.32 166.312 28.32ZM165.712 44.08C167.072 44.08 168.152 43.5733 168.952 42.56C169.779 41.52 170.192 40.1333 170.192 38.4C170.192 36.9067 169.832 35.7467 169.112 34.92C168.392 34.0667 167.406 33.64 166.152 33.64C164.766 33.64 163.659 34.16 162.832 35.2C162.032 36.2133 161.632 37.5867 161.632 39.32C161.632 40.8133 161.979 41.9867 162.672 42.84C163.392 43.6667 164.406 44.08 165.712 44.08ZM183.319 49H176.199L183.719 38.56L176.599 28.64H184.039L187.479 33.52L190.999 28.64H198.079L190.919 38.32L198.399 49H190.959L187.199 43.36L183.319 49Z" fill="#282828"/>
<rect width="65" height="65" rx="17" fill="white"/>
<path d="M42.636 8.45431L8.4543 42.636C4.88969 46.2006 4.88969 51.98 8.4543 55.5446L8.45541 55.5457C12.02 59.1103 17.7994 59.1103 21.364 55.5457L55.5457 21.364C59.1103 17.7994 59.1103 12.02 55.5457 8.45542L55.5446 8.45431C51.98 4.8897 46.2006 4.8897 42.636 8.45431Z" fill="url(#paint0_linear)"/>
<path d="M15.0674 58.3096C20.2256 58.3096 24.4071 54.128 24.4071 48.9699C24.4071 43.8117 20.2256 39.6302 15.0674 39.6302C9.90929 39.6302 5.72778 43.8117 5.72778 48.9699C5.72778 54.128 9.90929 58.3096 15.0674 58.3096Z" fill="#FFB5BD"/>
<path d="M49.1297 24.2472C54.2879 24.2472 58.4694 20.0657 58.4694 14.9075C58.4694 9.74938 54.2879 5.56787 49.1297 5.56787C43.9715 5.56787 39.79 9.74938 39.79 14.9075C39.79 20.0657 43.9715 24.2472 49.1297 24.2472Z" fill="#9170E8"/>
<path d="M57.8415 48.9699C57.8406 50.3492 57.5345 51.7113 56.945 52.9583C56.3555 54.2053 55.4973 55.3064 54.4319 56.1826C53.3666 57.0587 52.1205 57.6882 50.7831 58.0258C49.4458 58.3634 48.0502 58.4008 46.6967 58.1353L26.7616 57.9956L40.465 44.2106C41.508 42.4488 43.101 41.0786 44.9989 40.3107C46.8968 39.5429 48.9944 39.4199 50.969 39.9607C52.9436 40.5015 54.6858 41.6762 55.9276 43.304C57.1693 44.9318 57.8418 46.9225 57.8415 48.9699Z" fill="url(#paint1_linear)"/>
<path opacity="0.68" d="M48.5427 58.3378C53.7008 58.3378 57.8823 54.1563 57.8823 48.9981C57.8823 43.84 53.7008 39.6584 48.5427 39.6584C43.3845 39.6584 39.203 43.84 39.203 48.9981C39.203 54.1563 43.3845 58.3378 48.5427 58.3378Z" fill="url(#paint2_linear)"/>
<path d="M5.72461 14.8919C5.72546 13.5125 6.03162 12.1505 6.62111 10.9035C7.21059 9.65643 8.0688 8.55534 9.13415 7.67921C10.1995 6.80307 11.4456 6.17361 12.783 5.83599C14.1203 5.49837 15.5159 5.46096 16.8694 5.72645L36.8045 5.86615L23.1042 19.6496C22.062 21.4128 20.469 22.7844 18.5706 23.5534C16.6723 24.3223 14.5737 24.4459 12.5982 23.9051C10.6227 23.3643 8.87978 22.1891 7.63775 20.5605C6.39573 18.9318 5.72351 16.9401 5.72461 14.8919Z" fill="url(#paint3_linear)"/>
<path opacity="0.68" d="M15.0235 24.2048C20.1817 24.2048 24.3632 20.0233 24.3632 14.8652C24.3632 9.70702 20.1817 5.52551 15.0235 5.52551C9.86535 5.52551 5.68384 9.70702 5.68384 14.8652C5.68384 20.0233 9.86535 24.2048 15.0235 24.2048Z" fill="url(#paint4_linear)"/>
<defs>
<linearGradient id="paint0_linear" x1="8.36961" y1="55.3235" x2="55.5487" y2="8.14444" gradientUnits="userSpaceOnUse">
<stop stop-color="#FFB5BD"/>
<stop offset="1" stop-color="#9170E8"/>
</linearGradient>
<linearGradient id="paint1_linear" x1="26.7616" y1="48.9699" x2="57.8415" y2="48.9699" gradientUnits="userSpaceOnUse">
<stop stop-color="#FFFF7C"/>
<stop offset="1" stop-color="#FFB5BD"/>
</linearGradient>
<linearGradient id="paint2_linear" x1="4027.99" y1="5213.27" x2="6251.39" y2="5213.27" gradientUnits="userSpaceOnUse">
<stop stop-color="#FFFF7C"/>
<stop offset="1" stop-color="#FFB5BD"/>
</linearGradient>
<linearGradient id="paint3_linear" x1="-44121.2" y1="-4052.01" x2="-50275" y2="-4052.01" gradientUnits="userSpaceOnUse">
<stop stop-color="#FFFF7C"/>
<stop offset="1" stop-color="#FFB5BD"/>
</linearGradient>
<linearGradient id="paint4_linear" x1="-27893.5" y1="-4053.95" x2="-30116.9" y2="-4053.95" gradientUnits="userSpaceOnUse">
<stop stop-color="#FFFF7C"/>
<stop offset="1" stop-color="#FFB5BD"/>
</linearGradient>
</defs>
</svg>
