<svg width="483" height="524" viewBox="0 0 483 524" fill="none" xmlns="http://www.w3.org/2000/svg">
<path d="M345.899 40.84C357.176 40.84 366.319 31.6977 366.319 20.42C366.319 9.14235 357.176 0 345.899 0C334.621 0 325.479 9.14235 325.479 20.42C325.479 31.6977 334.621 40.84 345.899 40.84Z" fill="#EE4236"/>
<path d="M163.429 232.29C171.759 240.99 183.779 242.37 190.959 237.06C197.219 232.43 197.769 224.26 197.849 222.76L149.669 103.11C143.549 89.11 145.099 73.11 153.899 61.47C163.729 48.47 178.449 46.31 181.429 45.94C185.239 44.94 204.969 40.44 223.789 52.29C232.619 57.9277 239.608 66.0228 243.899 75.58C262.632 117.407 281.332 159.233 299.999 201.06L326.469 57.06C328.14 54.2452 330.592 51.9765 333.529 50.53C340.829 47.06 351.019 49.36 355.409 56.17C357.049 58.8137 357.851 61.892 357.709 65C345.902 131.173 334.085 197.35 322.259 263.53C320.905 265.7 319.114 267.563 316.999 269C314.314 270.779 311.219 271.843 308.007 272.089C304.795 272.336 301.574 271.758 298.649 270.41C295.523 268.875 292.893 266.49 291.059 263.53L235.429 135.41L213.199 85.11C212.669 84.27 207.449 76.35 197.849 75.85C195.849 75.74 187.159 75.64 182.579 82.64C179.179 87.83 179.359 94.86 183.019 100.47C198.339 137.877 213.665 175.287 228.999 212.7C229.999 216.16 233.779 230.11 226.649 245C217.549 264 198.299 268.77 195.769 269.35C186.197 273.277 175.616 274.02 165.589 271.47C147.149 266.64 138.239 252.22 136.469 249.23L77.6688 88.29L12.5488 87.23C10.2128 86.5175 8.04619 85.3371 6.1809 83.7606C4.31561 82.1842 2.79063 80.2446 1.69881 78.06C1.24881 77.06 -2.14119 69.67 2.13881 62.53C3.40554 60.526 5.08279 58.8133 7.0599 57.505C9.03702 56.1967 11.2691 55.3225 13.6088 54.94H94.0788C97.6477 56.3294 100.743 58.7143 102.996 61.8112C105.249 64.9081 106.565 68.5868 106.789 72.41L163.429 232.29Z" fill="#EE4236"/>
<path d="M482.139 65.6899C482.139 69.8804 480.474 73.8991 477.511 76.8622C474.548 79.8253 470.529 81.4899 466.339 81.4899H421.169L392.939 259.68C392.347 263.391 390.453 266.769 387.596 269.21C384.739 271.651 381.106 272.995 377.349 273C376.515 272.997 375.682 272.93 374.859 272.8C372.81 272.475 370.844 271.749 369.075 270.665C367.306 269.58 365.769 268.158 364.549 266.479C363.33 264.8 362.453 262.898 361.97 260.88C361.486 258.862 361.404 256.769 361.729 254.72L392.129 62.9099C392.454 60.862 393.179 58.898 394.263 57.1303C395.347 55.3626 396.769 53.8258 398.447 52.6074C400.124 51.3891 402.026 50.5133 404.042 50.0298C406.059 49.5464 408.151 49.4649 410.199 49.7899L410.749 49.8899H466.339C470.528 49.8926 474.546 51.5581 477.508 54.5206C480.471 57.4831 482.136 61.5003 482.139 65.6899Z" fill="#EE5B28"/>
<path d="M204.089 341.56C218.017 341.56 229.309 330.269 229.309 316.34C229.309 302.411 218.017 291.12 204.089 291.12C190.16 291.12 178.869 302.411 178.869 316.34C178.869 330.269 190.16 341.56 204.089 341.56Z" fill="#EE5B28"/>
<path d="M336.319 341.56C350.247 341.56 361.539 330.269 361.539 316.34C361.539 302.411 350.247 291.12 336.319 291.12C322.39 291.12 311.099 302.411 311.099 316.34C311.099 330.269 322.39 341.56 336.319 341.56Z" fill="#EE5B28"/>
<path d="M157.126 436.308C163.059 436.308 167.446 437.602 170.287 440.19C173.19 442.778 174.642 446.155 174.642 450.321C174.642 453.856 173.664 456.57 171.707 458.464C169.75 460.294 166.941 461.209 163.28 461.209C162.144 461.209 161.418 461.115 161.103 460.925C160.787 460.673 160.629 460.199 160.629 459.505C160.629 458.874 160.566 458.053 160.44 457.043C160.377 456.033 160.156 455.055 159.777 454.108C159.398 453.161 158.799 452.372 157.978 451.741C157.157 451.047 156.021 450.7 154.569 450.7C152.549 450.7 150.75 451.331 149.172 452.593C147.594 453.793 146.805 455.371 146.805 457.327C146.805 459.032 147.436 460.42 148.699 461.493C150.024 462.567 151.666 463.577 153.622 464.523C155.579 465.407 157.694 466.322 159.966 467.269C162.302 468.216 164.448 469.478 166.405 471.057C168.362 472.571 169.971 474.497 171.234 476.832C172.559 479.105 173.222 482.008 173.222 485.543C173.222 488.321 172.749 490.94 171.802 493.402C170.918 495.801 169.561 497.915 167.73 499.746C165.963 501.513 163.691 502.902 160.913 503.912C158.199 504.922 155.011 505.427 151.35 505.427C148.194 505.427 145.259 505.08 142.544 504.385C139.893 503.691 137.558 502.839 135.538 501.829C133.581 500.756 132.035 499.62 130.898 498.42C129.762 497.158 129.194 496.022 129.194 495.012C129.194 490.845 129.415 487.847 129.857 486.017C130.362 484.186 131.246 483.271 132.508 483.271C133.392 483.271 134.307 483.65 135.254 484.407C136.264 485.164 137.4 486.017 138.662 486.963C139.925 487.91 141.377 488.762 143.018 489.52C144.722 490.277 146.679 490.656 148.888 490.656C149.772 490.656 150.624 490.593 151.445 490.467C152.328 490.277 153.086 489.993 153.717 489.615C154.412 489.236 154.948 488.731 155.327 488.1C155.769 487.468 155.99 486.711 155.99 485.827C155.99 484.249 155.39 482.987 154.191 482.04C152.991 481.093 151.476 480.241 149.646 479.483C147.815 478.663 145.827 477.842 143.681 477.022C141.598 476.138 139.641 474.97 137.81 473.518C135.98 472.003 134.465 470.078 133.265 467.743C132.066 465.407 131.466 462.409 131.466 458.748C131.466 454.645 132.224 451.173 133.739 448.332C135.317 445.492 137.305 443.188 139.704 441.42C142.166 439.59 144.912 438.296 147.941 437.538C151.034 436.718 154.096 436.308 157.126 436.308ZM203.238 505.427C200.461 505.427 197.684 505.08 194.906 504.385C192.192 503.691 189.73 502.492 187.521 500.787C185.375 499.083 183.607 496.811 182.218 493.97C180.83 491.13 180.135 487.563 180.135 483.271C180.135 481.693 180.262 479.799 180.514 477.59C180.767 475.38 181.24 473.108 181.934 470.773C182.692 468.437 183.702 466.133 184.964 463.861C186.29 461.525 187.994 459.442 190.077 457.611C192.16 455.781 194.685 454.297 197.652 453.161C200.619 452.025 204.154 451.457 208.257 451.457C211.539 451.457 214.316 451.836 216.589 452.593C218.861 453.351 220.692 454.392 222.08 455.718C223.469 456.98 224.479 458.464 225.11 460.168C225.742 461.872 226.057 463.703 226.057 465.66C226.057 468.563 225.457 471.025 224.258 473.045C223.122 475.065 221.607 476.769 219.713 478.158C217.883 479.483 215.831 480.525 213.559 481.282C211.286 482.04 209.046 482.64 206.836 483.081C204.627 483.46 202.576 483.713 200.682 483.839C198.851 483.902 197.431 483.934 196.421 483.934C196.421 485.133 196.579 486.332 196.895 487.532C197.273 488.668 197.81 489.678 198.504 490.561C199.198 491.445 200.114 492.171 201.25 492.739C202.386 493.307 203.775 493.591 205.416 493.591C207.057 493.591 208.32 493.339 209.203 492.834C210.15 492.266 210.908 491.666 211.476 491.035C212.044 490.341 212.517 489.741 212.896 489.236C213.338 488.668 213.906 488.384 214.6 488.384C214.916 488.384 215.453 488.478 216.21 488.668C217.031 488.794 217.851 489.11 218.672 489.615C219.492 490.12 220.218 490.814 220.85 491.698C221.481 492.581 221.796 493.718 221.796 495.106C221.796 496.937 221.228 498.515 220.092 499.84C218.956 501.166 217.472 502.239 215.642 503.06C213.874 503.88 211.886 504.48 209.677 504.859C207.468 505.237 205.321 505.427 203.238 505.427ZM205.037 464.05C203.649 464.05 202.449 464.46 201.439 465.281C200.492 466.038 199.672 467.017 198.978 468.216C198.346 469.415 197.841 470.741 197.463 472.193C197.147 473.645 196.895 475.033 196.705 476.359C200.619 476.296 203.775 475.633 206.174 474.37C208.635 473.108 209.866 471.309 209.866 468.974C209.866 467.711 209.456 466.575 208.635 465.565C207.878 464.555 206.679 464.05 205.037 464.05ZM242.743 505.332C238.829 505.332 236.02 504.291 234.316 502.208C232.612 500.125 231.76 496.684 231.76 491.887C231.76 491.13 231.791 490.183 231.854 489.047C231.981 487.91 232.107 486.458 232.233 484.691C232.422 482.86 232.643 480.62 232.896 477.968C233.148 475.317 233.401 472.098 233.653 468.311C233.969 464.523 234.285 460.073 234.6 454.96C234.979 449.847 235.358 443.914 235.736 437.16C235.799 435.771 235.957 434.95 236.21 434.698C236.399 434.509 236.904 434.414 237.725 434.414H241.417C243.311 434.414 244.889 434.635 246.152 435.077C247.414 435.519 248.424 436.118 249.181 436.876C249.939 437.633 250.475 438.517 250.791 439.527C251.107 440.474 251.265 441.484 251.265 442.557C251.265 443.819 251.17 445.65 250.98 448.048C250.854 450.384 250.665 453.035 250.412 456.002C250.16 458.969 249.907 462.062 249.655 465.281C249.402 468.5 249.15 471.593 248.897 474.56C248.645 477.464 248.424 480.083 248.235 482.419C248.108 484.754 248.045 486.522 248.045 487.721C248.045 489.362 248.329 490.53 248.897 491.224C249.529 491.919 250.191 492.424 250.886 492.739C251.58 492.992 252.211 493.181 252.779 493.307C253.411 493.37 253.726 493.56 253.726 493.875C253.726 495.264 253.569 496.653 253.253 498.041C252.937 499.367 252.369 500.598 251.549 501.734C250.728 502.807 249.592 503.691 248.14 504.385C246.751 505.017 244.952 505.332 242.743 505.332ZM271.315 505.332C267.401 505.332 264.592 504.291 262.888 502.208C261.183 500.125 260.331 496.684 260.331 491.887C260.331 491.13 260.363 490.183 260.426 489.047C260.552 487.91 260.678 486.458 260.805 484.691C260.994 482.86 261.215 480.62 261.467 477.968C261.72 475.317 261.972 472.098 262.225 468.311C262.541 464.523 262.856 460.073 263.172 454.96C263.551 449.847 263.929 443.914 264.308 437.16C264.371 435.771 264.529 434.95 264.781 434.698C264.971 434.509 265.476 434.414 266.296 434.414H269.989C271.883 434.414 273.461 434.635 274.723 435.077C275.986 435.519 276.996 436.118 277.753 436.876C278.511 437.633 279.047 438.517 279.363 439.527C279.678 440.474 279.836 441.484 279.836 442.557C279.836 443.819 279.741 445.65 279.552 448.048C279.426 450.384 279.236 453.035 278.984 456.002C278.732 458.969 278.479 462.062 278.227 465.281C277.974 468.5 277.722 471.593 277.469 474.56C277.217 477.464 276.996 480.083 276.806 482.419C276.68 484.754 276.617 486.522 276.617 487.721C276.617 489.362 276.901 490.53 277.469 491.224C278.1 491.919 278.763 492.424 279.457 492.739C280.152 492.992 280.783 493.181 281.351 493.307C281.982 493.37 282.298 493.56 282.298 493.875C282.298 495.264 282.14 496.653 281.825 498.041C281.509 499.367 280.941 500.598 280.12 501.734C279.3 502.807 278.163 503.691 276.712 504.385C275.323 505.017 273.524 505.332 271.315 505.332Z" fill="#EE4236"/>
<path d="M325.775 504.48C322.24 504.48 319.715 503.786 318.2 502.397C316.685 501.008 315.928 499.02 315.928 496.432C315.928 495.169 316.022 493.023 316.212 489.993C316.401 486.9 316.654 483.397 316.969 479.483C317.285 475.57 317.6 471.435 317.916 467.08C318.232 462.724 318.547 458.621 318.863 454.771C319.179 450.92 319.431 447.543 319.62 444.64C319.81 441.736 319.904 439.748 319.904 438.675C319.904 437.728 320.409 437.254 321.419 437.254H326.627C330.477 437.254 333.065 438.075 334.391 439.716C335.717 441.357 336.379 443.788 336.379 447.007C336.379 447.322 336.316 448.332 336.19 450.037C336.127 451.741 336.001 453.887 335.811 456.475C335.622 459.063 335.401 461.967 335.149 465.186C334.959 468.342 334.738 471.593 334.486 474.939C334.296 478.284 334.075 481.566 333.823 484.786C333.634 487.942 333.444 490.814 333.255 493.402C333.065 495.99 332.908 498.168 332.781 499.935C332.655 501.639 332.561 502.681 332.497 503.06C332.434 503.565 332.308 503.943 332.119 504.196C331.929 504.385 331.551 504.48 330.982 504.48H325.775ZM365.112 465.186C364.922 467.585 364.701 469.952 364.449 472.287C364.259 474.623 364.07 476.832 363.881 478.915C363.691 480.998 363.533 482.86 363.407 484.502C363.344 486.143 363.313 487.405 363.313 488.289C363.313 489.93 363.502 491.035 363.881 491.603C364.259 492.108 364.891 492.36 365.774 492.36C366.469 492.36 367.068 492.234 367.573 491.982C368.078 491.729 368.552 491.445 368.994 491.13C369.435 490.814 369.814 490.53 370.13 490.277C370.509 490.025 370.919 489.899 371.361 489.899C371.803 489.899 372.213 490.151 372.592 490.656C372.97 491.161 373.16 492.329 373.16 494.159C373.16 497.631 372.213 500.377 370.319 502.397C368.425 504.417 365.175 505.427 360.567 505.427C356.022 505.427 352.645 504.385 350.436 502.302C348.289 500.156 347.216 496.905 347.216 492.55C347.216 491.603 347.248 490.498 347.311 489.236C347.437 487.91 347.595 486.206 347.784 484.123C347.974 482.04 348.195 479.483 348.447 476.454C348.763 473.424 349.078 469.668 349.394 465.186H344.376C343.871 465.186 343.555 465.091 343.429 464.902C343.366 464.65 343.334 464.302 343.334 463.861L343.618 459.032C343.681 458.211 343.776 457.422 343.902 456.665C344.092 455.844 344.407 455.118 344.849 454.487C345.354 453.856 346.049 453.351 346.932 452.972C347.816 452.593 348.984 452.404 350.436 452.404C350.877 451.268 351.382 449.91 351.95 448.332C352.519 446.754 353.087 445.239 353.655 443.788C354.223 442.273 354.759 441.01 355.264 440C355.833 438.99 356.338 438.485 356.779 438.485H359.525C362.176 438.485 364.007 439.306 365.017 440.947C366.027 442.588 366.532 444.545 366.532 446.817C366.532 448.08 366.437 449.942 366.248 452.404H376.19C377.2 452.404 377.705 452.846 377.705 453.729L377.326 458.842C377.2 460.736 376.663 462.283 375.716 463.482C374.832 464.618 372.97 465.186 370.13 465.186H365.112Z" fill="#EE5B28"/>
</svg>
