<svg width="550" height="350" viewBox="0 0 550 350" fill="none" xmlns="http://www.w3.org/2000/svg">
<path d="M427.643 156.144H447.403C449.29 156.083 451.163 156.813 452.912 158.292C454.661 159.77 456.249 161.966 457.582 164.749C460.272 170.385 461.797 177.989 461.831 185.937C461.864 193.884 460.404 201.543 457.761 207.277C456.476 210.095 454.923 212.327 453.202 213.83C451.481 215.332 449.628 216.074 447.762 216.007H412.135C408.064 216.007 404.531 212.39 401.477 205.406C398.486 198.699 396.837 189.867 396.867 180.713V35.1697C396.867 25.1924 398.304 16.8365 401.178 10.2266C402.553 6.94734 404.259 4.34139 406.174 2.59506C408.089 0.848738 410.166 0.00517059 412.255 0.124659H448.84C452.373 0.124659 455.366 3.11783 457.881 8.85473C460.362 14.6894 461.688 22.2655 461.594 30.0563C461.641 37.9129 460.274 45.5216 457.761 51.3827C456.626 54.2079 455.206 56.4773 453.602 58.0293C451.998 59.5814 450.249 60.3779 448.481 60.3622H427.404V78.9448H444.768C446.619 78.8939 448.455 79.631 450.164 81.1107C451.874 82.5905 453.42 84.7817 454.708 87.5501C456.019 90.3073 457.053 93.5791 457.752 97.1758C458.451 100.772 458.8 104.622 458.779 108.502C458.817 112.272 458.486 116.018 457.806 119.512C457.127 123.007 456.113 126.177 454.828 128.831C453.52 131.608 451.953 133.794 450.222 135.253C448.491 136.712 446.635 137.413 444.768 137.312H427.643V156.144Z" fill="#CB3868"/>
<path d="M351.6 64.6028L374.892 208.524C377.706 207.402 386.867 203.536 393.873 189.443C399.801 177.595 400.998 164.999 401.298 159.885" stroke="url(#paint0_linear)" stroke-width="10" stroke-miterlimit="10"/>
<path d="M381.718 181.087L359.564 40.6575H369.024L381.718 181.087Z" fill="url(#paint1_linear)" stroke="url(#paint2_linear)" stroke-miterlimit="10"/>
<path d="M386.508 168.116L370.641 24.1948H380.161L386.508 168.116Z" fill="url(#paint3_linear)" stroke="url(#paint4_linear)" stroke-miterlimit="10"/>
<path d="M390.759 154.273L384.412 12.0972H393.873L390.759 156.019" fill="url(#paint5_linear)"/>
<path d="M390.759 154.273L384.412 12.0972H393.873L390.759 156.019" stroke="url(#paint6_linear)" stroke-miterlimit="10"/>
<path d="M373.814 215.633L440.278 216.381V184.579H396.208L373.814 215.633Z" fill="url(#paint7_linear)"/>
<path d="M509.914 192.061L530.512 146.914C533.533 149.959 536.099 154.658 537.936 160.508C542.667 175.599 540.391 192.56 540.032 195.179C537.038 215.633 533.685 230.848 531.051 238.58C523.566 260.779 514.525 271.879 510.154 277.242C501.412 287.718 493.388 292.208 486.203 295.326C468.779 302.778 450.921 304.796 433.212 301.312C428.242 300.439 424.889 299.566 418.303 297.695C396.508 291.459 381.239 284.6 358.546 274.748C358.546 274.748 330.583 262.401 297.891 250.179C283.101 244.691 274.659 243.444 262.683 244.442C243.044 246.188 235.26 255.167 231.787 259.906C225.749 268.302 220.745 279.538 217.177 292.707C212.931 308.777 210.764 326.871 210.89 345.212C219.611 337.259 228.621 330.754 237.834 325.756C261.426 313.035 280.586 314.033 311.123 319.77C344.295 325.881 373.814 334.362 395.909 340.722C407.405 344.089 431.536 351.198 461.175 349.826C474.47 349.144 487.629 344.05 500.154 334.736C514.764 323.885 521.65 312.287 524.225 307.672C532.708 293.205 539.384 274.677 543.685 253.671C545.062 246.811 552.008 212.016 549.433 172.481C548.056 151.404 544.822 142.425 543.685 139.431C541.593 133.973 538.815 129.829 535.661 127.459C531.072 129.306 526.761 133.411 523.087 139.431C515.662 151.404 511.95 167.742 510.453 175.474L509.914 192.061Z" fill="#CB3868"/>
<path d="M36.9479 84.9311L44.0134 89.1714C53.5338 94.5342 60.24 99.6475 64.132 104.387C68.6439 109.391 72.3813 116.959 74.9098 126.212C77.5724 135.622 78.9781 146.344 78.9814 157.266C78.9814 178.343 75.1493 196.053 67.4252 210.145C59.7011 224.238 49.9412 231.347 38.3251 231.347C33.2723 231.451 28.2244 230.658 23.2362 228.977C19.053 227.57 14.983 224.968 11.1411 221.245C10.2408 220.462 9.37862 219.502 8.56635 218.377C7.5387 217.036 6.57613 215.491 5.69227 213.762C3.88345 210.779 2.39451 207.041 1.32127 202.787C0.423119 199.046 0.00398179 194.307 0.00398179 188.445C-0.0786476 180.689 1.12694 173.112 3.41696 166.994C5.75215 161.008 8.50648 158.014 11.7997 158.014C13.3385 158.068 14.86 158.702 16.2904 159.885L22.2781 163.377L27.5473 166.37L32.8763 169.363C35.0989 170.372 37.3676 170.874 39.6424 170.86C41.6542 171.039 43.6543 170.137 45.4504 168.241C46.9473 166.37 47.7257 164.25 47.7257 161.631C47.7522 160.64 47.6493 159.653 47.4279 158.775C47.2065 157.897 46.8748 157.16 46.4683 156.642C44.7408 154.939 42.9354 153.602 41.0794 152.652L34.0738 148.785C23.5355 142.799 16.1108 136.937 11.7997 131.45C8.23319 126.381 5.36421 119.459 3.47683 111.371C1.42777 102.81 0.361878 93.3744 0.363242 83.8087C0.363242 62.8565 4.25523 45.4795 12.0392 31.6777C19.8232 17.8758 29.643 11.0165 41.4986 11.0996C45.888 11.0826 50.2585 12.2991 54.4918 14.7164C58.4492 16.763 62.2138 20.1777 65.6289 24.8183C70.1795 30.6799 72.5147 39.9089 72.5147 52.6298C72.6232 60.2307 71.3387 67.6328 68.9221 73.3326C67.8151 76.0226 66.4352 78.1675 64.8821 79.6124C63.3289 81.0574 61.6412 81.7665 59.9406 81.6885C58.7359 81.7391 57.532 81.5301 56.348 81.0649C54.7974 80.4697 53.2747 79.5934 51.7973 78.4459L46.7677 75.0786C41.8578 71.7113 38.0856 70.09 35.5109 70.09C32.9362 70.09 30.4812 72.5843 30.4812 77.5729C30.4812 79.9425 31.4393 81.6885 33.4152 82.9357L36.9479 84.9311Z" fill="url(#paint8_linear)"/>
<path d="M98.7407 73.0832H88.4419C86.6649 73.1283 84.9063 72.3323 83.2986 70.7552C81.6908 69.1781 80.2761 66.8611 79.161 63.979C76.6063 58.163 75.2142 50.5347 75.269 42.6527C75.217 34.9573 76.6141 27.5256 79.161 21.9499C80.3049 19.1636 81.7296 16.9367 83.3337 15.4277C84.9379 13.9188 86.682 13.165 88.4419 13.2198H140.235C142.018 13.1693 143.784 13.9364 145.409 15.4667C147.034 16.9969 148.477 19.2529 149.636 22.0746C152.222 28.0503 153.614 35.8574 153.528 43.8998C153.562 47.7243 153.23 51.5246 152.552 55.0791C151.873 58.6336 150.862 61.871 149.576 64.6026C148.394 67.3079 146.951 69.4621 145.341 70.9236C143.731 72.3852 141.991 73.1212 140.235 73.0832H129.218V197.3C129.313 206.223 127.722 214.866 124.787 221.37C123.449 224.571 121.791 227.124 119.929 228.847C118.067 230.571 116.047 231.424 114.009 231.347C109.818 231.347 106.285 227.98 103.291 221.245C100.286 214.666 98.6501 205.88 98.7407 196.801V73.0832Z" fill="url(#paint9_linear)"/>
<path d="M179.215 188.819C191.384 188.819 201.25 166.763 201.25 139.557C201.25 112.35 191.384 90.2939 179.215 90.2939C167.046 90.2939 157.18 112.35 157.18 139.557C157.18 166.763 167.046 188.819 179.215 188.819Z" stroke="url(#paint10_linear)" stroke-width="12" stroke-miterlimit="10"/>
<path d="M150.414 97.1533C152.002 97.1533 153.288 94.0822 153.288 90.2939C153.288 86.5056 152.002 83.4346 150.414 83.4346C148.827 83.4346 147.54 86.5056 147.54 90.2939C147.54 94.0822 148.827 97.1533 150.414 97.1533Z" fill="url(#paint11_linear)"/>
<path d="M142.81 83.4346H136.463C134.644 83.4346 133.17 86.4944 133.17 90.269C133.17 94.0435 134.644 97.1034 136.463 97.1034H142.81C144.629 97.1034 146.103 94.0435 146.103 90.269C146.103 86.4944 144.629 83.4346 142.81 83.4346Z" fill="url(#paint12_linear)"/>
<path d="M201.07 43.0267C200.847 39.3961 200.97 35.7095 201.433 32.1783C201.895 28.6471 202.687 25.3407 203.765 22.4487C205.674 17.3067 208.422 13.8014 211.489 12.5962L275.916 13.095C286.933 13.095 293.879 25.0677 298.969 38.6617C304.058 52.2557 304.777 63.6048 305.256 71.7113C306.422 85.0319 305.714 98.7708 303.218 111.273C300.721 123.775 296.542 134.507 291.185 142.175L303.759 180.837C304.357 183.706 306.693 195.803 304.357 209.522C303.252 215.792 301.397 221.373 298.969 225.735C296.229 230.105 292.835 232.314 289.388 231.971C282.802 231.098 279.149 220.871 278.61 219.499C271.246 195.304 263.821 171.234 256.456 147.164V199.545C256.566 206.709 255.511 213.74 253.462 219.499C250.954 226.2 247.314 230.66 243.283 231.971C239.061 232.081 234.965 228.973 231.766 223.23C228.568 217.487 226.488 209.507 225.919 200.792C225.979 158.139 226.099 115.486 226.158 72.8337H211.489C208.696 70.773 206.231 67.1481 204.363 62.3576C202.298 56.8173 201.143 50.0396 201.07 43.0267Z" fill="url(#paint13_linear)"/>
<path d="M255.857 98.5254V72.3352H270.228C271.565 74.1434 272.609 76.7519 273.221 79.8181C273.607 81.8004 273.81 83.9156 273.82 86.0539C273.771 88.7348 273.356 91.3308 272.623 93.5368C271.856 95.7252 270.822 97.4474 269.629 98.5254H255.857Z" fill="white"/>
<path d="M342.978 39.9089C342.978 22.3449 336.142 8.10645 327.709 8.10645C319.277 8.10645 312.441 22.3449 312.441 39.9089V198.297C312.441 215.861 319.277 230.1 327.709 230.1C336.142 230.1 342.978 215.861 342.978 198.297V39.9089Z" fill="#CB3868"/>
<path d="M469.286 211.237C469.286 210.967 469.183 210.758 468.978 210.61C468.776 210.459 468.422 210.329 467.914 210.221C467.41 210.113 467.008 209.984 466.709 209.832C466.414 209.681 466.194 209.501 466.05 209.292C465.91 209.083 465.84 208.835 465.84 208.547C465.84 208.068 466.041 207.663 466.445 207.331C466.852 207 467.37 206.834 468 206.834C468.663 206.834 469.2 207.005 469.61 207.347C470.024 207.69 470.231 208.127 470.231 208.66H469.227C469.227 208.386 469.11 208.151 468.876 207.952C468.645 207.754 468.353 207.655 468 207.655C467.637 207.655 467.352 207.735 467.147 207.893C466.942 208.052 466.839 208.259 466.839 208.514C466.839 208.756 466.934 208.937 467.125 209.06C467.316 209.182 467.66 209.299 468.157 209.411C468.658 209.523 469.063 209.656 469.372 209.811C469.682 209.966 469.911 210.153 470.059 210.373C470.21 210.589 470.285 210.853 470.285 211.167C470.285 211.689 470.077 212.108 469.659 212.425C469.241 212.739 468.699 212.895 468.033 212.895C467.565 212.895 467.15 212.813 466.79 212.647C466.43 212.481 466.147 212.251 465.942 211.955C465.741 211.657 465.64 211.334 465.64 210.988H466.639C466.657 211.323 466.79 211.59 467.039 211.788C467.291 211.982 467.622 212.08 468.033 212.08C468.411 212.08 468.713 212.004 468.94 211.853C469.171 211.698 469.286 211.493 469.286 211.237Z" fill="black"/>
<path d="M517.458 65.3509C514.644 63.7296 512.848 62.8565 512.07 62.6071C510.709 61.7126 509.302 61.1681 507.878 60.9858C505.303 60.9858 503.986 62.8566 503.986 66.4733C503.986 70.09 506.142 73.9562 510.453 76.8247L523.746 87.1761C530.571 92.913 535.901 101.394 539.792 112.493C543.622 123.232 545.661 136.283 545.601 149.658C545.601 170.611 542.008 187.821 534.763 201.54C527.518 215.259 518.297 222.118 507.04 222.118C495.783 222.118 485.903 217.379 478.239 207.901C470.575 198.422 466.743 186.449 466.743 171.858C466.632 163.454 468.116 155.298 470.874 149.16C472.107 146.193 473.634 143.82 475.35 142.205C477.066 140.59 478.931 139.772 480.814 139.806C482.645 139.711 484.476 140.088 486.263 140.928C487.58 141.801 490.514 144.171 494.945 148.162C497.004 150.158 499.124 151.866 501.292 153.275C502.849 154.232 504.459 154.777 506.082 154.896C509.136 154.896 510.633 152.901 510.633 148.91C510.633 144.919 507.998 140.679 502.669 137.81L486.981 126.337C481.775 122.083 477.308 114.648 474.168 105.01C471.174 95.3657 469.677 84.1413 469.677 71.3372C469.677 49.8861 473.329 32.6754 480.694 19.5803C488.059 6.48521 497.699 0 509.674 0C519.255 0 527.278 3.99089 533.685 11.848C540.092 19.705 543.325 29.6823 543.325 41.5302C543.325 50.0109 542.128 57.1196 539.613 62.9813C538.44 65.8269 536.977 68.0884 535.329 69.5993C533.681 71.1102 531.892 71.8319 530.092 71.7113C528.536 71.7113 525.901 70.5889 522.129 68.4688L517.458 65.3509Z" fill="url(#paint14_linear)"/>
<path d="M241.607 300.066C246.337 295.202 251.486 292.458 256.636 290.338L260.528 288.966L264.42 287.968C265.737 287.469 267.054 287.345 268.371 287.095L270.347 286.596L272.323 286.347C282.809 284.954 293.322 284.746 303.818 285.723C314.297 286.472 324.775 288.218 335.194 290.462C340.383 291.543 345.592 292.791 350.822 294.204C356.031 295.576 361.24 297.072 366.39 298.694L374.174 301.437L378.126 303.183L381.958 304.805C386.987 307.05 392.137 309.045 397.226 311.041C407.465 314.907 417.704 318.274 428.003 321.267C433.152 322.639 438.302 323.761 443.511 324.884C448.72 326.006 453.87 326.755 459.019 327.129C464.168 327.503 469.378 327.752 474.587 327.378L478.479 327.004L482.371 326.256L486.263 325.258L490.095 323.761C485.104 327.129 479.972 329.509 474.767 330.87C469.497 332.242 464.288 332.99 459.019 333.365C448.506 333.784 437.991 332.951 427.524 330.87C417.045 329 406.627 326.131 396.268 322.639C391.059 320.893 385.909 318.898 380.76 316.902L376.928 315.281L373.156 313.535L365.492 311.041C344.894 304.555 324.236 299.068 303.519 295.451C298.37 294.578 293.16 293.83 288.011 293.331C282.862 292.832 277.592 292.333 272.443 292.458C267.246 292.352 262.049 292.81 256.875 293.83L252.983 294.703C251.726 294.952 250.468 295.576 249.151 295.95L247.235 296.823L245.379 297.696C244.72 297.945 244.121 298.444 243.463 298.818L241.607 300.066Z" fill="white"/>
<path d="M23.0564 195.554C29.4818 196.393 35.9321 195.344 42.2169 192.436C42.5601 192.235 42.8807 191.894 43.1602 191.433C43.4397 190.972 43.6725 190.401 43.8452 189.751C44.0178 189.101 44.1269 188.387 44.166 187.649C44.2051 186.911 44.1736 186.164 44.0731 185.452C43.8776 184.036 43.4228 182.837 42.8066 182.114C42.1905 181.39 41.4626 181.201 40.7799 181.585L36.2293 183.331H35.6305C35.87 183.331 35.87 183.331 35.5107 183.456L34.3731 183.706L32.2175 184.08C29.1688 184.558 26.1079 184.599 23.0564 184.204C22.7026 184.204 22.3522 184.35 22.0253 184.632C21.6984 184.914 21.4013 185.327 21.1511 185.848C20.9009 186.369 20.7024 186.988 20.567 187.669C20.4316 188.35 20.3619 189.08 20.3619 189.817C20.3619 190.554 20.4316 191.283 20.567 191.964C20.7024 192.645 20.9009 193.264 21.1511 193.785C21.4013 194.306 21.6984 194.72 22.0253 195.002C22.3522 195.284 22.7026 195.429 23.0564 195.429V195.554Z" fill="#F2F2F2"/>
<path d="M30.4813 58.1177L31.4393 57.12L31.9183 56.7458C31.6788 56.8705 31.6788 56.8705 31.8585 56.7458L33.6548 55.374L35.3912 54.501L36.1696 54.1268H36.7085C37.8971 53.7537 39.1005 53.6284 40.3011 53.7527L42.0974 54.0021H42.6961L43.7141 54.3762C44.3967 54.761 45.1247 54.5712 45.7408 53.8479C46.3569 53.1246 46.8118 51.9258 47.0073 50.5101C47.3067 47.6416 46.5881 44.2743 45.0912 43.6507C39.2337 41.0071 33.1172 42.6822 27.7868 48.3899C27.4785 48.7633 27.2089 49.2605 26.9935 49.8526C26.7782 50.4447 26.6214 51.1199 26.5323 51.8392C26.4431 52.5585 26.4235 53.3074 26.4744 54.0426C26.5253 54.7779 26.6458 55.4847 26.8288 56.1223C27.201 57.3614 27.7862 58.258 28.465 58.6288C29.1438 58.9997 29.865 58.8169 30.4813 58.1177Z" fill="#F2F2F2"/>
<path d="M317.77 43.1518C317.76 42.2354 317.78 41.3187 317.83 40.408C317.83 40.7822 317.77 41.281 317.83 40.6574C317.826 40.4427 317.846 40.2291 317.889 40.0339C317.9 39.5267 317.94 39.0241 318.009 38.5373C318.133 37.4754 318.293 36.4335 318.488 35.4194C318.548 35.0453 318.608 34.6711 318.488 35.2947L318.668 34.5464C318.805 33.9385 318.965 33.3546 319.147 32.8004L319.626 31.1791C319.746 30.9296 319.566 31.3038 319.566 31.4285L319.746 30.9296L320.105 30.0566L320.823 28.6848L321.003 28.4353L321.542 27.687C322.255 26.7556 323.048 26.1204 323.877 25.8163L324.536 25.5669H326.512L327.111 25.8163C328.069 26.1905 329.146 25.1927 329.326 23.1973C329.398 22.7225 329.423 22.2216 329.398 21.7262C329.373 21.2308 329.299 20.7514 329.181 20.3182C329.063 19.885 328.903 19.5072 328.712 19.2086C328.52 18.9099 328.301 18.6969 328.069 18.5828C326.371 17.8132 324.612 17.8509 322.922 18.693C321.232 19.5351 319.655 21.1599 318.309 23.4467C316.153 27.0635 314.836 32.8004 314.357 38.4126C314.208 39.9722 314.148 41.5628 314.177 43.1518C314.169 43.6478 314.209 44.1421 314.297 44.6039C314.384 45.0657 314.516 45.4851 314.685 45.8361C314.853 46.1871 315.055 46.462 315.276 46.6439C315.498 46.8258 315.735 46.9106 315.973 46.8932C316.445 46.862 316.893 46.4578 317.227 45.7628C317.561 45.0678 317.755 44.1341 317.77 43.1518Z" fill="#F2F2F2"/>
<path d="M282.921 41.5305C283.93 42.455 284.893 43.5828 285.796 44.8978L286.334 45.6461C286.634 46.145 285.855 44.8978 286.394 45.7708L287.592 48.0157L288.67 50.3853L289.149 51.6325C288.789 50.3853 289.029 51.2583 289.089 51.5078L289.448 52.5055L290.346 55.7481C290.406 55.9975 290.765 57.8682 290.526 56.4964L290.885 58.6165C291.08 59.9275 291.24 61.2598 291.364 62.6074V63.3557C291.424 62.2333 291.364 62.9816 291.364 63.4804C291.415 64.2655 291.435 65.0581 291.424 65.85C291.463 67.1398 291.443 68.4344 291.364 69.7162V70.5892C291.304 70.5892 291.424 69.0926 291.364 70.3398C291.313 71.0591 291.233 71.7683 291.125 72.4599C291.005 73.7071 290.825 74.9543 290.646 76.2014C290.466 77.4486 290.167 78.571 290.466 77.3238C290.286 77.9474 290.167 78.6957 289.987 79.3193C289.663 80.6497 289.303 81.9405 288.909 83.1855L288.61 84.0585L288.37 84.6821C288.55 84.1832 288.61 84.0585 288.49 84.4326L287.712 86.3033L286.095 89.5459L285.736 90.1695L285.556 90.419L284.418 92.0403C283.823 92.8155 283.393 94.0345 283.215 95.4483C283.037 96.8622 283.125 98.3643 283.46 99.6479C284.239 102.142 285.915 103.389 287.173 101.643C289.938 98.0969 292.256 93.2239 293.933 87.4311C295.61 81.6383 296.598 75.0939 296.813 68.3443C296.916 62.4108 296.341 56.5112 295.133 51.133C293.925 45.7549 292.12 41.0526 289.867 37.4149C288.572 35.1721 287.143 33.2859 285.616 31.8027C284.299 30.5556 282.622 30.9297 281.904 33.7982C281.185 36.6666 281.484 40.1587 282.862 41.5305H282.921Z" fill="#F2F2F2"/>
<path d="M231.128 210.145C232.326 213.513 233.583 216.755 235.379 218.875C237.258 220.772 239.346 221.59 241.427 221.245C243.463 221.245 245.558 220.621 247.295 218.252C249.002 215.898 250.22 212.291 250.708 208.15C251.307 203.535 247.834 201.54 247.235 206.154C246.636 210.769 243.882 213.762 241.187 213.887C239.811 214.083 238.433 213.569 237.176 212.39C235.986 210.847 234.982 208.757 234.242 206.279C233.996 205.419 233.595 204.798 233.129 204.552C232.663 204.307 232.17 204.457 231.757 204.97C231.344 205.482 231.046 206.316 230.928 207.286C230.81 208.257 230.882 209.285 231.128 210.145Z" fill="white"/>
<path d="M445.487 173.604C446.393 173.36 447.313 173.512 448.189 174.048C449.065 174.585 449.878 175.496 450.576 176.722C451.28 177.927 451.835 179.467 452.193 181.212C452.373 181.835 452.193 181.212 452.313 181.835C452.42 182.314 452.5 182.816 452.552 183.332C452.552 183.456 452.672 184.828 452.672 184.329V185.826C452.679 186.287 452.659 186.747 452.612 187.198C452.672 186.699 452.552 188.071 452.552 188.196C452.499 188.671 452.419 189.132 452.313 189.567C452.292 189.829 452.252 190.081 452.193 190.316C451.79 192.003 451.218 193.491 450.516 194.681C449.854 195.777 449.104 196.622 448.301 197.175C447.352 197.784 446.351 197.954 445.367 197.674C444.409 197.425 443.571 199.545 443.571 201.415C443.586 202.398 443.78 203.331 444.114 204.026C444.447 204.721 444.895 205.126 445.367 205.157C447.465 205.598 449.576 204.656 451.402 202.463C453.229 200.27 454.678 196.937 455.546 192.935C457.283 184.454 455.666 175.225 452.253 169.987C450.303 167.007 447.894 165.63 445.487 166.121C445.015 166.152 444.567 166.556 444.233 167.251C443.9 167.946 443.706 168.88 443.691 169.862C443.691 171.733 444.529 173.853 445.487 173.604Z" fill="white"/>
<path d="M404.83 43.4009C404.505 39.4644 404.599 35.4268 405.108 31.5752C405.616 27.7236 406.526 24.1528 407.772 21.1166C409.018 18.0803 410.571 15.6534 412.318 14.0083C414.066 12.3632 415.966 11.5404 417.883 11.5984C420.159 11.5984 420.159 4.11552 417.883 4.11552C415.436 4.10753 413.018 5.20758 410.795 7.33949C408.572 9.4714 406.598 12.5842 405.01 16.4623C403.439 20.4527 402.303 25.108 401.683 30.1047C401.062 35.1013 400.972 40.3194 401.417 45.3963C401.537 47.3918 402.735 48.5142 403.573 48.0153C404.026 47.7254 404.408 47.0861 404.642 46.2283C404.875 45.3705 404.943 44.359 404.83 43.4009Z" fill="white"/>
<path d="M137.601 26.814C141.193 26.0657 144.726 29.6824 146.163 36.6665C146.043 36.1676 146.223 37.2901 146.283 37.4148L146.462 38.7866C146.522 39.1608 146.522 39.5349 146.582 39.9091C146.642 40.2832 146.582 40.6574 146.582 40.9068C146.661 42.5135 146.559 44.1365 146.283 45.646C145.728 48.707 144.774 51.3848 143.528 53.3783C141.816 55.9682 139.708 57.1657 137.601 56.7457C137.362 56.7282 137.125 56.8131 136.903 56.995C136.682 57.1768 136.48 57.4518 136.312 57.8027C136.143 58.1537 136.011 58.5732 135.924 59.035C135.837 59.4968 135.796 59.9911 135.804 60.4871C135.819 61.4695 136.013 62.4031 136.347 63.0981C136.681 63.7932 137.129 64.1974 137.601 64.2286C140.047 64.6065 142.49 63.3939 144.592 60.7581C146.694 58.1223 148.352 54.193 149.336 49.5122C151.312 40.0338 149.456 29.6824 145.504 23.6961C143.213 20.2834 140.403 18.7312 137.601 19.331C137.124 19.331 136.667 19.7252 136.33 20.4269C135.994 21.1286 135.804 22.0802 135.804 23.0725C135.804 24.0648 135.994 25.0165 136.33 25.7181C136.667 26.4198 137.124 26.814 137.601 26.814Z" fill="#F2F2F2"/>
<path d="M481.592 40.4077C481.892 33.0495 484.886 26.9384 487.999 23.4464C489.886 21.3879 491.873 19.7573 493.927 18.5825C496.083 17.2106 498.478 15.2152 500.753 15.8388C501.225 15.8075 501.673 15.4033 502.007 14.7083C502.34 14.0133 502.534 13.0797 502.549 12.0973C502.549 11.105 502.36 10.1533 502.023 9.45168C501.686 8.75002 501.229 8.35584 500.753 8.35584C498.059 7.60754 495.244 9.85242 492.67 11.4737C490.25 12.8945 487.918 14.9038 485.724 17.4601C481.652 22.4487 478.419 30.4305 478 40.4077C477.88 42.4031 478.898 44.1492 479.796 44.1492C480.268 44.1179 480.716 43.7137 481.05 43.0187C481.383 42.3237 481.577 41.3901 481.592 40.4077Z" fill="#F2F2F2"/>
<path d="M515.962 214.635C519.794 212.39 523.746 210.02 527.099 205.281C530.394 200.905 532.803 194.158 533.865 186.324C534.464 181.71 530.991 179.714 530.392 184.329C528.476 199.045 521.231 203.785 515.004 207.401C512.728 208.648 513.686 215.882 515.962 214.635Z" fill="#F2F2F2"/>
<path d="M122.093 127.833V184.828C122.093 189.692 125.685 189.692 125.685 184.828V127.833C125.685 122.969 122.093 122.969 122.093 127.833Z" fill="#F2F2F2"/>
<defs>
<linearGradient id="paint0_linear" x1="29443.1" y1="30460.8" x2="34050.1" y2="30460.8" gradientUnits="userSpaceOnUse">
<stop stop-color="#CB3767"/>
<stop offset="0.07" stop-color="#D44268"/>
<stop offset="0.26" stop-color="#E75869"/>
<stop offset="0.46" stop-color="#F5696A"/>
<stop offset="0.69" stop-color="#FD726B"/>
<stop offset="1" stop-color="#FF756B"/>
</linearGradient>
<linearGradient id="paint1_linear" x1="14196.8" y1="10709.1" x2="7570.07" y2="54592.7" gradientUnits="userSpaceOnUse">
<stop stop-color="#CB3767"/>
<stop offset="0.07" stop-color="#D44268"/>
<stop offset="0.26" stop-color="#E75869"/>
<stop offset="0.46" stop-color="#F5696A"/>
<stop offset="0.69" stop-color="#FD726B"/>
<stop offset="1" stop-color="#FF756B"/>
</linearGradient>
<linearGradient id="paint2_linear" x1="13711.1" y1="26504.6" x2="14559" y2="26504.6" gradientUnits="userSpaceOnUse">
<stop stop-color="#CB3767"/>
<stop offset="0.07" stop-color="#D44268"/>
<stop offset="0.26" stop-color="#E75869"/>
<stop offset="0.46" stop-color="#F5696A"/>
<stop offset="0.69" stop-color="#FD726B"/>
<stop offset="1" stop-color="#FF756B"/>
</linearGradient>
<linearGradient id="paint3_linear" x1="10486.7" y1="11002.5" x2="990.273" y2="54950.9" gradientUnits="userSpaceOnUse">
<stop stop-color="#CB3767"/>
<stop offset="0.07" stop-color="#D44268"/>
<stop offset="0.26" stop-color="#E75869"/>
<stop offset="0.46" stop-color="#F5696A"/>
<stop offset="0.69" stop-color="#FD726B"/>
<stop offset="1" stop-color="#FF756B"/>
</linearGradient>
<linearGradient id="paint4_linear" x1="10228.5" y1="25442.2" x2="10666.8" y2="25442.2" gradientUnits="userSpaceOnUse">
<stop stop-color="#CB3767"/>
<stop offset="0.07" stop-color="#D44268"/>
<stop offset="0.26" stop-color="#E75869"/>
<stop offset="0.46" stop-color="#F5696A"/>
<stop offset="0.69" stop-color="#FD726B"/>
<stop offset="1" stop-color="#FF756B"/>
</linearGradient>
<linearGradient id="paint5_linear" x1="6567.62" y1="11045.1" x2="-8153.26" y2="51717.4" gradientUnits="userSpaceOnUse">
<stop stop-color="#CB3767"/>
<stop offset="0.07" stop-color="#D44268"/>
<stop offset="0.26" stop-color="#E75869"/>
<stop offset="0.46" stop-color="#F5696A"/>
<stop offset="0.69" stop-color="#FD726B"/>
<stop offset="1" stop-color="#FF756B"/>
</linearGradient>
<linearGradient id="paint6_linear" x1="6479.92" y1="24022.5" x2="6640.37" y2="24022.5" gradientUnits="userSpaceOnUse">
<stop stop-color="#CB3767"/>
<stop offset="0.07" stop-color="#D44268"/>
<stop offset="0.26" stop-color="#E75869"/>
<stop offset="0.46" stop-color="#F5696A"/>
<stop offset="0.69" stop-color="#FD726B"/>
<stop offset="1" stop-color="#FF756B"/>
</linearGradient>
<linearGradient id="paint7_linear" x1="46081.2" y1="2182.41" x2="45956.5" y2="13116.4" gradientUnits="userSpaceOnUse">
<stop stop-color="#CB3767"/>
<stop offset="0.07" stop-color="#D44268"/>
<stop offset="0.26" stop-color="#E75869"/>
<stop offset="0.46" stop-color="#F5696A"/>
<stop offset="0.69" stop-color="#FD726B"/>
<stop offset="1" stop-color="#FF756B"/>
</linearGradient>
<linearGradient id="paint8_linear" x1="10469.8" y1="22532.4" x2="7489.88" y2="67418.1" gradientUnits="userSpaceOnUse">
<stop stop-color="#CB3767"/>
<stop offset="0.07" stop-color="#D44268"/>
<stop offset="0.26" stop-color="#E75869"/>
<stop offset="0.46" stop-color="#F5696A"/>
<stop offset="0.69" stop-color="#FD726B"/>
<stop offset="1" stop-color="#FF756B"/>
</linearGradient>
<linearGradient id="paint9_linear" x1="10450" y1="22317.5" x2="7500.43" y2="66770.9" gradientUnits="userSpaceOnUse">
<stop stop-color="#CB3767"/>
<stop offset="0.07" stop-color="#D44268"/>
<stop offset="0.26" stop-color="#E75869"/>
<stop offset="0.46" stop-color="#F5696A"/>
<stop offset="0.69" stop-color="#FD726B"/>
<stop offset="1" stop-color="#FF756B"/>
</linearGradient>
<linearGradient id="paint10_linear" x1="11590.1" y1="20937.2" x2="15358.9" y2="20937.2" gradientUnits="userSpaceOnUse">
<stop stop-color="#CB3767"/>
<stop offset="0.07" stop-color="#D44268"/>
<stop offset="0.26" stop-color="#E75869"/>
<stop offset="0.46" stop-color="#F5696A"/>
<stop offset="0.69" stop-color="#FD726B"/>
<stop offset="1" stop-color="#FF756B"/>
</linearGradient>
<linearGradient id="paint11_linear" x1="1622.63" y1="1006.15" x2="1374.46" y2="5376.84" gradientUnits="userSpaceOnUse">
<stop stop-color="#CB3767"/>
<stop offset="0.07" stop-color="#D44268"/>
<stop offset="0.26" stop-color="#E75869"/>
<stop offset="0.46" stop-color="#F5696A"/>
<stop offset="0.69" stop-color="#FD726B"/>
<stop offset="1" stop-color="#FF756B"/>
</linearGradient>
<linearGradient id="paint12_linear" x1="3219.2" y1="996.92" x2="3109.27" y2="5362.99" gradientUnits="userSpaceOnUse">
<stop stop-color="#CB3767"/>
<stop offset="0.07" stop-color="#D44268"/>
<stop offset="0.26" stop-color="#E75869"/>
<stop offset="0.46" stop-color="#F5696A"/>
<stop offset="0.69" stop-color="#FD726B"/>
<stop offset="1" stop-color="#FF756B"/>
</linearGradient>
<linearGradient id="paint13_linear" x1="45047.5" y1="23991.8" x2="43118.1" y2="62691.6" gradientUnits="userSpaceOnUse">
<stop stop-color="#CB3767"/>
<stop offset="1" stop-color="#FF756B"/>
</linearGradient>
<linearGradient id="paint14_linear" x1="67531" y1="31136.5" x2="65212.9" y2="65704.5" gradientUnits="userSpaceOnUse">
<stop stop-color="#CB3767"/>
<stop offset="0.07" stop-color="#D44268"/>
<stop offset="0.26" stop-color="#E75869"/>
<stop offset="0.46" stop-color="#F5696A"/>
<stop offset="0.69" stop-color="#FD726B"/>
<stop offset="1" stop-color="#FF756B"/>
</linearGradient>
</defs>
</svg>
